{"glyphs":{"0":{"ha":878,"x_min":89,"x_max":789,"o":"m 439 -18 q 253 37 332 -18 q 132 199 175 92 q 89 465 89 307 q 132 732 89 625 q 253 894 175 839 q 439 949 332 949 q 624 894 546 949 q 746 732 703 839 q 789 465 789 625 q 746 199 789 307 q 624 37 703 92 q 439 -18 546 -18 m 439 49 q 544 69 496 49 q 629 136 593 90 l 215 742 q 177 624 190 693 q 164 465 164 556 q 200 222 164 314 q 299 90 236 131 q 439 49 361 49 m 250 796 l 664 192 q 701 308 688 240 q 714 465 714 376 q 693 658 714 579 q 635 787 672 738 q 548 859 599 836 q 439 882 497 882 q 335 861 383 882 q 250 796 286 840 z "},"1":{"ha":878,"x_min":167,"x_max":725,"o":"m 169 0 l 169 67 l 419 67 l 419 742 l 167 742 l 167 794 q 304 806 249 794 q 394 845 360 817 q 446 928 429 874 l 494 928 l 494 67 l 725 67 l 725 0 l 169 0 z "},"2":{"ha":878,"x_min":136,"x_max":767,"o":"m 136 0 l 136 68 q 434 316 321 210 q 600 512 547 422 q 653 690 653 601 q 599 824 653 771 q 453 878 546 878 q 315 835 376 878 q 235 699 254 793 l 157 722 q 258 883 181 822 q 454 944 335 944 q 597 915 535 944 q 694 830 658 886 q 731 692 731 774 q 690 521 731 604 q 578 359 649 438 q 422 209 508 281 q 244 72 336 138 l 767 72 l 767 0 l 136 0 z "},"3":{"ha":878,"x_min":140,"x_max":764,"o":"m 446 -17 q 279 18 343 -17 q 183 107 215 53 q 140 218 150 161 l 215 232 q 285 103 231 157 q 446 50 339 50 q 570 75 515 50 q 656 146 625 100 q 688 253 688 192 q 653 371 688 325 q 560 439 618 417 q 433 461 503 461 l 399 461 l 399 528 l 433 528 q 531 544 481 528 q 617 601 582 560 q 653 714 653 642 q 625 804 653 768 q 553 859 597 840 q 457 878 508 878 q 301 825 360 878 q 229 701 243 772 l 156 721 q 208 829 171 778 q 306 913 244 881 q 456 944 368 944 q 560 930 511 944 q 647 885 610 915 q 706 813 685 856 q 728 713 728 769 q 688 577 728 638 q 558 496 647 517 q 713 410 663 479 q 764 256 764 342 q 719 106 764 167 q 603 14 675 44 q 446 -17 531 -17 z "},"4":{"ha":878,"x_min":88,"x_max":792,"o":"m 553 0 l 553 247 l 88 247 l 88 333 l 540 928 l 628 928 l 628 317 l 792 317 l 792 247 l 628 247 l 628 0 l 553 0 m 160 317 l 553 317 l 553 831 l 547 831 l 160 317 z "},"5":{"ha":878,"x_min":144,"x_max":754,"o":"m 444 -17 q 283 17 344 -17 q 188 105 221 51 q 144 218 156 158 l 218 235 q 285 102 233 154 q 449 50 338 50 q 561 80 508 50 q 647 167 614 110 q 679 304 679 224 q 645 447 679 392 q 558 529 611 503 q 451 556 506 556 q 332 525 385 556 q 247 443 279 494 l 176 461 l 233 928 l 715 928 l 715 856 l 294 856 l 254 529 q 342 599 290 575 q 460 622 394 622 q 608 584 542 622 q 715 475 675 546 q 754 304 754 404 q 710 127 754 199 q 595 19 665 56 q 444 -17 525 -17 z "},"6":{"ha":878,"x_min":143,"x_max":768,"o":"m 460 -17 q 286 33 357 -17 q 179 176 215 82 q 143 404 143 269 q 160 603 143 507 q 215 777 176 700 q 320 899 254 854 q 483 944 386 944 q 641 901 579 944 q 729 797 703 857 l 657 769 q 589 848 636 818 q 478 878 542 878 q 337 819 394 878 q 248 663 279 761 q 213 442 217 564 q 308 560 240 513 q 474 607 375 607 q 627 567 561 607 q 731 458 693 528 q 768 293 768 388 q 731 143 768 214 q 626 28 694 72 q 460 -17 557 -17 m 461 50 q 628 118 565 50 q 692 292 692 186 q 628 472 692 403 q 463 540 565 540 q 293 471 356 540 q 231 292 231 401 q 293 118 231 186 q 461 50 356 50 z "},"7":{"ha":878,"x_min":142,"x_max":747,"o":"m 263 0 l 671 856 l 142 856 l 142 928 l 747 928 l 747 856 l 346 0 l 263 0 z "},"8":{"ha":878,"x_min":114,"x_max":764,"o":"m 439 -15 q 269 22 342 -15 q 155 120 196 58 q 114 257 114 182 q 165 408 114 342 q 301 507 215 475 q 224 591 253 539 q 194 706 194 643 q 227 828 194 774 q 315 916 260 883 q 439 949 371 949 q 563 916 507 949 q 651 828 618 883 q 683 706 683 774 q 654 591 683 643 q 576 507 625 539 q 713 408 663 475 q 764 257 764 342 q 723 120 764 182 q 609 22 682 58 q 439 -15 536 -15 m 439 51 q 571 79 515 51 q 657 153 626 107 q 688 257 688 200 q 657 360 688 314 q 571 435 626 407 q 439 463 515 463 q 308 435 364 463 q 221 360 251 407 q 190 257 190 314 q 221 153 190 200 q 308 79 251 107 q 439 51 364 51 m 439 529 q 527 553 488 529 q 590 616 567 576 q 614 704 614 656 q 590 792 614 753 q 527 856 567 832 q 439 879 488 879 q 351 856 390 879 q 288 792 311 832 q 264 704 264 753 q 288 616 264 656 q 351 553 311 576 q 439 529 390 529 z "},"9":{"ha":878,"x_min":101,"x_max":760,"o":"m 351 0 l 554 318 q 439 290 500 292 q 318 311 378 289 q 209 376 258 333 q 131 480 160 418 q 101 619 101 542 q 146 786 101 711 q 265 905 190 861 q 431 949 339 949 q 597 905 522 949 q 716 786 672 861 q 760 619 760 711 q 749 531 760 569 q 717 456 738 492 q 669 375 697 419 l 438 0 l 351 0 m 431 364 q 559 399 501 364 q 651 491 617 433 q 685 619 685 549 q 651 748 685 690 q 559 840 617 806 q 431 875 501 875 q 302 840 360 875 q 210 748 244 806 q 175 619 175 690 q 210 491 175 549 q 302 399 244 433 q 431 364 360 364 z "},"A":{"ha":878,"x_min":49,"x_max":829,"o":"m 49 0 l 399 928 l 481 928 l 829 0 l 750 0 l 665 233 l 213 233 l 126 0 l 49 0 m 236 300 l 640 300 l 442 846 l 436 846 l 236 300 z "},"Á":{"ha":878,"x_min":49,"x_max":829,"o":"m 49 0 l 399 928 l 481 928 l 829 0 l 750 0 l 665 233 l 213 233 l 126 0 l 49 0 m 236 300 l 640 300 l 442 846 l 436 846 l 236 300 m 407 1026 l 522 1132 q 553 1158 542 1150 q 579 1165 565 1165 q 605 1157 594 1165 q 615 1132 615 1149 q 602 1103 615 1114 q 556 1074 589 1093 l 475 1026 l 407 1026 z "},"Ă":{"ha":878,"x_min":49,"x_max":829,"o":"m 49 0 l 399 928 l 481 928 l 829 0 l 750 0 l 665 233 l 213 233 l 126 0 l 49 0 m 236 300 l 640 300 l 442 846 l 436 846 l 236 300 m 439 1026 q 333 1067 375 1026 q 279 1164 290 1108 l 335 1164 q 368 1109 342 1135 q 439 1083 394 1083 q 509 1109 483 1083 q 543 1164 535 1135 l 599 1164 q 546 1067 588 1108 q 439 1026 504 1026 z "},"Â":{"ha":878,"x_min":49,"x_max":829,"o":"m 49 0 l 399 928 l 481 928 l 829 0 l 750 0 l 665 233 l 213 233 l 126 0 l 49 0 m 236 300 l 640 300 l 442 846 l 436 846 l 236 300 m 267 1026 l 378 1140 q 408 1163 393 1156 q 440 1169 422 1169 q 472 1163 457 1169 q 500 1140 486 1156 l 611 1026 l 535 1026 l 438 1110 l 343 1026 l 267 1026 z "},"Ä":{"ha":878,"x_min":49,"x_max":829,"o":"m 49 0 l 399 928 l 481 928 l 829 0 l 750 0 l 665 233 l 213 233 l 126 0 l 49 0 m 236 300 l 640 300 l 442 846 l 436 846 l 236 300 m 550 1024 q 507 1042 525 1024 q 489 1085 489 1060 q 507 1128 489 1110 q 550 1146 525 1146 q 593 1128 575 1146 q 611 1085 611 1110 q 593 1042 611 1060 q 550 1024 575 1024 m 328 1024 q 285 1042 303 1024 q 267 1085 267 1060 q 285 1128 267 1110 q 328 1146 303 1146 q 371 1128 353 1146 q 389 1085 389 1110 q 371 1042 389 1060 q 328 1024 353 1024 z "},"À":{"ha":878,"x_min":49,"x_max":829,"o":"m 49 0 l 399 928 l 481 928 l 829 0 l 750 0 l 665 233 l 213 233 l 126 0 l 49 0 m 236 300 l 640 300 l 442 846 l 436 846 l 236 300 m 403 1026 l 322 1074 q 276 1103 289 1093 q 263 1132 263 1114 q 274 1157 263 1149 q 299 1165 285 1165 q 324 1158 313 1165 q 356 1132 336 1150 l 471 1026 l 403 1026 z "},"Ā":{"ha":878,"x_min":49,"x_max":829,"o":"m 49 0 l 399 928 l 481 928 l 829 0 l 750 0 l 665 233 l 213 233 l 126 0 l 49 0 m 236 300 l 640 300 l 442 846 l 436 846 l 236 300 m 263 1047 l 263 1108 l 615 1108 l 615 1047 l 263 1047 z "},"Ą":{"ha":878,"x_min":49,"x_max":829,"o":"m 49 0 l 399 928 l 481 928 l 829 0 q 766 -30 793 -11 q 725 -71 739 -49 q 711 -117 711 -93 q 733 -162 711 -149 q 781 -176 754 -176 q 806 -174 793 -176 q 829 -167 818 -171 l 829 -221 q 794 -231 808 -229 q 763 -233 779 -233 q 704 -221 731 -233 q 663 -185 678 -208 q 649 -131 649 -162 q 676 -49 649 -82 q 747 7 704 -15 l 665 233 l 213 233 l 126 0 l 49 0 m 236 300 l 640 300 l 442 846 l 436 846 l 236 300 z "},"Å":{"ha":878,"x_min":49,"x_max":829,"o":"m 49 0 l 390 906 q 331 953 354 921 q 307 1028 307 986 q 325 1094 307 1064 q 373 1142 343 1124 q 439 1160 403 1160 q 506 1142 476 1160 q 553 1094 536 1124 q 571 1028 571 1064 q 548 954 571 988 q 489 906 525 921 l 829 0 l 750 0 l 665 233 l 213 233 l 126 0 l 49 0 m 236 300 l 640 300 l 442 846 l 436 846 l 236 300 m 439 951 q 493 974 471 951 q 515 1028 515 997 q 493 1082 515 1060 q 439 1104 471 1104 q 385 1082 408 1104 q 363 1028 363 1060 q 385 974 363 997 q 439 951 408 951 z "},"Ã":{"ha":878,"x_min":49,"x_max":829,"o":"m 49 0 l 399 928 l 481 928 l 829 0 l 750 0 l 665 233 l 213 233 l 126 0 l 49 0 m 236 300 l 640 300 l 442 846 l 436 846 l 236 300 m 525 1035 q 465 1049 493 1035 q 413 1076 438 1063 q 363 1090 388 1090 q 322 1076 339 1090 q 301 1036 304 1063 l 246 1036 q 291 1123 257 1099 q 365 1147 325 1147 q 424 1134 399 1147 q 474 1107 450 1121 q 524 1093 497 1093 q 558 1104 546 1093 q 579 1131 569 1115 q 594 1147 586 1142 q 610 1151 601 1151 q 625 1146 618 1151 q 632 1125 632 1140 q 621 1093 632 1115 q 586 1053 610 1071 q 525 1035 563 1035 z "},"Æ":{"ha":878,"x_min":7,"x_max":861,"o":"m 7 0 l 379 928 l 857 928 l 857 861 l 504 861 l 504 511 l 789 511 l 789 444 l 504 444 l 504 67 l 861 67 l 861 0 l 426 0 l 426 233 l 174 233 l 82 0 l 7 0 m 200 300 l 426 300 l 426 865 l 421 865 l 200 300 z "},"B":{"ha":878,"x_min":161,"x_max":779,"o":"m 161 0 l 161 928 l 476 928 q 626 896 568 928 q 711 810 683 864 q 739 690 739 756 q 726 610 739 651 q 687 536 714 569 q 614 485 660 503 q 708 432 671 465 q 762 354 744 399 q 779 256 779 310 q 751 129 779 188 q 664 35 724 71 q 506 0 604 0 l 161 0 m 239 67 l 492 67 q 613 94 567 67 q 679 165 658 121 q 700 261 700 210 q 650 392 700 338 q 489 447 600 447 l 239 447 l 239 67 m 239 514 l 485 514 q 620 563 579 514 q 661 682 661 611 q 614 808 661 756 q 463 861 567 861 l 239 861 l 239 514 z "},"C":{"ha":878,"x_min":75,"x_max":801,"o":"m 464 -17 q 260 47 347 -17 q 124 219 172 110 q 75 467 75 328 q 126 713 75 606 q 267 883 176 821 q 472 944 357 944 q 663 892 574 944 q 797 738 753 840 l 729 711 q 634 828 699 779 q 471 878 569 878 q 315 831 388 878 q 199 693 243 785 q 154 467 154 601 q 199 239 154 332 q 315 98 243 146 q 471 50 388 50 q 590 73 539 50 q 675 134 640 96 q 732 217 710 172 l 801 190 q 665 34 753 85 q 464 -17 578 -17 z "},"Ć":{"ha":878,"x_min":75,"x_max":801,"o":"m 464 -17 q 260 47 347 -17 q 124 219 172 110 q 75 467 75 328 q 126 713 75 606 q 267 883 176 821 q 472 944 357 944 q 663 892 574 944 q 797 738 753 840 l 729 711 q 634 828 699 779 q 471 878 569 878 q 315 831 388 878 q 199 693 243 785 q 154 467 154 601 q 199 239 154 332 q 315 98 243 146 q 471 50 388 50 q 590 73 539 50 q 675 134 640 96 q 732 217 710 172 l 801 190 q 665 34 753 85 q 464 -17 578 -17 m 436 1026 l 551 1132 q 583 1158 571 1150 q 608 1165 594 1165 q 634 1157 624 1165 q 644 1132 644 1149 q 631 1103 644 1114 q 585 1074 618 1093 l 504 1026 l 436 1026 z "},"Č":{"ha":878,"x_min":75,"x_max":801,"o":"m 464 -17 q 260 47 347 -17 q 124 219 172 110 q 75 467 75 328 q 126 713 75 606 q 267 883 176 821 q 472 944 357 944 q 663 892 574 944 q 797 738 753 840 l 729 711 q 634 828 699 779 q 471 878 569 878 q 315 831 388 878 q 199 693 243 785 q 154 467 154 601 q 199 239 154 332 q 315 98 243 146 q 471 50 388 50 q 590 73 539 50 q 675 134 640 96 q 732 217 710 172 l 801 190 q 665 34 753 85 q 464 -17 578 -17 m 469 1019 q 407 1049 436 1019 l 296 1163 l 372 1163 l 467 1079 l 564 1163 l 640 1163 l 529 1049 q 469 1019 500 1019 z "},"Ç":{"ha":878,"x_min":75,"x_max":801,"o":"m 451 -246 q 394 -236 425 -246 q 339 -212 363 -226 l 358 -178 q 408 -197 388 -192 q 449 -201 428 -201 q 501 -182 488 -201 q 515 -149 515 -162 q 503 -118 515 -129 q 458 -107 490 -107 q 427 -111 443 -107 q 400 -115 411 -115 q 381 -103 385 -115 q 388 -76 378 -90 l 425 -15 q 241 60 319 -4 q 119 231 163 125 q 75 467 75 336 q 126 713 75 606 q 267 883 176 821 q 472 944 357 944 q 663 892 574 944 q 797 738 753 840 l 729 711 q 634 828 699 779 q 471 878 569 878 q 315 831 388 878 q 199 693 243 785 q 154 467 154 601 q 199 239 154 332 q 315 98 243 146 q 471 50 388 50 q 590 73 539 50 q 675 134 640 96 q 732 217 710 172 l 801 190 q 670 38 754 89 q 476 -17 586 -14 l 444 -67 q 470 -62 458 -64 q 488 -61 482 -61 q 535 -72 517 -61 q 564 -101 554 -83 q 574 -137 574 -118 q 561 -184 574 -158 q 522 -228 549 -210 q 451 -246 494 -246 z "},"Ċ":{"ha":878,"x_min":75,"x_max":801,"o":"m 464 -17 q 260 47 347 -17 q 124 219 172 110 q 75 467 75 328 q 126 713 75 606 q 267 883 176 821 q 472 944 357 944 q 663 892 574 944 q 797 738 753 840 l 729 711 q 634 828 699 779 q 471 878 569 878 q 315 831 388 878 q 199 693 243 785 q 154 467 154 601 q 199 239 154 332 q 315 98 243 146 q 471 50 388 50 q 590 73 539 50 q 675 134 640 96 q 732 217 710 172 l 801 190 q 665 34 753 85 q 464 -17 578 -17 m 468 1024 q 424 1042 443 1024 q 406 1086 406 1060 q 424 1131 406 1113 q 468 1149 443 1149 q 512 1131 493 1149 q 531 1086 531 1113 q 512 1042 531 1060 q 468 1024 493 1024 z "},"D":{"ha":878,"x_min":107,"x_max":821,"o":"m 107 0 l 107 928 l 335 928 q 531 903 442 928 q 685 824 621 879 q 785 682 750 769 q 821 467 821 594 q 785 251 821 340 q 685 106 750 161 q 531 26 621 51 q 335 0 442 0 l 107 0 m 185 67 l 324 67 q 478 83 403 67 q 612 141 553 99 q 706 262 671 183 q 742 467 742 340 q 706 671 742 593 q 612 790 671 749 q 478 846 553 831 q 324 861 403 861 l 185 861 l 185 67 z "},"Ď":{"ha":878,"x_min":107,"x_max":821,"o":"m 107 0 l 107 928 l 335 928 q 531 903 442 928 q 685 824 621 879 q 785 682 750 769 q 821 467 821 594 q 785 251 821 340 q 685 106 750 161 q 531 26 621 51 q 335 0 442 0 l 107 0 m 185 67 l 324 67 q 478 83 403 67 q 612 141 553 99 q 706 262 671 183 q 742 467 742 340 q 706 671 742 593 q 612 790 671 749 q 478 846 553 831 q 324 861 403 861 l 185 861 l 185 67 m 457 1019 q 394 1049 424 1019 l 283 1163 l 360 1163 l 454 1079 l 551 1163 l 628 1163 l 517 1049 q 457 1019 488 1019 z "},"Đ":{"ha":878,"x_min":31,"x_max":821,"o":"m 107 0 l 107 454 l 31 454 l 31 521 l 107 521 l 107 928 l 335 928 q 531 903 442 928 q 685 824 621 879 q 785 682 750 769 q 821 467 821 594 q 785 251 821 340 q 685 106 750 161 q 531 26 621 51 q 335 0 442 0 l 107 0 m 185 67 l 324 67 q 478 83 403 67 q 612 141 553 99 q 706 262 671 183 q 742 467 742 340 q 706 671 742 593 q 612 790 671 749 q 478 846 553 831 q 324 861 403 861 l 185 861 l 185 521 l 465 521 l 465 454 l 185 454 l 185 67 z "},"Ð":{"ha":878,"x_min":31,"x_max":821,"o":"m 107 0 l 107 454 l 31 454 l 31 521 l 107 521 l 107 928 l 335 928 q 531 903 442 928 q 685 824 621 879 q 785 682 750 769 q 821 467 821 594 q 785 251 821 340 q 685 106 750 161 q 531 26 621 51 q 335 0 442 0 l 107 0 m 185 67 l 324 67 q 478 83 403 67 q 612 141 553 99 q 706 262 671 183 q 742 467 742 340 q 706 671 742 593 q 612 790 671 749 q 478 846 553 831 q 324 861 403 861 l 185 861 l 185 521 l 465 521 l 465 454 l 185 454 l 185 67 z "},"E":{"ha":878,"x_min":190,"x_max":746,"o":"m 190 0 l 190 928 l 740 928 l 740 861 l 268 861 l 268 511 l 653 511 l 653 444 l 268 444 l 268 67 l 746 67 l 746 0 l 190 0 z "},"É":{"ha":878,"x_min":190,"x_max":746,"o":"m 190 0 l 190 928 l 740 928 l 740 861 l 268 861 l 268 511 l 653 511 l 653 444 l 268 444 l 268 67 l 746 67 l 746 0 l 190 0 m 436 1026 l 551 1132 q 583 1158 571 1150 q 608 1165 594 1165 q 634 1157 624 1165 q 644 1132 644 1149 q 631 1103 644 1114 q 585 1074 618 1093 l 504 1026 l 436 1026 z "},"Ě":{"ha":878,"x_min":190,"x_max":746,"o":"m 190 0 l 190 928 l 740 928 l 740 861 l 268 861 l 268 511 l 653 511 l 653 444 l 268 444 l 268 67 l 746 67 l 746 0 l 190 0 m 469 1019 q 407 1049 436 1019 l 296 1163 l 372 1163 l 467 1079 l 564 1163 l 640 1163 l 529 1049 q 469 1019 500 1019 z "},"Ê":{"ha":878,"x_min":190,"x_max":746,"o":"m 190 0 l 190 928 l 740 928 l 740 861 l 268 861 l 268 511 l 653 511 l 653 444 l 268 444 l 268 67 l 746 67 l 746 0 l 190 0 m 296 1026 l 407 1140 q 437 1163 422 1156 q 469 1169 451 1169 q 501 1163 486 1169 q 529 1140 515 1156 l 640 1026 l 564 1026 l 467 1110 l 372 1026 l 296 1026 z "},"Ë":{"ha":878,"x_min":190,"x_max":746,"o":"m 190 0 l 190 928 l 740 928 l 740 861 l 268 861 l 268 511 l 653 511 l 653 444 l 268 444 l 268 67 l 746 67 l 746 0 l 190 0 m 579 1024 q 536 1042 554 1024 q 518 1085 518 1060 q 536 1128 518 1110 q 579 1146 554 1146 q 622 1128 604 1146 q 640 1085 640 1110 q 622 1042 640 1060 q 579 1024 604 1024 m 357 1024 q 314 1042 332 1024 q 296 1085 296 1060 q 314 1128 296 1110 q 357 1146 332 1146 q 400 1128 382 1146 q 418 1085 418 1110 q 400 1042 418 1060 q 357 1024 382 1024 z "},"Ė":{"ha":878,"x_min":190,"x_max":746,"o":"m 190 0 l 190 928 l 740 928 l 740 861 l 268 861 l 268 511 l 653 511 l 653 444 l 268 444 l 268 67 l 746 67 l 746 0 l 190 0 m 468 1024 q 424 1042 443 1024 q 406 1086 406 1060 q 424 1131 406 1113 q 468 1149 443 1149 q 512 1131 493 1149 q 531 1086 531 1113 q 512 1042 531 1060 q 468 1024 493 1024 z "},"È":{"ha":878,"x_min":190,"x_max":746,"o":"m 190 0 l 190 928 l 740 928 l 740 861 l 268 861 l 268 511 l 653 511 l 653 444 l 268 444 l 268 67 l 746 67 l 746 0 l 190 0 m 432 1026 l 351 1074 q 305 1103 318 1093 q 292 1132 292 1114 q 303 1157 292 1149 q 328 1165 314 1165 q 353 1158 342 1165 q 385 1132 365 1150 l 500 1026 l 432 1026 z "},"Ē":{"ha":878,"x_min":190,"x_max":746,"o":"m 190 0 l 190 928 l 740 928 l 740 861 l 268 861 l 268 511 l 653 511 l 653 444 l 268 444 l 268 67 l 746 67 l 746 0 l 190 0 m 292 1047 l 292 1108 l 644 1108 l 644 1047 l 292 1047 z "},"Ę":{"ha":878,"x_min":190,"x_max":746,"o":"m 190 0 l 190 928 l 740 928 l 740 861 l 268 861 l 268 511 l 653 511 l 653 444 l 268 444 l 268 67 l 746 67 l 746 0 q 683 -30 710 -11 q 642 -71 656 -49 q 628 -117 628 -93 q 649 -162 628 -149 q 697 -176 671 -176 q 722 -174 710 -176 q 746 -167 735 -171 l 746 -221 q 710 -231 725 -229 q 679 -233 696 -233 q 621 -221 647 -233 q 580 -185 594 -208 q 565 -131 565 -162 q 589 -54 565 -86 q 651 0 613 -22 l 190 0 z "},"F":{"ha":878,"x_min":190,"x_max":746,"o":"m 190 0 l 190 928 l 746 928 l 746 861 l 268 861 l 268 511 l 740 511 l 740 444 l 268 444 l 268 0 l 190 0 z "},"G":{"ha":878,"x_min":57,"x_max":803,"o":"m 449 -17 q 238 47 326 -17 q 103 218 150 110 q 57 464 57 326 q 106 716 57 608 q 242 884 154 824 q 451 944 331 944 q 645 890 558 944 q 775 729 732 836 l 706 703 q 608 831 674 785 q 449 878 543 878 q 291 831 363 878 q 178 692 219 783 q 136 464 136 600 q 177 243 136 336 q 289 100 218 150 q 447 50 360 50 q 535 63 486 50 q 628 110 583 76 q 701 202 672 143 q 729 351 729 261 l 729 388 l 451 388 l 451 454 l 803 454 l 803 0 l 747 0 l 729 135 q 649 47 697 81 q 549 -1 601 14 q 449 -17 496 -17 z "},"Ğ":{"ha":878,"x_min":57,"x_max":803,"o":"m 449 -17 q 238 47 326 -17 q 103 218 150 110 q 57 464 57 326 q 106 716 57 608 q 242 884 154 824 q 451 944 331 944 q 645 890 558 944 q 775 729 732 836 l 706 703 q 608 831 674 785 q 449 878 543 878 q 291 831 363 878 q 178 692 219 783 q 136 464 136 600 q 177 243 136 336 q 289 100 218 150 q 447 50 360 50 q 535 63 486 50 q 628 110 583 76 q 701 202 672 143 q 729 351 729 261 l 729 388 l 451 388 l 451 454 l 803 454 l 803 0 l 747 0 l 729 135 q 649 47 697 81 q 549 -1 601 14 q 449 -17 496 -17 m 449 1026 q 342 1067 385 1026 q 289 1164 300 1108 l 344 1164 q 378 1109 351 1135 q 449 1083 404 1083 q 519 1109 493 1083 q 553 1164 544 1135 l 608 1164 q 556 1067 597 1108 q 449 1026 514 1026 z "},"Ģ":{"ha":878,"x_min":57,"x_max":803,"o":"m 449 -17 q 238 47 326 -17 q 103 218 150 110 q 57 464 57 326 q 106 716 57 608 q 242 884 154 824 q 451 944 331 944 q 645 890 558 944 q 775 729 732 836 l 706 703 q 608 831 674 785 q 449 878 543 878 q 291 831 363 878 q 178 692 219 783 q 136 464 136 600 q 177 243 136 336 q 289 100 218 150 q 447 50 360 50 q 535 63 486 50 q 628 110 583 76 q 701 202 672 143 q 729 351 729 261 l 729 388 l 451 388 l 451 454 l 803 454 l 803 0 l 747 0 l 729 135 q 649 47 697 81 q 549 -1 601 14 q 449 -17 496 -17 m 386 -322 l 344 -287 q 394 -275 368 -285 q 438 -244 419 -265 q 457 -187 457 -222 q 445 -137 457 -161 q 406 -97 433 -114 l 465 -72 q 506 -120 493 -96 q 519 -176 519 -144 q 499 -253 519 -221 q 449 -302 479 -285 q 386 -322 418 -319 z "},"Ġ":{"ha":878,"x_min":57,"x_max":803,"o":"m 449 -17 q 238 47 326 -17 q 103 218 150 110 q 57 464 57 326 q 106 716 57 608 q 242 884 154 824 q 451 944 331 944 q 645 890 558 944 q 775 729 732 836 l 706 703 q 608 831 674 785 q 449 878 543 878 q 291 831 363 878 q 178 692 219 783 q 136 464 136 600 q 177 243 136 336 q 289 100 218 150 q 447 50 360 50 q 535 63 486 50 q 628 110 583 76 q 701 202 672 143 q 729 351 729 261 l 729 388 l 451 388 l 451 454 l 803 454 l 803 0 l 747 0 l 729 135 q 649 47 697 81 q 549 -1 601 14 q 449 -17 496 -17 m 449 1024 q 405 1042 424 1024 q 386 1086 386 1060 q 405 1131 386 1113 q 449 1149 424 1149 q 492 1131 474 1149 q 511 1086 511 1113 q 492 1042 511 1060 q 449 1024 474 1024 z "},"H":{"ha":878,"x_min":90,"x_max":788,"o":"m 90 0 l 90 928 l 168 928 l 168 513 l 710 513 l 710 928 l 788 928 l 788 0 l 710 0 l 710 446 l 168 446 l 168 0 l 90 0 z "},"Ħ":{"ha":878,"x_min":14,"x_max":864,"o":"m 90 0 l 90 718 l 14 718 l 14 782 l 90 782 l 90 928 l 168 928 l 168 782 l 710 782 l 710 928 l 788 928 l 788 782 l 864 782 l 864 718 l 788 718 l 788 0 l 710 0 l 710 446 l 168 446 l 168 0 l 90 0 m 168 513 l 710 513 l 710 718 l 168 718 l 168 513 z "},"I":{"ha":878,"x_min":199,"x_max":679,"o":"m 199 0 l 199 58 l 400 58 l 400 869 l 199 869 l 199 928 l 679 928 l 679 869 l 478 869 l 478 58 l 679 58 l 679 0 l 199 0 z "},"Ĳ":{"ha":878,"x_min":14,"x_max":808,"o":"m 589 -17 q 422 53 485 -17 q 363 272 358 124 l 440 288 q 457 147 436 199 q 514 72 478 94 q 589 50 550 50 q 651 65 618 50 q 707 124 683 79 q 731 256 731 168 l 731 928 l 808 928 l 808 254 q 747 51 808 118 q 589 -17 686 -17 m 14 0 l 14 58 l 125 58 l 125 869 l 14 869 l 14 928 l 314 928 l 314 869 l 203 869 l 203 58 l 314 58 l 314 0 l 14 0 z "},"Í":{"ha":878,"x_min":199,"x_max":679,"o":"m 199 0 l 199 58 l 400 58 l 400 869 l 199 869 l 199 928 l 679 928 l 679 869 l 478 869 l 478 58 l 679 58 l 679 0 l 199 0 m 407 1026 l 522 1132 q 553 1158 542 1150 q 579 1165 565 1165 q 605 1157 594 1165 q 615 1132 615 1149 q 602 1103 615 1114 q 556 1074 589 1093 l 475 1026 l 407 1026 z "},"Î":{"ha":878,"x_min":199,"x_max":679,"o":"m 199 0 l 199 58 l 400 58 l 400 869 l 199 869 l 199 928 l 679 928 l 679 869 l 478 869 l 478 58 l 679 58 l 679 0 l 199 0 m 267 1026 l 378 1140 q 408 1163 393 1156 q 440 1169 422 1169 q 472 1163 457 1169 q 500 1140 486 1156 l 611 1026 l 535 1026 l 438 1110 l 343 1026 l 267 1026 z "},"Ï":{"ha":878,"x_min":199,"x_max":679,"o":"m 199 0 l 199 58 l 400 58 l 400 869 l 199 869 l 199 928 l 679 928 l 679 869 l 478 869 l 478 58 l 679 58 l 679 0 l 199 0 m 550 1024 q 507 1042 525 1024 q 489 1085 489 1060 q 507 1128 489 1110 q 550 1146 525 1146 q 593 1128 575 1146 q 611 1085 611 1110 q 593 1042 611 1060 q 550 1024 575 1024 m 328 1024 q 285 1042 303 1024 q 267 1085 267 1060 q 285 1128 267 1110 q 328 1146 303 1146 q 371 1128 353 1146 q 389 1085 389 1110 q 371 1042 389 1060 q 328 1024 353 1024 z "},"İ":{"ha":878,"x_min":199,"x_max":679,"o":"m 199 0 l 199 58 l 400 58 l 400 869 l 199 869 l 199 928 l 679 928 l 679 869 l 478 869 l 478 58 l 679 58 l 679 0 l 199 0 m 439 1024 q 395 1042 414 1024 q 376 1086 376 1060 q 395 1131 376 1113 q 439 1149 414 1149 q 483 1131 464 1149 q 501 1086 501 1113 q 483 1042 501 1060 q 439 1024 464 1024 z "},"Ì":{"ha":878,"x_min":199,"x_max":679,"o":"m 199 0 l 199 58 l 400 58 l 400 869 l 199 869 l 199 928 l 679 928 l 679 869 l 478 869 l 478 58 l 679 58 l 679 0 l 199 0 m 403 1026 l 322 1074 q 276 1103 289 1093 q 263 1132 263 1114 q 274 1157 263 1149 q 299 1165 285 1165 q 324 1158 313 1165 q 356 1132 336 1150 l 471 1026 l 403 1026 z "},"Ī":{"ha":878,"x_min":199,"x_max":679,"o":"m 199 0 l 199 58 l 400 58 l 400 869 l 199 869 l 199 928 l 679 928 l 679 869 l 478 869 l 478 58 l 679 58 l 679 0 l 199 0 m 263 1047 l 263 1108 l 615 1108 l 615 1047 l 263 1047 z "},"Į":{"ha":878,"x_min":199,"x_max":679,"o":"m 199 0 l 199 58 l 400 58 l 400 869 l 199 869 l 199 928 l 679 928 l 679 869 l 478 869 l 478 58 l 679 58 l 679 0 q 616 -30 643 -11 q 575 -71 589 -49 q 561 -117 561 -93 q 583 -162 561 -149 q 631 -176 604 -176 q 656 -174 643 -176 q 679 -167 668 -171 l 679 -221 q 644 -231 658 -229 q 613 -233 629 -233 q 554 -221 581 -233 q 513 -185 528 -208 q 499 -131 499 -162 q 522 -54 499 -86 q 585 0 546 -22 l 199 0 z "},"J":{"ha":878,"x_min":96,"x_max":694,"o":"m 400 -17 q 240 14 310 -17 q 133 109 171 44 q 99 272 96 174 l 174 288 q 199 147 167 199 q 285 72 231 94 q 400 50 340 50 q 471 58 433 50 q 542 87 508 65 q 596 149 575 108 q 617 256 617 190 l 617 928 l 694 928 l 694 254 q 612 51 694 118 q 400 -17 529 -17 z "},"K":{"ha":878,"x_min":136,"x_max":833,"o":"m 136 0 l 136 928 l 214 928 l 214 400 l 685 928 l 782 928 l 431 543 l 833 0 l 739 0 l 381 486 l 214 304 l 214 0 l 136 0 z "},"Ķ":{"ha":878,"x_min":136,"x_max":833,"o":"m 136 0 l 136 928 l 214 928 l 214 400 l 685 928 l 782 928 l 431 543 l 833 0 l 739 0 l 381 486 l 214 304 l 214 0 l 136 0 m 363 -322 l 321 -287 q 370 -275 344 -285 q 415 -244 396 -265 q 433 -187 433 -222 q 422 -137 433 -161 q 382 -97 410 -114 l 442 -72 q 483 -120 469 -96 q 496 -176 496 -144 q 476 -253 496 -221 q 425 -302 456 -285 q 363 -322 394 -319 z "},"L":{"ha":878,"x_min":204,"x_max":808,"o":"m 204 0 l 204 928 l 282 928 l 282 67 l 808 67 l 808 0 l 204 0 z "},"Ĺ":{"ha":878,"x_min":204,"x_max":808,"o":"m 204 0 l 204 928 l 282 928 l 282 67 l 808 67 l 808 0 l 204 0 m 413 1026 l 528 1132 q 559 1158 547 1150 q 585 1165 571 1165 q 610 1157 600 1165 q 621 1132 621 1149 q 608 1103 621 1114 q 561 1074 594 1093 l 481 1026 l 413 1026 z "},"Ľ":{"ha":878,"x_min":204,"x_max":808,"o":"m 204 0 l 204 928 l 282 928 l 282 67 l 808 67 l 808 0 l 204 0 m 417 699 l 444 878 q 460 929 450 913 q 492 946 469 946 q 519 938 506 946 q 532 910 532 931 q 528 891 532 903 q 517 856 525 879 l 463 699 l 417 699 z "},"Ļ":{"ha":878,"x_min":204,"x_max":808,"o":"m 204 0 l 204 928 l 282 928 l 282 67 l 808 67 l 808 0 l 204 0 m 410 -322 l 368 -287 q 417 -275 392 -285 q 462 -244 443 -265 q 481 -187 481 -222 q 469 -137 481 -161 q 429 -97 457 -114 l 489 -72 q 530 -120 517 -96 q 543 -176 543 -144 q 523 -253 543 -221 q 472 -302 503 -285 q 410 -322 442 -319 z "},"Ł":{"ha":878,"x_min":43,"x_max":808,"o":"m 204 0 l 204 363 l 43 268 l 43 344 l 204 439 l 204 928 l 282 928 l 282 483 l 563 647 l 563 571 l 282 407 l 282 67 l 808 67 l 808 0 l 204 0 z "},"M":{"ha":878,"x_min":71,"x_max":807,"o":"m 71 0 l 71 928 l 206 928 l 439 104 l 444 104 l 672 928 l 807 928 l 807 0 l 729 0 l 729 844 l 724 844 l 483 0 l 397 0 l 154 844 l 149 844 l 149 0 l 71 0 z "},"N":{"ha":878,"x_min":118,"x_max":760,"o":"m 118 0 l 118 928 l 242 928 l 676 86 l 682 86 l 682 928 l 760 928 l 760 0 l 636 0 l 201 842 l 196 842 l 196 0 l 118 0 z "},"Ń":{"ha":878,"x_min":118,"x_max":760,"o":"m 118 0 l 118 928 l 242 928 l 676 86 l 682 86 l 682 928 l 760 928 l 760 0 l 636 0 l 201 842 l 196 842 l 196 0 l 118 0 m 407 1026 l 522 1132 q 553 1158 542 1150 q 579 1165 565 1165 q 605 1157 594 1165 q 615 1132 615 1149 q 602 1103 615 1114 q 556 1074 589 1093 l 475 1026 l 407 1026 z "},"Ň":{"ha":878,"x_min":118,"x_max":760,"o":"m 118 0 l 118 928 l 242 928 l 676 86 l 682 86 l 682 928 l 760 928 l 760 0 l 636 0 l 201 842 l 196 842 l 196 0 l 118 0 m 440 1019 q 378 1049 407 1019 l 267 1163 l 343 1163 l 438 1079 l 535 1163 l 611 1163 l 500 1049 q 440 1019 471 1019 z "},"Ņ":{"ha":878,"x_min":118,"x_max":760,"o":"m 118 0 l 118 928 l 242 928 l 676 86 l 682 86 l 682 928 l 760 928 l 760 0 l 636 0 l 201 842 l 196 842 l 196 0 l 118 0 m 354 -322 l 313 -287 q 362 -275 336 -285 q 406 -244 388 -265 q 425 -187 425 -222 q 413 -137 425 -161 q 374 -97 401 -114 l 433 -72 q 474 -120 461 -96 q 488 -176 488 -144 q 467 -253 488 -221 q 417 -302 447 -285 q 354 -322 386 -319 z "},"Ñ":{"ha":878,"x_min":118,"x_max":760,"o":"m 118 0 l 118 928 l 242 928 l 676 86 l 682 86 l 682 928 l 760 928 l 760 0 l 636 0 l 201 842 l 196 842 l 196 0 l 118 0 m 525 1035 q 465 1049 493 1035 q 413 1076 438 1063 q 363 1090 388 1090 q 322 1076 339 1090 q 301 1036 304 1063 l 246 1036 q 291 1123 257 1099 q 365 1147 325 1147 q 424 1134 399 1147 q 474 1107 450 1121 q 524 1093 497 1093 q 558 1104 546 1093 q 579 1131 569 1115 q 594 1147 586 1142 q 610 1151 601 1151 q 625 1146 618 1151 q 632 1125 632 1140 q 621 1093 632 1115 q 586 1053 610 1071 q 525 1035 563 1035 z "},"O":{"ha":878,"x_min":57,"x_max":821,"o":"m 439 -17 q 233 46 318 -17 q 102 217 147 108 q 57 464 57 325 q 102 711 57 603 q 233 882 147 819 q 439 944 318 944 q 645 882 560 944 q 776 711 731 819 q 821 464 821 603 q 776 217 821 325 q 645 46 731 108 q 439 -17 560 -17 m 439 50 q 594 98 525 50 q 702 238 663 146 q 742 464 742 331 q 702 690 742 599 q 594 830 663 782 q 439 878 525 878 q 284 830 353 878 q 176 690 215 782 q 136 464 136 599 q 176 238 136 331 q 284 98 215 146 q 439 50 353 50 z "},"Ó":{"ha":878,"x_min":57,"x_max":821,"o":"m 439 -17 q 233 46 318 -17 q 102 217 147 108 q 57 464 57 325 q 102 711 57 603 q 233 882 147 819 q 439 944 318 944 q 645 882 560 944 q 776 711 731 819 q 821 464 821 603 q 776 217 821 325 q 645 46 731 108 q 439 -17 560 -17 m 439 50 q 594 98 525 50 q 702 238 663 146 q 742 464 742 331 q 702 690 742 599 q 594 830 663 782 q 439 878 525 878 q 284 830 353 878 q 176 690 215 782 q 136 464 136 599 q 176 238 136 331 q 284 98 215 146 q 439 50 353 50 m 408 1026 l 524 1132 q 555 1158 543 1150 q 581 1165 567 1165 q 606 1157 596 1165 q 617 1132 617 1149 q 603 1103 617 1114 q 557 1074 590 1093 l 476 1026 l 408 1026 z "},"Ô":{"ha":878,"x_min":57,"x_max":821,"o":"m 439 -17 q 233 46 318 -17 q 102 217 147 108 q 57 464 57 325 q 102 711 57 603 q 233 882 147 819 q 439 944 318 944 q 645 882 560 944 q 776 711 731 819 q 821 464 821 603 q 776 217 821 325 q 645 46 731 108 q 439 -17 560 -17 m 439 50 q 594 98 525 50 q 702 238 663 146 q 742 464 742 331 q 702 690 742 599 q 594 830 663 782 q 439 878 525 878 q 284 830 353 878 q 176 690 215 782 q 136 464 136 599 q 176 238 136 331 q 284 98 215 146 q 439 50 353 50 m 268 1026 l 379 1140 q 409 1163 394 1156 q 442 1169 424 1169 q 473 1163 458 1169 q 501 1140 488 1156 l 613 1026 l 536 1026 l 439 1110 l 344 1026 l 268 1026 z "},"Ö":{"ha":878,"x_min":57,"x_max":821,"o":"m 439 -17 q 233 46 318 -17 q 102 217 147 108 q 57 464 57 325 q 102 711 57 603 q 233 882 147 819 q 439 944 318 944 q 645 882 560 944 q 776 711 731 819 q 821 464 821 603 q 776 217 821 325 q 645 46 731 108 q 439 -17 560 -17 m 439 50 q 594 98 525 50 q 702 238 663 146 q 742 464 742 331 q 702 690 742 599 q 594 830 663 782 q 439 878 525 878 q 284 830 353 878 q 176 690 215 782 q 136 464 136 599 q 176 238 136 331 q 284 98 215 146 q 439 50 353 50 m 551 1024 q 508 1042 526 1024 q 490 1085 490 1060 q 508 1128 490 1110 q 551 1146 526 1146 q 594 1128 576 1146 q 613 1085 613 1110 q 594 1042 613 1060 q 551 1024 576 1024 m 329 1024 q 286 1042 304 1024 q 268 1085 268 1060 q 286 1128 268 1110 q 329 1146 304 1146 q 372 1128 354 1146 q 390 1085 390 1110 q 372 1042 390 1060 q 329 1024 354 1024 z "},"Ò":{"ha":878,"x_min":57,"x_max":821,"o":"m 439 -17 q 233 46 318 -17 q 102 217 147 108 q 57 464 57 325 q 102 711 57 603 q 233 882 147 819 q 439 944 318 944 q 645 882 560 944 q 776 711 731 819 q 821 464 821 603 q 776 217 821 325 q 645 46 731 108 q 439 -17 560 -17 m 439 50 q 594 98 525 50 q 702 238 663 146 q 742 464 742 331 q 702 690 742 599 q 594 830 663 782 q 439 878 525 878 q 284 830 353 878 q 176 690 215 782 q 136 464 136 599 q 176 238 136 331 q 284 98 215 146 q 439 50 353 50 m 404 1026 l 324 1074 q 277 1103 290 1093 q 264 1132 264 1114 q 275 1157 264 1149 q 300 1165 286 1165 q 326 1158 314 1165 q 357 1132 338 1150 l 472 1026 l 404 1026 z "},"Ő":{"ha":878,"x_min":57,"x_max":821,"o":"m 439 -17 q 233 46 318 -17 q 102 217 147 108 q 57 464 57 325 q 102 711 57 603 q 233 882 147 819 q 439 944 318 944 q 645 882 560 944 q 776 711 731 819 q 821 464 821 603 q 776 217 821 325 q 645 46 731 108 q 439 -17 560 -17 m 439 50 q 594 98 525 50 q 702 238 663 146 q 742 464 742 331 q 702 690 742 599 q 594 830 663 782 q 439 878 525 878 q 284 830 353 878 q 176 690 215 782 q 136 464 136 599 q 176 238 136 331 q 284 98 215 146 q 439 50 353 50 m 321 1029 l 419 1163 q 447 1193 435 1182 q 476 1204 460 1204 q 501 1195 493 1204 q 508 1171 508 1186 q 497 1141 508 1154 q 458 1101 486 1128 l 379 1029 l 321 1029 m 496 1029 l 594 1163 q 622 1193 610 1182 q 651 1204 635 1204 q 676 1195 668 1204 q 683 1171 683 1186 q 672 1141 683 1154 q 633 1101 661 1128 l 554 1029 l 496 1029 z "},"Ø":{"ha":878,"x_min":57,"x_max":821,"o":"m 439 -17 q 294 11 358 -17 q 182 90 231 39 l 107 -4 l 65 31 l 147 135 q 57 464 57 264 q 102 711 57 603 q 233 882 147 819 q 439 944 318 944 q 585 916 519 944 q 697 836 650 888 l 772 931 l 815 897 l 732 792 q 799 646 776 729 q 821 464 821 563 q 776 217 821 325 q 645 46 731 108 q 439 -17 560 -17 m 439 50 q 594 98 525 50 q 702 238 663 146 q 742 464 742 331 q 726 612 742 546 q 683 729 711 678 l 228 150 q 439 50 311 50 m 196 197 l 651 776 q 439 878 569 878 q 284 830 353 878 q 176 690 215 782 q 136 464 136 599 q 152 315 136 382 q 196 197 168 247 z "},"Õ":{"ha":878,"x_min":57,"x_max":821,"o":"m 439 -17 q 233 46 318 -17 q 102 217 147 108 q 57 464 57 325 q 102 711 57 603 q 233 882 147 819 q 439 944 318 944 q 645 882 560 944 q 776 711 731 819 q 821 464 821 603 q 776 217 821 325 q 645 46 731 108 q 439 -17 560 -17 m 439 50 q 594 98 525 50 q 702 238 663 146 q 742 464 742 331 q 702 690 742 599 q 594 830 663 782 q 439 878 525 878 q 284 830 353 878 q 176 690 215 782 q 136 464 136 599 q 176 238 136 331 q 284 98 215 146 q 439 50 353 50 m 526 1035 q 467 1049 494 1035 q 414 1076 439 1063 q 364 1090 389 1090 q 323 1076 340 1090 q 303 1036 306 1063 l 247 1036 q 292 1123 258 1099 q 367 1147 326 1147 q 426 1134 400 1147 q 475 1107 451 1121 q 525 1093 499 1093 q 559 1104 547 1093 q 581 1131 571 1115 q 595 1147 588 1142 q 611 1151 603 1151 q 626 1146 619 1151 q 633 1125 633 1140 q 622 1093 633 1115 q 588 1053 611 1071 q 526 1035 564 1035 z "},"Œ":{"ha":878,"x_min":11,"x_max":857,"o":"m 282 -17 q 134 43 194 -17 q 42 210 74 103 q 11 464 11 318 q 42 717 11 610 q 135 885 74 825 q 283 944 196 944 q 490 801 419 944 l 490 928 l 853 928 l 853 861 l 568 861 l 568 511 l 790 511 l 790 444 l 568 444 l 568 67 l 857 67 l 857 0 l 490 0 l 490 125 q 403 20 456 57 q 282 -17 351 -17 m 289 50 q 394 95 349 50 q 465 233 439 140 q 490 464 490 325 q 465 697 490 606 q 394 833 439 789 q 289 878 349 878 q 187 833 232 878 q 116 697 142 789 q 90 464 90 606 q 116 231 90 322 q 187 94 142 139 q 289 50 232 50 z "},"P":{"ha":878,"x_min":165,"x_max":785,"o":"m 165 0 l 165 928 l 461 928 q 633 899 560 928 q 745 811 706 869 q 785 663 785 753 q 745 514 785 574 q 633 425 706 454 q 461 396 560 396 l 243 396 l 243 0 l 165 0 m 243 463 l 453 463 q 637 506 568 463 q 706 663 706 550 q 637 817 706 774 q 453 861 568 861 l 243 861 l 243 463 z "},"Þ":{"ha":878,"x_min":165,"x_max":785,"o":"m 165 0 l 165 928 l 243 928 l 243 738 l 461 738 q 633 708 560 738 q 745 621 706 679 q 785 472 785 563 q 745 324 785 383 q 633 235 706 264 q 461 206 560 206 l 243 206 l 243 0 l 165 0 m 243 272 l 453 272 q 637 316 568 272 q 706 472 706 360 q 637 627 706 583 q 453 671 568 671 l 243 671 l 243 272 z "},"Q":{"ha":878,"x_min":57,"x_max":878,"o":"m 439 -17 q 233 46 318 -17 q 102 217 147 108 q 57 464 57 325 q 102 711 57 603 q 233 882 147 819 q 439 944 318 944 q 645 882 560 944 q 776 711 731 819 q 821 464 821 603 q 802 297 821 375 q 747 158 783 219 l 878 35 l 828 -17 l 704 100 q 590 14 657 44 q 439 -17 522 -17 m 439 50 q 650 150 567 50 l 410 376 l 460 429 l 690 213 q 728 324 714 261 q 742 464 742 388 q 702 690 742 599 q 594 830 663 782 q 439 878 525 878 q 284 830 353 878 q 176 690 215 782 q 136 464 136 599 q 176 238 136 331 q 284 98 215 146 q 439 50 353 50 z "},"R":{"ha":878,"x_min":164,"x_max":779,"o":"m 164 0 l 164 928 l 447 928 q 614 899 543 928 q 724 813 685 871 q 764 665 764 756 q 688 481 764 543 q 488 408 611 418 l 779 0 l 681 0 l 400 404 l 242 404 l 242 0 l 164 0 m 242 471 l 443 471 q 567 490 513 471 q 653 553 621 510 q 685 665 685 596 q 653 779 685 736 q 567 842 621 822 q 443 861 513 861 l 242 861 l 242 471 z "},"Ŕ":{"ha":878,"x_min":164,"x_max":779,"o":"m 164 0 l 164 928 l 447 928 q 614 899 543 928 q 724 813 685 871 q 764 665 764 756 q 688 481 764 543 q 488 408 611 418 l 779 0 l 681 0 l 400 404 l 242 404 l 242 0 l 164 0 m 242 471 l 443 471 q 567 490 513 471 q 653 553 621 510 q 685 665 685 596 q 653 779 685 736 q 567 842 621 822 q 443 861 513 861 l 242 861 l 242 471 m 374 1026 l 489 1132 q 520 1158 508 1150 q 546 1165 532 1165 q 572 1157 561 1165 q 582 1132 582 1149 q 569 1103 582 1114 q 522 1074 556 1093 l 442 1026 l 374 1026 z "},"Ř":{"ha":878,"x_min":164,"x_max":779,"o":"m 164 0 l 164 928 l 447 928 q 614 899 543 928 q 724 813 685 871 q 764 665 764 756 q 688 481 764 543 q 488 408 611 418 l 779 0 l 681 0 l 400 404 l 242 404 l 242 0 l 164 0 m 242 471 l 443 471 q 567 490 513 471 q 653 553 621 510 q 685 665 685 596 q 653 779 685 736 q 567 842 621 822 q 443 861 513 861 l 242 861 l 242 471 m 407 1019 q 344 1049 374 1019 l 233 1163 l 310 1163 l 404 1079 l 501 1163 l 578 1163 l 467 1049 q 407 1019 438 1019 z "},"S":{"ha":878,"x_min":101,"x_max":778,"o":"m 436 -17 q 301 5 371 -17 q 178 73 232 26 q 101 194 124 119 l 176 224 q 235 125 194 164 q 328 68 275 86 q 438 50 382 50 q 570 74 511 50 q 664 143 629 97 q 699 256 699 189 q 655 361 699 319 q 488 433 611 403 l 356 467 q 242 508 296 482 q 156 581 189 535 q 124 699 124 626 q 165 825 124 769 q 276 913 206 881 q 438 944 347 944 q 558 928 500 944 q 665 876 617 911 q 740 786 713 840 l 664 757 q 606 824 643 797 q 525 864 569 850 q 439 878 481 878 q 322 858 376 878 q 235 799 268 839 q 203 697 203 758 q 253 595 203 632 q 372 540 304 558 l 506 506 q 649 456 588 485 q 744 378 710 426 q 778 251 778 329 q 731 109 778 169 q 606 16 683 49 q 436 -17 528 -17 z "},"Ś":{"ha":878,"x_min":101,"x_max":778,"o":"m 436 -17 q 301 5 371 -17 q 178 73 232 26 q 101 194 124 119 l 176 224 q 235 125 194 164 q 328 68 275 86 q 438 50 382 50 q 570 74 511 50 q 664 143 629 97 q 699 256 699 189 q 655 361 699 319 q 488 433 611 403 l 356 467 q 242 508 296 482 q 156 581 189 535 q 124 699 124 626 q 165 825 124 769 q 276 913 206 881 q 438 944 347 944 q 558 928 500 944 q 665 876 617 911 q 740 786 713 840 l 664 757 q 606 824 643 797 q 525 864 569 850 q 439 878 481 878 q 322 858 376 878 q 235 799 268 839 q 203 697 203 758 q 253 595 203 632 q 372 540 304 558 l 506 506 q 649 456 588 485 q 744 378 710 426 q 778 251 778 329 q 731 109 778 169 q 606 16 683 49 q 436 -17 528 -17 m 407 1026 l 522 1132 q 553 1158 542 1150 q 579 1165 565 1165 q 605 1157 594 1165 q 615 1132 615 1149 q 602 1103 615 1114 q 556 1074 589 1093 l 475 1026 l 407 1026 z "},"Š":{"ha":878,"x_min":101,"x_max":778,"o":"m 436 -17 q 301 5 371 -17 q 178 73 232 26 q 101 194 124 119 l 176 224 q 235 125 194 164 q 328 68 275 86 q 438 50 382 50 q 570 74 511 50 q 664 143 629 97 q 699 256 699 189 q 655 361 699 319 q 488 433 611 403 l 356 467 q 242 508 296 482 q 156 581 189 535 q 124 699 124 626 q 165 825 124 769 q 276 913 206 881 q 438 944 347 944 q 558 928 500 944 q 665 876 617 911 q 740 786 713 840 l 664 757 q 606 824 643 797 q 525 864 569 850 q 439 878 481 878 q 322 858 376 878 q 235 799 268 839 q 203 697 203 758 q 253 595 203 632 q 372 540 304 558 l 506 506 q 649 456 588 485 q 744 378 710 426 q 778 251 778 329 q 731 109 778 169 q 606 16 683 49 q 436 -17 528 -17 m 440 1019 q 378 1049 407 1019 l 267 1163 l 343 1163 l 438 1079 l 535 1163 l 611 1163 l 500 1049 q 440 1019 471 1019 z "},"Ş":{"ha":878,"x_min":101,"x_max":778,"o":"m 426 -246 q 369 -236 400 -246 q 314 -212 338 -226 l 333 -178 q 383 -197 363 -192 q 424 -201 403 -201 q 476 -182 463 -201 q 490 -149 490 -162 q 478 -118 490 -129 q 433 -107 465 -107 q 402 -111 418 -107 q 375 -115 386 -115 q 356 -103 360 -115 q 363 -76 353 -90 l 400 -15 q 278 14 339 -10 q 169 82 217 38 q 101 194 121 126 l 176 224 q 235 125 194 164 q 328 68 275 86 q 438 50 382 50 q 570 74 511 50 q 664 143 629 97 q 699 256 699 189 q 655 361 699 319 q 488 433 611 403 l 356 467 q 242 508 296 482 q 156 581 189 535 q 124 699 124 626 q 165 825 124 769 q 276 913 206 881 q 438 944 347 944 q 558 928 500 944 q 665 876 617 911 q 740 786 713 840 l 664 757 q 606 824 643 797 q 525 864 569 850 q 439 878 481 878 q 322 858 376 878 q 235 799 268 839 q 203 697 203 758 q 253 595 203 632 q 372 540 304 558 l 506 506 q 649 456 588 485 q 744 378 710 426 q 778 251 778 329 q 733 112 778 171 q 615 19 689 53 q 451 -17 540 -14 l 419 -67 q 445 -62 433 -64 q 463 -61 457 -61 q 510 -72 492 -61 q 539 -101 529 -83 q 549 -137 549 -118 q 536 -184 549 -158 q 497 -228 524 -210 q 426 -246 469 -246 z "},"Ș":{"ha":878,"x_min":101,"x_max":778,"o":"m 436 -17 q 301 5 371 -17 q 178 73 232 26 q 101 194 124 119 l 176 224 q 235 125 194 164 q 328 68 275 86 q 438 50 382 50 q 570 74 511 50 q 664 143 629 97 q 699 256 699 189 q 655 361 699 319 q 488 433 611 403 l 356 467 q 242 508 296 482 q 156 581 189 535 q 124 699 124 626 q 165 825 124 769 q 276 913 206 881 q 438 944 347 944 q 558 928 500 944 q 665 876 617 911 q 740 786 713 840 l 664 757 q 606 824 643 797 q 525 864 569 850 q 439 878 481 878 q 322 858 376 878 q 235 799 268 839 q 203 697 203 758 q 253 595 203 632 q 372 540 304 558 l 506 506 q 649 456 588 485 q 744 378 710 426 q 778 251 778 329 q 731 109 778 169 q 606 16 683 49 q 436 -17 528 -17 m 376 -322 l 335 -287 q 384 -275 358 -285 q 428 -244 410 -265 q 447 -187 447 -222 q 435 -137 447 -161 q 396 -97 424 -114 l 456 -72 q 497 -120 483 -96 q 510 -176 510 -144 q 490 -253 510 -221 q 439 -302 469 -285 q 376 -322 408 -319 z "},"ẞ":{"ha":878,"x_min":113,"x_max":826,"o":"m 583 -17 q 468 5 514 -17 q 395 63 422 26 q 356 139 368 99 l 425 165 q 474 83 438 114 q 583 53 511 53 q 701 100 653 53 q 750 236 750 147 q 726 339 750 299 q 665 398 703 379 q 585 417 626 417 q 547 413 564 417 q 517 404 529 410 l 475 474 l 728 844 q 591 869 657 860 q 465 878 525 878 q 317 856 379 878 q 223 778 256 833 q 190 621 190 722 l 190 0 l 113 0 l 113 621 q 159 815 113 744 q 285 915 206 885 q 465 944 365 944 q 628 931 543 944 q 799 896 713 917 l 799 826 l 563 481 q 694 463 633 492 q 790 376 754 435 q 826 235 826 317 q 792 96 826 151 q 701 12 757 40 q 583 -17 646 -17 z "},"T":{"ha":878,"x_min":88,"x_max":790,"o":"m 400 0 l 400 861 l 88 861 l 88 928 l 790 928 l 790 861 l 478 861 l 478 0 l 400 0 z "},"Ť":{"ha":878,"x_min":88,"x_max":790,"o":"m 400 0 l 400 861 l 88 861 l 88 928 l 790 928 l 790 861 l 478 861 l 478 0 l 400 0 m 440 1019 q 378 1049 407 1019 l 267 1163 l 343 1163 l 438 1079 l 535 1163 l 611 1163 l 500 1049 q 440 1019 471 1019 z "},"Ţ":{"ha":878,"x_min":88,"x_max":790,"o":"m 400 0 l 400 861 l 88 861 l 88 928 l 790 928 l 790 861 l 478 861 l 478 0 l 465 0 l 422 -67 q 448 -62 436 -64 q 465 -61 460 -61 q 513 -72 494 -61 q 542 -101 532 -83 q 551 -137 551 -118 q 539 -184 551 -158 q 499 -228 526 -210 q 429 -246 472 -246 q 372 -236 403 -246 q 317 -212 340 -226 l 336 -178 q 385 -197 365 -192 q 426 -201 406 -201 q 479 -182 465 -201 q 493 -149 493 -162 q 481 -118 493 -129 q 436 -107 468 -107 q 405 -111 421 -107 q 378 -115 389 -115 q 359 -103 363 -115 q 365 -76 356 -90 l 413 0 l 400 0 z "},"Ț":{"ha":878,"x_min":88,"x_max":790,"o":"m 400 0 l 400 861 l 88 861 l 88 928 l 790 928 l 790 861 l 478 861 l 478 0 l 400 0 m 376 -322 l 335 -287 q 384 -275 358 -285 q 428 -244 410 -265 q 447 -187 447 -222 q 435 -137 447 -161 q 396 -97 424 -114 l 456 -72 q 497 -120 483 -96 q 510 -176 510 -144 q 490 -253 510 -221 q 439 -302 469 -285 q 376 -322 408 -319 z "},"U":{"ha":878,"x_min":118,"x_max":760,"o":"m 438 -17 q 194 73 269 -17 q 118 339 118 163 l 118 928 l 196 928 l 196 333 q 253 122 196 193 q 438 50 311 50 q 576 82 522 50 q 656 177 631 114 q 682 333 682 240 l 682 928 l 760 928 l 760 339 q 683 73 760 163 q 438 -17 607 -17 z "},"Ú":{"ha":878,"x_min":118,"x_max":760,"o":"m 438 -17 q 194 73 269 -17 q 118 339 118 163 l 118 928 l 196 928 l 196 333 q 253 122 196 193 q 438 50 311 50 q 576 82 522 50 q 656 177 631 114 q 682 333 682 240 l 682 928 l 760 928 l 760 339 q 683 73 760 163 q 438 -17 607 -17 m 407 1026 l 522 1132 q 553 1158 542 1150 q 579 1165 565 1165 q 605 1157 594 1165 q 615 1132 615 1149 q 602 1103 615 1114 q 556 1074 589 1093 l 475 1026 l 407 1026 z "},"Û":{"ha":878,"x_min":118,"x_max":760,"o":"m 438 -17 q 194 73 269 -17 q 118 339 118 163 l 118 928 l 196 928 l 196 333 q 253 122 196 193 q 438 50 311 50 q 576 82 522 50 q 656 177 631 114 q 682 333 682 240 l 682 928 l 760 928 l 760 339 q 683 73 760 163 q 438 -17 607 -17 m 267 1026 l 378 1140 q 408 1163 393 1156 q 440 1169 422 1169 q 472 1163 457 1169 q 500 1140 486 1156 l 611 1026 l 535 1026 l 438 1110 l 343 1026 l 267 1026 z "},"Ü":{"ha":878,"x_min":118,"x_max":760,"o":"m 438 -17 q 194 73 269 -17 q 118 339 118 163 l 118 928 l 196 928 l 196 333 q 253 122 196 193 q 438 50 311 50 q 576 82 522 50 q 656 177 631 114 q 682 333 682 240 l 682 928 l 760 928 l 760 339 q 683 73 760 163 q 438 -17 607 -17 m 550 1024 q 507 1042 525 1024 q 489 1085 489 1060 q 507 1128 489 1110 q 550 1146 525 1146 q 593 1128 575 1146 q 611 1085 611 1110 q 593 1042 611 1060 q 550 1024 575 1024 m 328 1024 q 285 1042 303 1024 q 267 1085 267 1060 q 285 1128 267 1110 q 328 1146 303 1146 q 371 1128 353 1146 q 389 1085 389 1110 q 371 1042 389 1060 q 328 1024 353 1024 z "},"Ù":{"ha":878,"x_min":118,"x_max":760,"o":"m 438 -17 q 194 73 269 -17 q 118 339 118 163 l 118 928 l 196 928 l 196 333 q 253 122 196 193 q 438 50 311 50 q 576 82 522 50 q 656 177 631 114 q 682 333 682 240 l 682 928 l 760 928 l 760 339 q 683 73 760 163 q 438 -17 607 -17 m 403 1026 l 322 1074 q 276 1103 289 1093 q 263 1132 263 1114 q 274 1157 263 1149 q 299 1165 285 1165 q 324 1158 313 1165 q 356 1132 336 1150 l 471 1026 l 403 1026 z "},"Ű":{"ha":878,"x_min":118,"x_max":760,"o":"m 438 -17 q 194 73 269 -17 q 118 339 118 163 l 118 928 l 196 928 l 196 333 q 253 122 196 193 q 438 50 311 50 q 576 82 522 50 q 656 177 631 114 q 682 333 682 240 l 682 928 l 760 928 l 760 339 q 683 73 760 163 q 438 -17 607 -17 m 319 1029 l 418 1163 q 446 1193 433 1182 q 475 1204 458 1204 q 499 1195 492 1204 q 507 1171 507 1186 q 496 1141 507 1154 q 457 1101 485 1128 l 378 1029 l 319 1029 m 494 1029 l 593 1163 q 621 1193 608 1182 q 650 1204 633 1204 q 674 1195 667 1204 q 682 1171 682 1186 q 671 1141 682 1154 q 632 1101 660 1128 l 553 1029 l 494 1029 z "},"Ū":{"ha":878,"x_min":118,"x_max":760,"o":"m 438 -17 q 194 73 269 -17 q 118 339 118 163 l 118 928 l 196 928 l 196 333 q 253 122 196 193 q 438 50 311 50 q 576 82 522 50 q 656 177 631 114 q 682 333 682 240 l 682 928 l 760 928 l 760 339 q 683 73 760 163 q 438 -17 607 -17 m 263 1047 l 263 1108 l 615 1108 l 615 1047 l 263 1047 z "},"Ų":{"ha":878,"x_min":118,"x_max":760,"o":"m 590 -233 q 532 -221 558 -233 q 491 -185 506 -208 q 476 -131 476 -162 q 491 -66 476 -97 q 529 -8 506 -35 q 424 -16 481 -15 q 314 -2 368 -17 q 215 50 260 13 q 144 156 171 88 q 118 335 118 225 l 118 928 l 196 928 l 196 333 q 253 122 196 193 q 438 50 311 50 q 576 82 522 50 q 656 177 631 114 q 682 333 682 240 l 682 928 l 760 928 l 760 339 q 726 142 760 221 q 618 19 692 63 q 558 -38 578 -4 q 539 -108 539 -72 q 563 -160 539 -143 q 614 -176 586 -176 q 636 -174 625 -176 q 657 -167 647 -172 l 657 -221 q 622 -231 636 -229 q 590 -233 607 -233 z "},"Ů":{"ha":878,"x_min":118,"x_max":760,"o":"m 443 942 q 373 960 404 942 q 323 1008 342 978 q 304 1075 304 1039 q 323 1142 304 1111 q 373 1191 342 1172 q 443 1210 404 1210 q 510 1191 482 1210 q 556 1142 539 1172 q 572 1075 572 1111 q 556 1008 572 1039 q 510 960 539 978 q 443 942 482 942 m 439 1001 q 493 1023 471 1001 q 515 1075 515 1044 q 493 1127 515 1106 q 439 1149 471 1149 q 385 1127 408 1149 q 363 1075 363 1106 q 385 1023 363 1044 q 439 1001 408 1001 m 438 -17 q 194 73 269 -17 q 118 339 118 163 l 118 928 l 196 928 l 196 333 q 253 122 196 193 q 438 50 311 50 q 576 82 522 50 q 656 177 631 114 q 682 333 682 240 l 682 928 l 760 928 l 760 339 q 683 73 760 163 q 438 -17 607 -17 z "},"V":{"ha":878,"x_min":68,"x_max":810,"o":"m 397 0 l 68 928 l 149 928 l 436 94 l 442 94 l 731 928 l 810 928 l 479 0 l 397 0 z "},"W":{"ha":878,"x_min":18,"x_max":861,"o":"m 192 0 l 18 928 l 96 928 l 239 104 l 244 104 l 399 928 l 485 928 l 636 104 l 642 104 l 785 928 l 861 928 l 688 0 l 589 0 l 443 786 l 438 786 l 290 0 l 192 0 z "},"Ẃ":{"ha":878,"x_min":18,"x_max":861,"o":"m 192 0 l 18 928 l 96 928 l 239 104 l 244 104 l 399 928 l 485 928 l 636 104 l 642 104 l 785 928 l 861 928 l 688 0 l 589 0 l 443 786 l 438 786 l 290 0 l 192 0 m 410 1026 l 525 1132 q 556 1158 544 1150 q 582 1165 568 1165 q 608 1157 597 1165 q 618 1132 618 1149 q 605 1103 618 1114 q 558 1074 592 1093 l 478 1026 l 410 1026 z "},"Ŵ":{"ha":878,"x_min":18,"x_max":861,"o":"m 192 0 l 18 928 l 96 928 l 239 104 l 244 104 l 399 928 l 485 928 l 636 104 l 642 104 l 785 928 l 861 928 l 688 0 l 589 0 l 443 786 l 438 786 l 290 0 l 192 0 m 269 1026 l 381 1140 q 410 1163 396 1156 q 443 1169 425 1169 q 474 1163 460 1169 q 503 1140 489 1156 l 614 1026 l 538 1026 l 440 1110 l 346 1026 l 269 1026 z "},"Ẅ":{"ha":878,"x_min":18,"x_max":861,"o":"m 192 0 l 18 928 l 96 928 l 239 104 l 244 104 l 399 928 l 485 928 l 636 104 l 642 104 l 785 928 l 861 928 l 688 0 l 589 0 l 443 786 l 438 786 l 290 0 l 192 0 m 553 1024 q 510 1042 528 1024 q 492 1085 492 1060 q 510 1128 492 1110 q 553 1146 528 1146 q 596 1128 578 1146 q 614 1085 614 1110 q 596 1042 614 1060 q 553 1024 578 1024 m 331 1024 q 288 1042 306 1024 q 269 1085 269 1060 q 288 1128 269 1110 q 331 1146 306 1146 q 374 1128 356 1146 q 392 1085 392 1110 q 374 1042 392 1060 q 331 1024 356 1024 z "},"Ẁ":{"ha":878,"x_min":18,"x_max":861,"o":"m 192 0 l 18 928 l 96 928 l 239 104 l 244 104 l 399 928 l 485 928 l 636 104 l 642 104 l 785 928 l 861 928 l 688 0 l 589 0 l 443 786 l 438 786 l 290 0 l 192 0 m 406 1026 l 325 1074 q 278 1103 292 1093 q 265 1132 265 1114 q 276 1157 265 1149 q 301 1165 288 1165 q 327 1158 315 1165 q 358 1132 339 1150 l 474 1026 l 406 1026 z "},"X":{"ha":878,"x_min":49,"x_max":829,"o":"m 49 0 l 389 479 l 68 928 l 160 928 l 435 539 l 440 539 l 715 928 l 810 928 l 489 479 l 829 0 l 736 0 l 442 418 l 436 418 l 142 0 l 49 0 z "},"Y":{"ha":878,"x_min":50,"x_max":828,"o":"m 401 0 l 401 372 l 50 928 l 142 928 l 438 454 l 443 454 l 736 928 l 828 928 l 479 372 l 479 0 l 401 0 z "},"Ý":{"ha":878,"x_min":50,"x_max":828,"o":"m 401 0 l 401 372 l 50 928 l 142 928 l 438 454 l 443 454 l 736 928 l 828 928 l 479 372 l 479 0 l 401 0 m 408 1026 l 524 1132 q 555 1158 543 1150 q 581 1165 567 1165 q 606 1157 596 1165 q 617 1132 617 1149 q 603 1103 617 1114 q 557 1074 590 1093 l 476 1026 l 408 1026 z "},"Ŷ":{"ha":878,"x_min":50,"x_max":828,"o":"m 401 0 l 401 372 l 50 928 l 142 928 l 438 454 l 443 454 l 736 928 l 828 928 l 479 372 l 479 0 l 401 0 m 268 1026 l 379 1140 q 409 1163 394 1156 q 442 1169 424 1169 q 473 1163 458 1169 q 501 1140 488 1156 l 613 1026 l 536 1026 l 439 1110 l 344 1026 l 268 1026 z "},"Ÿ":{"ha":878,"x_min":50,"x_max":828,"o":"m 401 0 l 401 372 l 50 928 l 142 928 l 438 454 l 443 454 l 736 928 l 828 928 l 479 372 l 479 0 l 401 0 m 551 1024 q 508 1042 526 1024 q 490 1085 490 1060 q 508 1128 490 1110 q 551 1146 526 1146 q 594 1128 576 1146 q 613 1085 613 1110 q 594 1042 613 1060 q 551 1024 576 1024 m 329 1024 q 286 1042 304 1024 q 268 1085 268 1060 q 286 1128 268 1110 q 329 1146 304 1146 q 372 1128 354 1146 q 390 1085 390 1110 q 372 1042 390 1060 q 329 1024 354 1024 z "},"Ỳ":{"ha":878,"x_min":50,"x_max":828,"o":"m 401 0 l 401 372 l 50 928 l 142 928 l 438 454 l 443 454 l 736 928 l 828 928 l 479 372 l 479 0 l 401 0 m 404 1026 l 324 1074 q 277 1103 290 1093 q 264 1132 264 1114 q 275 1157 264 1149 q 300 1165 286 1165 q 326 1158 314 1165 q 357 1132 338 1150 l 472 1026 l 404 1026 z "},"Z":{"ha":878,"x_min":75,"x_max":801,"o":"m 75 0 l 75 83 l 696 858 l 96 858 l 96 928 l 781 928 l 781 844 l 160 69 l 801 69 l 801 0 l 75 0 z "},"Ź":{"ha":878,"x_min":75,"x_max":801,"o":"m 75 0 l 75 83 l 696 858 l 96 858 l 96 928 l 781 928 l 781 844 l 160 69 l 801 69 l 801 0 l 75 0 m 413 1026 l 528 1132 q 559 1158 547 1150 q 585 1165 571 1165 q 610 1157 600 1165 q 621 1132 621 1149 q 608 1103 621 1114 q 561 1074 594 1093 l 481 1026 l 413 1026 z "},"Ž":{"ha":878,"x_min":75,"x_max":801,"o":"m 75 0 l 75 83 l 696 858 l 96 858 l 96 928 l 781 928 l 781 844 l 160 69 l 801 69 l 801 0 l 75 0 m 446 1019 q 383 1049 413 1019 l 272 1163 l 349 1163 l 443 1079 l 540 1163 l 617 1163 l 506 1049 q 446 1019 476 1019 z "},"Ż":{"ha":878,"x_min":75,"x_max":801,"o":"m 75 0 l 75 83 l 696 858 l 96 858 l 96 928 l 781 928 l 781 844 l 160 69 l 801 69 l 801 0 l 75 0 m 444 1024 q 401 1042 419 1024 q 382 1086 382 1060 q 401 1131 382 1113 q 444 1149 419 1149 q 488 1131 469 1149 q 507 1086 507 1113 q 488 1042 507 1060 q 444 1024 469 1024 z "},"a":{"ha":878,"x_min":122,"x_max":715,"o":"m 369 -17 q 191 31 260 -17 q 122 169 122 79 q 245 352 122 294 q 617 428 368 410 l 617 442 q 574 585 617 532 q 431 639 531 639 q 303 604 350 639 q 243 517 256 569 l 165 535 q 264 660 193 618 q 429 703 335 703 q 628 635 565 703 q 690 436 690 567 l 690 269 q 698 109 690 172 q 715 0 706 46 l 654 0 l 626 113 q 544 24 604 65 q 369 -17 483 -17 m 374 49 q 497 70 442 49 q 584 141 551 92 q 617 271 617 190 l 617 365 q 302 308 406 351 q 199 174 199 264 q 244 83 199 118 q 374 49 290 49 z "},"á":{"ha":878,"x_min":122,"x_max":715,"o":"m 369 -17 q 191 31 260 -17 q 122 169 122 79 q 245 352 122 294 q 617 428 368 410 l 617 442 q 574 585 617 532 q 431 639 531 639 q 303 604 350 639 q 243 517 256 569 l 165 535 q 264 660 193 618 q 429 703 335 703 q 628 635 565 703 q 690 436 690 567 l 690 269 q 698 109 690 172 q 715 0 706 46 l 654 0 l 626 113 q 544 24 604 65 q 369 -17 483 -17 m 374 49 q 497 70 442 49 q 584 141 551 92 q 617 271 617 190 l 617 365 q 302 308 406 351 q 199 174 199 264 q 244 83 199 118 q 374 49 290 49 m 404 790 l 504 924 q 532 955 519 943 q 561 967 544 967 q 588 956 578 967 q 597 931 597 946 q 586 900 597 913 q 547 861 575 888 l 468 790 l 404 790 z "},"ă":{"ha":878,"x_min":122,"x_max":715,"o":"m 369 -17 q 191 31 260 -17 q 122 169 122 79 q 245 352 122 294 q 617 428 368 410 l 617 442 q 574 585 617 532 q 431 639 531 639 q 303 604 350 639 q 243 517 256 569 l 165 535 q 264 660 193 618 q 429 703 335 703 q 628 635 565 703 q 690 436 690 567 l 690 269 q 698 109 690 172 q 715 0 706 46 l 654 0 l 626 113 q 544 24 604 65 q 369 -17 483 -17 m 374 49 q 497 70 442 49 q 584 141 551 92 q 617 271 617 190 l 617 365 q 302 308 406 351 q 199 174 199 264 q 244 83 199 118 q 374 49 290 49 m 431 794 q 324 835 367 794 q 271 932 282 876 l 326 932 q 360 877 333 903 q 431 851 386 851 q 501 877 475 851 q 535 932 526 903 l 590 932 q 538 835 579 876 q 431 794 496 794 z "},"â":{"ha":878,"x_min":122,"x_max":715,"o":"m 369 -17 q 191 31 260 -17 q 122 169 122 79 q 245 352 122 294 q 617 428 368 410 l 617 442 q 574 585 617 532 q 431 639 531 639 q 303 604 350 639 q 243 517 256 569 l 165 535 q 264 660 193 618 q 429 703 335 703 q 628 635 565 703 q 690 436 690 567 l 690 269 q 698 109 690 172 q 715 0 706 46 l 654 0 l 626 113 q 544 24 604 65 q 369 -17 483 -17 m 374 49 q 497 70 442 49 q 584 141 551 92 q 617 271 617 190 l 617 365 q 302 308 406 351 q 199 174 199 264 q 244 83 199 118 q 374 49 290 49 m 258 800 l 369 914 q 399 936 385 929 q 432 943 414 943 q 463 936 449 943 q 492 914 478 929 l 603 800 l 526 800 l 429 883 l 335 800 l 258 800 z "},"ä":{"ha":878,"x_min":122,"x_max":715,"o":"m 369 -17 q 191 31 260 -17 q 122 169 122 79 q 245 352 122 294 q 617 428 368 410 l 617 442 q 574 585 617 532 q 431 639 531 639 q 303 604 350 639 q 243 517 256 569 l 165 535 q 264 660 193 618 q 429 703 335 703 q 628 635 565 703 q 690 436 690 567 l 690 269 q 698 109 690 172 q 715 0 706 46 l 654 0 l 626 113 q 544 24 604 65 q 369 -17 483 -17 m 374 49 q 497 70 442 49 q 584 141 551 92 q 617 271 617 190 l 617 365 q 302 308 406 351 q 199 174 199 264 q 244 83 199 118 q 374 49 290 49 m 542 832 q 499 850 517 832 q 481 893 481 868 q 499 936 481 918 q 542 954 517 954 q 585 936 567 954 q 603 893 603 918 q 585 850 603 868 q 542 832 567 832 m 319 832 q 276 850 294 832 q 258 893 258 868 q 276 936 258 918 q 319 954 294 954 q 363 936 344 954 q 381 893 381 918 q 363 850 381 868 q 319 832 344 832 z "},"à":{"ha":878,"x_min":122,"x_max":715,"o":"m 369 -17 q 191 31 260 -17 q 122 169 122 79 q 245 352 122 294 q 617 428 368 410 l 617 442 q 574 585 617 532 q 431 639 531 639 q 303 604 350 639 q 243 517 256 569 l 165 535 q 264 660 193 618 q 429 703 335 703 q 628 635 565 703 q 690 436 690 567 l 690 269 q 698 109 690 172 q 715 0 706 46 l 654 0 l 626 113 q 544 24 604 65 q 369 -17 483 -17 m 374 49 q 497 70 442 49 q 584 141 551 92 q 617 271 617 190 l 617 365 q 302 308 406 351 q 199 174 199 264 q 244 83 199 118 q 374 49 290 49 m 393 790 l 314 861 q 275 900 286 888 q 264 931 264 913 q 274 956 264 946 q 300 967 283 967 q 329 955 317 967 q 357 924 342 943 l 457 790 l 393 790 z "},"ā":{"ha":878,"x_min":122,"x_max":715,"o":"m 369 -17 q 191 31 260 -17 q 122 169 122 79 q 245 352 122 294 q 617 428 368 410 l 617 442 q 574 585 617 532 q 431 639 531 639 q 303 604 350 639 q 243 517 256 569 l 165 535 q 264 660 193 618 q 429 703 335 703 q 628 635 565 703 q 690 436 690 567 l 690 269 q 698 109 690 172 q 715 0 706 46 l 654 0 l 626 113 q 544 24 604 65 q 369 -17 483 -17 m 374 49 q 497 70 442 49 q 584 141 551 92 q 617 271 617 190 l 617 365 q 302 308 406 351 q 199 174 199 264 q 244 83 199 118 q 374 49 290 49 m 254 843 l 254 904 l 607 904 l 607 843 l 254 843 z "},"ą":{"ha":878,"x_min":122,"x_max":715,"o":"m 649 -233 q 590 -221 617 -233 q 549 -185 564 -208 q 535 -131 535 -162 q 564 -47 535 -82 q 650 15 593 -12 l 626 113 q 544 24 604 65 q 369 -17 483 -17 q 191 31 260 -17 q 122 169 122 79 q 245 352 122 294 q 617 428 368 410 l 617 442 q 574 585 617 532 q 431 639 531 639 q 303 604 350 639 q 243 517 256 569 l 165 535 q 264 660 193 618 q 429 703 335 703 q 628 635 565 703 q 690 436 690 567 l 690 269 q 698 109 690 172 q 715 0 706 46 q 628 -49 660 -18 q 597 -117 597 -81 q 618 -162 597 -147 q 668 -176 639 -176 q 694 -174 682 -176 q 715 -167 706 -171 l 715 -221 q 680 -231 694 -229 q 649 -233 665 -233 m 374 49 q 497 70 442 49 q 584 141 551 92 q 617 271 617 190 l 617 365 q 302 308 406 351 q 199 174 199 264 q 244 83 199 118 q 374 49 290 49 z "},"å":{"ha":878,"x_min":122,"x_max":715,"o":"m 369 -17 q 191 31 260 -17 q 122 169 122 79 q 245 352 122 294 q 617 428 368 410 l 617 442 q 574 585 617 532 q 431 639 531 639 q 303 604 350 639 q 243 517 256 569 l 165 535 q 264 660 193 618 q 429 703 335 703 q 628 635 565 703 q 690 436 690 567 l 690 269 q 698 109 690 172 q 715 0 706 46 l 654 0 l 626 113 q 544 24 604 65 q 369 -17 483 -17 m 374 49 q 497 70 442 49 q 584 141 551 92 q 617 271 617 190 l 617 365 q 302 308 406 351 q 199 174 199 264 q 244 83 199 118 q 374 49 290 49 m 431 796 q 365 814 394 796 q 317 862 335 832 q 299 928 299 892 q 317 994 299 964 q 365 1042 335 1024 q 431 1060 394 1060 q 498 1042 468 1060 q 545 994 528 1024 q 563 928 563 964 q 545 862 563 892 q 498 814 528 832 q 431 796 468 796 m 431 851 q 485 874 463 851 q 507 928 507 897 q 485 982 507 960 q 431 1004 463 1004 q 377 982 400 1004 q 354 928 354 960 q 377 874 354 897 q 431 851 400 851 z "},"ã":{"ha":878,"x_min":122,"x_max":715,"o":"m 369 -17 q 191 31 260 -17 q 122 169 122 79 q 245 352 122 294 q 617 428 368 410 l 617 442 q 574 585 617 532 q 431 639 531 639 q 303 604 350 639 q 243 517 256 569 l 165 535 q 264 660 193 618 q 429 703 335 703 q 628 635 565 703 q 690 436 690 567 l 690 269 q 698 109 690 172 q 715 0 706 46 l 654 0 l 626 113 q 544 24 604 65 q 369 -17 483 -17 m 374 49 q 497 70 442 49 q 584 141 551 92 q 617 271 617 190 l 617 365 q 302 308 406 351 q 199 174 199 264 q 244 83 199 118 q 374 49 290 49 m 517 800 q 457 814 485 800 q 404 842 429 828 q 354 856 379 856 q 313 842 331 856 q 293 801 296 828 l 238 801 q 283 888 249 864 q 357 913 317 913 q 416 899 390 913 q 465 872 442 886 q 515 858 489 858 q 549 869 538 858 q 571 896 561 881 q 585 912 578 907 q 601 917 593 917 q 617 911 610 917 q 624 890 624 906 q 613 858 624 881 q 578 818 601 836 q 517 800 554 800 z "},"æ":{"ha":878,"x_min":14,"x_max":861,"o":"m 204 -17 q 67 31 119 -17 q 14 163 14 78 q 45 278 14 229 q 156 357 76 326 q 375 397 235 388 l 375 442 q 345 589 375 533 q 246 644 315 644 q 160 608 192 644 q 117 518 129 571 l 44 535 q 126 660 72 618 q 247 703 179 703 q 363 667 318 703 q 426 563 408 631 q 509 666 458 629 q 624 703 560 703 q 735 672 689 703 q 810 588 781 640 q 850 471 839 536 q 857 339 861 406 l 442 339 q 460 196 442 253 q 509 106 479 139 q 572 58 539 72 q 635 44 606 44 q 711 67 681 44 q 768 138 742 90 l 831 115 q 756 24 803 64 q 628 -17 710 -17 q 495 26 549 -17 q 413 139 442 68 q 335 23 385 63 q 204 -17 285 -17 m 208 42 q 292 63 254 42 q 352 135 329 85 q 375 271 375 186 l 375 339 q 196 308 258 332 q 109 249 133 285 q 85 164 85 213 q 117 77 85 113 q 208 42 149 42 m 444 397 l 783 397 q 768 509 783 453 q 717 603 753 565 q 621 642 682 642 q 509 588 560 642 q 444 397 458 533 z "},"b":{"ha":878,"x_min":139,"x_max":796,"o":"m 471 -17 q 358 2 408 -17 q 272 51 308 21 q 213 118 236 82 l 194 0 l 139 0 l 139 983 l 214 983 l 214 563 q 276 635 239 604 q 362 685 313 667 q 471 703 411 703 q 640 660 567 703 q 755 538 714 618 q 796 343 796 457 q 755 149 796 229 q 640 26 714 68 q 471 -17 567 -17 m 464 50 q 649 126 579 50 q 719 343 719 203 q 649 560 719 483 q 464 636 579 636 q 282 558 350 636 q 214 343 214 479 q 245 188 214 254 q 333 86 276 122 q 464 50 389 50 z "},"c":{"ha":878,"x_min":140,"x_max":760,"o":"m 476 -17 q 301 30 378 -17 q 183 156 225 76 q 140 338 140 236 q 181 521 140 438 q 298 653 221 604 q 485 703 375 703 q 647 661 579 703 q 753 553 714 619 l 685 526 q 603 608 657 579 q 481 636 550 636 q 352 604 413 636 q 254 507 292 572 q 217 340 217 442 q 253 177 217 242 q 349 81 290 113 q 476 50 408 50 q 606 79 549 50 q 689 157 663 108 l 760 131 q 702 62 740 96 q 608 6 664 28 q 476 -17 551 -17 z "},"ć":{"ha":878,"x_min":140,"x_max":760,"o":"m 476 -17 q 301 30 378 -17 q 183 156 225 76 q 140 338 140 236 q 181 521 140 438 q 298 653 221 604 q 485 703 375 703 q 647 661 579 703 q 753 553 714 619 l 685 526 q 603 608 657 579 q 481 636 550 636 q 352 604 413 636 q 254 507 292 572 q 217 340 217 442 q 253 177 217 242 q 349 81 290 113 q 476 50 408 50 q 606 79 549 50 q 689 157 663 108 l 760 131 q 702 62 740 96 q 608 6 664 28 q 476 -17 551 -17 m 454 790 l 554 924 q 582 955 569 943 q 611 967 594 967 q 638 956 628 967 q 647 931 647 946 q 636 900 647 913 q 597 861 625 888 l 518 790 l 454 790 z "},"č":{"ha":878,"x_min":140,"x_max":760,"o":"m 476 -17 q 301 30 378 -17 q 183 156 225 76 q 140 338 140 236 q 181 521 140 438 q 298 653 221 604 q 485 703 375 703 q 647 661 579 703 q 753 553 714 619 l 685 526 q 603 608 657 579 q 481 636 550 636 q 352 604 413 636 q 254 507 292 572 q 217 340 217 442 q 253 177 217 242 q 349 81 290 113 q 476 50 408 50 q 606 79 549 50 q 689 157 663 108 l 760 131 q 702 62 740 96 q 608 6 664 28 q 476 -17 551 -17 m 482 792 q 419 821 449 792 l 308 935 l 385 935 l 479 851 l 576 935 l 653 935 l 542 821 q 482 792 513 792 z "},"ç":{"ha":878,"x_min":140,"x_max":760,"o":"m 465 -246 q 408 -236 439 -246 q 353 -212 376 -226 l 372 -178 q 422 -197 401 -192 q 463 -201 442 -201 q 515 -182 501 -201 q 529 -149 529 -162 q 517 -118 529 -129 q 472 -107 504 -107 q 441 -111 457 -107 q 414 -115 425 -115 q 395 -103 399 -115 q 401 -76 392 -90 l 439 -15 q 283 42 350 -6 q 178 166 215 89 q 140 338 140 243 q 181 521 140 438 q 298 653 221 604 q 485 703 375 703 q 647 661 579 703 q 753 553 714 619 l 685 526 q 603 608 657 579 q 481 636 550 636 q 352 604 413 636 q 254 507 292 572 q 217 340 217 442 q 253 177 217 242 q 349 81 290 113 q 476 50 408 50 q 606 79 549 50 q 689 157 663 108 l 760 131 q 703 65 740 97 q 614 9 667 32 q 490 -17 561 -14 l 458 -67 q 484 -62 472 -64 q 501 -61 496 -61 q 549 -72 531 -61 q 578 -101 568 -83 q 588 -137 588 -118 q 575 -184 588 -158 q 535 -228 563 -210 q 465 -246 508 -246 z "},"ċ":{"ha":878,"x_min":140,"x_max":760,"o":"m 476 -17 q 301 30 378 -17 q 183 156 225 76 q 140 338 140 236 q 181 521 140 438 q 298 653 221 604 q 485 703 375 703 q 647 661 579 703 q 753 553 714 619 l 685 526 q 603 608 657 579 q 481 636 550 636 q 352 604 413 636 q 254 507 292 572 q 217 340 217 442 q 253 177 217 242 q 349 81 290 113 q 476 50 408 50 q 606 79 549 50 q 689 157 663 108 l 760 131 q 702 62 740 96 q 608 6 664 28 q 476 -17 551 -17 m 481 829 q 437 847 456 829 q 418 892 418 865 q 437 936 418 918 q 481 954 456 954 q 524 936 506 954 q 543 892 543 918 q 524 847 543 865 q 481 829 506 829 z "},"d":{"ha":878,"x_min":82,"x_max":763,"o":"m 407 -17 q 238 26 311 -17 q 124 149 165 68 q 82 343 82 229 q 124 538 82 457 q 238 660 165 618 q 407 703 311 703 q 565 663 500 703 q 664 564 629 624 l 664 983 l 739 983 l 739 254 q 742 164 739 229 q 763 0 744 99 l 693 0 l 661 117 q 563 22 626 61 q 407 -17 500 -17 m 414 50 q 546 86 490 50 q 633 188 601 122 q 664 343 664 254 q 596 557 664 478 q 414 636 528 636 q 228 560 299 636 q 158 343 158 483 q 228 126 158 203 q 414 50 299 50 z "},"ď":{"ha":878,"x_min":61,"x_max":832,"o":"m 357 -17 q 203 26 269 -17 q 99 149 136 68 q 61 343 61 229 q 143 608 61 514 q 357 703 225 703 q 492 663 436 703 q 582 564 547 624 l 582 983 l 657 983 l 657 254 q 660 164 657 229 q 681 0 663 99 l 611 0 l 579 117 q 490 22 544 61 q 357 -17 436 -17 m 364 50 q 523 129 464 50 q 582 343 582 208 q 523 557 582 478 q 364 636 464 636 q 199 560 261 636 q 138 343 138 483 q 199 126 138 203 q 364 50 261 50 m 726 753 l 751 932 q 765 983 757 967 q 794 1000 774 1000 q 819 992 807 1000 q 832 964 832 985 q 818 910 832 953 l 768 753 l 726 753 z "},"đ":{"ha":878,"x_min":82,"x_max":829,"o":"m 407 -17 q 238 26 311 -17 q 124 149 165 68 q 82 343 82 229 q 124 538 82 457 q 238 660 165 618 q 407 703 311 703 q 565 663 500 703 q 664 564 629 624 l 664 779 l 429 779 l 429 835 l 664 835 l 664 983 l 739 983 l 739 835 l 829 835 l 829 779 l 739 779 l 739 254 q 742 164 739 229 q 763 0 744 99 l 693 0 l 661 117 q 563 22 626 61 q 407 -17 500 -17 m 414 50 q 546 86 490 50 q 633 188 601 122 q 664 343 664 254 q 596 557 664 478 q 414 636 528 636 q 228 560 299 636 q 158 343 158 483 q 228 126 158 203 q 414 50 299 50 z "},"ð":{"ha":878,"x_min":85,"x_max":768,"o":"m 421 -17 q 300 4 360 -17 q 192 67 240 25 q 114 170 143 108 q 85 314 85 232 q 113 458 85 396 q 190 561 142 519 q 297 624 238 603 q 415 644 356 644 q 538 624 479 644 q 641 563 597 603 q 701 467 685 524 q 665 697 694 617 q 590 825 636 778 l 506 743 l 467 781 l 546 860 q 440 913 510 886 q 271 931 369 939 l 271 993 q 455 975 374 1001 q 594 910 536 949 l 651 965 l 690 928 l 639 875 q 740 694 713 799 q 768 450 768 589 q 751 274 768 358 q 694 124 733 190 q 588 21 656 58 q 421 -17 521 -17 m 421 50 q 545 79 486 50 q 642 166 604 108 q 679 311 679 224 q 641 459 679 400 q 544 548 603 518 q 419 578 485 578 q 296 549 356 578 q 199 461 236 519 q 161 314 161 403 q 199 167 161 226 q 297 79 238 108 q 421 50 357 50 z "},"e":{"ha":878,"x_min":117,"x_max":764,"o":"m 449 -17 q 267 31 342 -17 q 155 160 193 79 q 117 340 117 242 q 159 533 117 451 q 276 658 201 614 q 446 703 350 703 q 588 672 526 703 q 688 588 649 640 q 746 471 728 536 q 760 339 764 406 l 193 339 q 218 199 193 254 q 283 110 243 143 q 368 64 322 78 q 456 50 414 50 q 574 76 529 50 q 646 139 619 101 l 721 113 q 623 22 686 61 q 449 -17 560 -17 m 196 401 l 681 401 q 655 508 681 454 q 578 599 629 563 q 446 636 526 636 q 334 614 388 636 q 244 540 281 592 q 196 401 207 489 z "},"é":{"ha":878,"x_min":117,"x_max":764,"o":"m 449 -17 q 267 31 342 -17 q 155 160 193 79 q 117 340 117 242 q 159 533 117 451 q 276 658 201 614 q 446 703 350 703 q 588 672 526 703 q 688 588 649 640 q 746 471 728 536 q 760 339 764 406 l 193 339 q 218 199 193 254 q 283 110 243 143 q 368 64 322 78 q 456 50 414 50 q 574 76 529 50 q 646 139 619 101 l 721 113 q 623 22 686 61 q 449 -17 560 -17 m 196 401 l 681 401 q 655 508 681 454 q 578 599 629 563 q 446 636 526 636 q 334 614 388 636 q 244 540 281 592 q 196 401 207 489 m 426 790 l 526 924 q 554 955 542 943 q 583 967 567 967 q 610 956 600 967 q 619 931 619 946 q 608 900 619 913 q 569 861 597 888 l 490 790 l 426 790 z "},"ě":{"ha":878,"x_min":117,"x_max":764,"o":"m 449 -17 q 267 31 342 -17 q 155 160 193 79 q 117 340 117 242 q 159 533 117 451 q 276 658 201 614 q 446 703 350 703 q 588 672 526 703 q 688 588 649 640 q 746 471 728 536 q 760 339 764 406 l 193 339 q 218 199 193 254 q 283 110 243 143 q 368 64 322 78 q 456 50 414 50 q 574 76 529 50 q 646 139 619 101 l 721 113 q 623 22 686 61 q 449 -17 560 -17 m 196 401 l 681 401 q 655 508 681 454 q 578 599 629 563 q 446 636 526 636 q 334 614 388 636 q 244 540 281 592 q 196 401 207 489 m 454 792 q 392 821 421 792 l 281 935 l 357 935 l 451 851 l 549 935 l 625 935 l 514 821 q 454 792 485 792 z "},"ê":{"ha":878,"x_min":117,"x_max":764,"o":"m 449 -17 q 267 31 342 -17 q 155 160 193 79 q 117 340 117 242 q 159 533 117 451 q 276 658 201 614 q 446 703 350 703 q 588 672 526 703 q 688 588 649 640 q 746 471 728 536 q 760 339 764 406 l 193 339 q 218 199 193 254 q 283 110 243 143 q 368 64 322 78 q 456 50 414 50 q 574 76 529 50 q 646 139 619 101 l 721 113 q 623 22 686 61 q 449 -17 560 -17 m 196 401 l 681 401 q 655 508 681 454 q 578 599 629 563 q 446 636 526 636 q 334 614 388 636 q 244 540 281 592 q 196 401 207 489 m 281 800 l 392 914 q 422 936 407 929 q 454 943 436 943 q 485 936 471 943 q 514 914 500 929 l 625 800 l 549 800 l 451 883 l 357 800 l 281 800 z "},"ë":{"ha":878,"x_min":117,"x_max":764,"o":"m 449 -17 q 267 31 342 -17 q 155 160 193 79 q 117 340 117 242 q 159 533 117 451 q 276 658 201 614 q 446 703 350 703 q 588 672 526 703 q 688 588 649 640 q 746 471 728 536 q 760 339 764 406 l 193 339 q 218 199 193 254 q 283 110 243 143 q 368 64 322 78 q 456 50 414 50 q 574 76 529 50 q 646 139 619 101 l 721 113 q 623 22 686 61 q 449 -17 560 -17 m 196 401 l 681 401 q 655 508 681 454 q 578 599 629 563 q 446 636 526 636 q 334 614 388 636 q 244 540 281 592 q 196 401 207 489 m 564 832 q 521 850 539 832 q 503 893 503 868 q 521 936 503 918 q 564 954 539 954 q 607 936 589 954 q 625 893 625 918 q 607 850 625 868 q 564 832 589 832 m 342 832 q 299 850 317 832 q 281 893 281 868 q 299 936 281 918 q 342 954 317 954 q 385 936 367 954 q 403 893 403 918 q 385 850 403 868 q 342 832 367 832 z "},"ė":{"ha":878,"x_min":117,"x_max":764,"o":"m 449 -17 q 267 31 342 -17 q 155 160 193 79 q 117 340 117 242 q 159 533 117 451 q 276 658 201 614 q 446 703 350 703 q 588 672 526 703 q 688 588 649 640 q 746 471 728 536 q 760 339 764 406 l 193 339 q 218 199 193 254 q 283 110 243 143 q 368 64 322 78 q 456 50 414 50 q 574 76 529 50 q 646 139 619 101 l 721 113 q 623 22 686 61 q 449 -17 560 -17 m 196 401 l 681 401 q 655 508 681 454 q 578 599 629 563 q 446 636 526 636 q 334 614 388 636 q 244 540 281 592 q 196 401 207 489 m 453 829 q 409 847 428 829 q 390 892 390 865 q 409 936 390 918 q 453 954 428 954 q 497 936 478 954 q 515 892 515 918 q 497 847 515 865 q 453 829 478 829 z "},"è":{"ha":878,"x_min":117,"x_max":764,"o":"m 449 -17 q 267 31 342 -17 q 155 160 193 79 q 117 340 117 242 q 159 533 117 451 q 276 658 201 614 q 446 703 350 703 q 588 672 526 703 q 688 588 649 640 q 746 471 728 536 q 760 339 764 406 l 193 339 q 218 199 193 254 q 283 110 243 143 q 368 64 322 78 q 456 50 414 50 q 574 76 529 50 q 646 139 619 101 l 721 113 q 623 22 686 61 q 449 -17 560 -17 m 196 401 l 681 401 q 655 508 681 454 q 578 599 629 563 q 446 636 526 636 q 334 614 388 636 q 244 540 281 592 q 196 401 207 489 m 415 790 l 336 861 q 297 900 308 888 q 286 931 286 913 q 296 956 286 946 q 322 967 306 967 q 351 955 339 967 q 379 924 364 943 l 479 790 l 415 790 z "},"ē":{"ha":878,"x_min":117,"x_max":764,"o":"m 449 -17 q 267 31 342 -17 q 155 160 193 79 q 117 340 117 242 q 159 533 117 451 q 276 658 201 614 q 446 703 350 703 q 588 672 526 703 q 688 588 649 640 q 746 471 728 536 q 760 339 764 406 l 193 339 q 218 199 193 254 q 283 110 243 143 q 368 64 322 78 q 456 50 414 50 q 574 76 529 50 q 646 139 619 101 l 721 113 q 623 22 686 61 q 449 -17 560 -17 m 196 401 l 681 401 q 655 508 681 454 q 578 599 629 563 q 446 636 526 636 q 334 614 388 636 q 244 540 281 592 q 196 401 207 489 m 276 843 l 276 904 l 629 904 l 629 843 l 276 843 z "},"ę":{"ha":878,"x_min":117,"x_max":764,"o":"m 592 -233 q 533 -221 560 -233 q 492 -185 507 -208 q 478 -131 478 -162 q 529 -10 478 -64 q 318 7 411 -31 q 171 131 225 44 q 117 340 117 217 q 159 533 117 451 q 276 658 201 614 q 446 703 350 703 q 588 672 526 703 q 688 588 649 640 q 746 471 728 536 q 760 339 764 406 l 193 339 q 218 199 193 254 q 283 110 243 143 q 368 64 322 78 q 456 50 414 50 q 574 76 529 50 q 646 139 619 101 l 721 113 q 676 61 703 86 q 615 15 649 36 q 558 -41 576 -8 q 540 -108 540 -74 q 564 -160 540 -143 q 615 -176 588 -176 q 638 -174 626 -176 q 658 -167 649 -172 l 658 -221 q 623 -231 638 -229 q 592 -233 608 -233 m 196 401 l 681 401 q 655 508 681 454 q 578 599 629 563 q 446 636 526 636 q 334 614 388 636 q 244 540 281 592 q 196 401 207 489 z "},"f":{"ha":878,"x_min":151,"x_max":761,"o":"m 374 0 l 374 628 l 151 628 l 151 689 l 374 689 l 374 831 q 386 933 374 897 q 431 981 399 968 q 525 994 464 994 l 761 994 l 761 928 l 519 928 q 463 910 476 928 q 449 831 449 892 l 449 689 l 650 689 l 650 628 l 449 628 l 449 0 l 374 0 z "},"g":{"ha":878,"x_min":92,"x_max":738,"o":"m 432 -258 q 310 -242 369 -258 q 207 -190 250 -225 q 150 -100 164 -156 l 226 -79 q 296 -161 240 -132 q 435 -190 351 -190 q 551 -170 500 -190 q 633 -108 603 -150 q 663 0 663 -65 l 663 135 q 564 42 626 79 q 411 6 501 6 q 246 47 318 6 q 133 165 174 88 q 92 353 92 243 q 133 540 92 463 q 246 660 174 618 q 411 703 318 703 q 565 663 501 703 q 663 565 628 624 l 682 689 l 738 689 l 738 -6 q 699 -140 738 -83 q 592 -228 661 -197 q 432 -258 524 -258 m 418 72 q 548 107 493 72 q 633 204 603 142 q 663 351 663 267 q 596 558 663 479 q 418 636 529 636 q 237 561 306 636 q 168 351 168 486 q 237 145 168 218 q 418 72 306 72 z "},"ğ":{"ha":878,"x_min":92,"x_max":738,"o":"m 432 -258 q 310 -242 369 -258 q 207 -190 250 -225 q 150 -100 164 -156 l 226 -79 q 296 -161 240 -132 q 435 -190 351 -190 q 551 -170 500 -190 q 633 -108 603 -150 q 663 0 663 -65 l 663 135 q 564 42 626 79 q 411 6 501 6 q 246 47 318 6 q 133 165 174 88 q 92 353 92 243 q 133 540 92 463 q 246 660 174 618 q 411 703 318 703 q 565 663 501 703 q 663 565 628 624 l 682 689 l 738 689 l 738 -6 q 699 -140 738 -83 q 592 -228 661 -197 q 432 -258 524 -258 m 418 72 q 548 107 493 72 q 633 204 603 142 q 663 351 663 267 q 596 558 663 479 q 418 636 529 636 q 237 561 306 636 q 168 351 168 486 q 237 145 168 218 q 418 72 306 72 m 426 794 q 320 835 363 794 q 267 932 278 876 l 322 932 q 356 877 329 903 q 426 851 382 851 q 497 877 471 851 q 531 932 522 903 l 586 932 q 533 835 575 876 q 426 794 492 794 z "},"ģ":{"ha":878,"x_min":92,"x_max":738,"o":"m 435 799 q 394 847 407 822 q 381 903 381 872 q 401 979 381 947 q 452 1029 421 1011 q 514 1049 483 1047 l 556 1014 q 507 1002 533 1013 q 462 971 481 992 q 443 914 443 950 q 456 864 443 888 q 494 824 468 840 l 435 799 m 432 -258 q 310 -242 369 -258 q 207 -190 250 -225 q 150 -100 164 -156 l 226 -79 q 296 -161 240 -132 q 435 -190 351 -190 q 551 -170 500 -190 q 633 -108 603 -150 q 663 0 663 -65 l 663 135 q 564 42 626 79 q 411 6 501 6 q 246 47 318 6 q 133 165 174 88 q 92 353 92 243 q 133 540 92 463 q 246 660 174 618 q 411 703 318 703 q 565 663 501 703 q 663 565 628 624 l 682 689 l 738 689 l 738 -6 q 699 -140 738 -83 q 592 -228 661 -197 q 432 -258 524 -258 m 418 72 q 548 107 493 72 q 633 204 603 142 q 663 351 663 267 q 596 558 663 479 q 418 636 529 636 q 237 561 306 636 q 168 351 168 486 q 237 145 168 218 q 418 72 306 72 z "},"ġ":{"ha":878,"x_min":92,"x_max":738,"o":"m 432 -258 q 310 -242 369 -258 q 207 -190 250 -225 q 150 -100 164 -156 l 226 -79 q 296 -161 240 -132 q 435 -190 351 -190 q 551 -170 500 -190 q 633 -108 603 -150 q 663 0 663 -65 l 663 135 q 564 42 626 79 q 411 6 501 6 q 246 47 318 6 q 133 165 174 88 q 92 353 92 243 q 133 540 92 463 q 246 660 174 618 q 411 703 318 703 q 565 663 501 703 q 663 565 628 624 l 682 689 l 738 689 l 738 -6 q 699 -140 738 -83 q 592 -228 661 -197 q 432 -258 524 -258 m 418 72 q 548 107 493 72 q 633 204 603 142 q 663 351 663 267 q 596 558 663 479 q 418 636 529 636 q 237 561 306 636 q 168 351 168 486 q 237 145 168 218 q 418 72 306 72 m 426 829 q 383 847 401 829 q 364 892 364 865 q 383 936 364 918 q 426 954 401 954 q 470 936 451 954 q 489 892 489 918 q 470 847 489 865 q 426 829 451 829 z "},"h":{"ha":878,"x_min":158,"x_max":722,"o":"m 158 0 l 158 983 l 233 983 l 233 582 q 282 636 250 608 q 361 683 314 664 q 471 703 408 703 q 614 670 558 703 q 696 581 669 638 q 722 456 722 525 l 722 0 l 647 0 l 647 432 q 606 578 647 519 q 463 636 564 636 q 298 569 363 636 q 233 379 233 503 l 233 0 l 158 0 z "},"ħ":{"ha":878,"x_min":68,"x_max":722,"o":"m 158 0 l 158 779 l 68 779 l 68 835 l 158 835 l 158 983 l 233 983 l 233 835 l 468 835 l 468 779 l 233 779 l 233 582 q 282 636 250 608 q 361 683 314 664 q 471 703 408 703 q 614 670 558 703 q 696 581 669 638 q 722 456 722 525 l 722 0 l 647 0 l 647 432 q 606 578 647 519 q 463 636 564 636 q 298 569 363 636 q 233 379 233 503 l 233 0 l 158 0 z "},"i":{"ha":878,"x_min":160,"x_max":735,"o":"m 160 0 l 160 61 l 410 61 l 410 628 l 194 628 l 194 689 l 485 689 l 485 61 l 735 61 l 735 0 l 160 0 m 432 832 q 385 852 406 832 q 365 899 365 872 q 385 946 365 926 q 432 965 406 965 q 479 946 460 965 q 499 899 499 926 q 479 852 499 872 q 432 832 460 832 z "},"ı":{"ha":878,"x_min":160,"x_max":735,"o":"m 160 0 l 160 61 l 410 61 l 410 628 l 194 628 l 194 689 l 485 689 l 485 61 l 735 61 l 735 0 l 160 0 z "},"í":{"ha":878,"x_min":160,"x_max":735,"o":"m 160 0 l 160 61 l 410 61 l 410 628 l 194 628 l 194 689 l 485 689 l 485 61 l 735 61 l 735 0 l 160 0 m 406 790 l 506 924 q 533 955 521 943 q 563 967 546 967 q 589 956 579 967 q 599 931 599 946 q 588 900 599 913 q 549 861 576 888 l 469 790 l 406 790 z "},"î":{"ha":878,"x_min":160,"x_max":735,"o":"m 160 0 l 160 61 l 410 61 l 410 628 l 194 628 l 194 689 l 485 689 l 485 61 l 735 61 l 735 0 l 160 0 m 260 800 l 371 914 q 401 936 386 929 q 433 943 415 943 q 465 936 450 943 q 493 914 479 929 l 604 800 l 528 800 l 431 883 l 336 800 l 260 800 z "},"ï":{"ha":878,"x_min":160,"x_max":735,"o":"m 160 0 l 160 61 l 410 61 l 410 628 l 194 628 l 194 689 l 485 689 l 485 61 l 735 61 l 735 0 l 160 0 m 543 832 q 500 850 518 832 q 482 893 482 868 q 500 936 482 918 q 543 954 518 954 q 586 936 568 954 q 604 893 604 918 q 586 850 604 868 q 543 832 568 832 m 321 832 q 278 850 296 832 q 260 893 260 868 q 278 936 260 918 q 321 954 296 954 q 364 936 346 954 q 382 893 382 918 q 364 850 382 868 q 321 832 346 832 z "},"ì":{"ha":878,"x_min":160,"x_max":735,"o":"m 160 0 l 160 61 l 410 61 l 410 628 l 194 628 l 194 689 l 485 689 l 485 61 l 735 61 l 735 0 l 160 0 m 394 790 l 315 861 q 276 900 288 888 q 265 931 265 913 q 275 956 265 946 q 301 967 285 967 q 331 955 318 967 q 358 924 343 943 l 458 790 l 394 790 z "},"ī":{"ha":878,"x_min":160,"x_max":735,"o":"m 160 0 l 160 61 l 410 61 l 410 628 l 194 628 l 194 689 l 485 689 l 485 61 l 735 61 l 735 0 l 160 0 m 256 843 l 256 904 l 608 904 l 608 843 l 256 843 z "},"į":{"ha":878,"x_min":160,"x_max":735,"o":"m 160 0 l 160 61 l 410 61 l 410 628 l 194 628 l 194 689 l 485 689 l 485 61 l 735 61 l 735 0 q 648 -49 679 -18 q 617 -117 617 -81 q 638 -162 617 -147 q 688 -176 658 -176 q 713 -174 701 -176 q 735 -167 725 -171 l 735 -221 q 699 -231 714 -229 q 668 -233 685 -233 q 610 -221 636 -233 q 569 -185 583 -208 q 554 -131 554 -162 q 576 -58 554 -89 q 642 0 599 -26 l 160 0 m 432 832 q 385 852 406 832 q 365 899 365 872 q 385 946 365 926 q 432 965 406 965 q 479 946 460 965 q 499 899 499 926 q 479 852 499 872 q 432 832 460 832 z "},"ĳ":{"ha":878,"x_min":153,"x_max":725,"o":"m 407 -224 l 407 -157 l 508 -157 q 594 -146 567 -157 q 628 -103 621 -135 q 636 -14 636 -72 l 636 628 l 551 628 l 551 689 l 711 689 l 711 -12 q 699 -137 711 -92 q 643 -203 686 -183 q 508 -224 600 -224 l 407 -224 m 238 0 l 238 628 l 153 628 l 153 689 l 313 689 l 313 0 l 238 0 m 260 832 q 213 852 233 832 q 193 899 193 872 q 213 946 193 926 q 260 965 233 965 q 307 946 288 965 q 326 899 326 926 q 307 852 326 872 q 260 832 288 832 m 658 832 q 612 852 632 832 q 592 899 592 872 q 612 946 592 926 q 658 965 632 965 q 706 946 686 965 q 725 899 725 926 q 706 852 725 872 q 658 832 686 832 z "},"j":{"ha":878,"x_min":139,"x_max":540,"o":"m 139 -225 l 139 -158 l 324 -158 q 409 -147 382 -158 q 444 -105 436 -136 q 451 -15 451 -74 l 451 628 l 236 628 l 236 689 l 526 689 l 526 -14 q 514 -139 526 -93 q 458 -205 501 -185 q 324 -225 415 -225 l 139 -225 m 474 832 q 427 852 447 832 q 407 899 407 872 q 427 946 407 926 q 474 965 447 965 q 521 946 501 965 q 540 899 540 926 q 521 852 540 872 q 474 832 501 832 z "},"ȷ":{"ha":878,"x_min":139,"x_max":526,"o":"m 139 -225 l 139 -158 l 324 -158 q 409 -147 382 -158 q 444 -105 436 -136 q 451 -15 451 -74 l 451 628 l 236 628 l 236 689 l 526 689 l 526 -14 q 514 -139 526 -93 q 458 -205 501 -185 q 324 -225 415 -225 l 139 -225 z "},"k":{"ha":878,"x_min":211,"x_max":786,"o":"m 211 0 l 211 983 l 286 983 l 286 340 l 647 689 l 743 689 l 449 408 l 786 0 l 690 0 l 397 358 l 286 253 l 286 0 l 211 0 z "},"ķ":{"ha":878,"x_min":211,"x_max":786,"o":"m 211 0 l 211 983 l 286 983 l 286 340 l 647 689 l 743 689 l 449 408 l 786 0 l 690 0 l 397 358 l 286 253 l 286 0 l 211 0 m 394 -322 l 353 -287 q 402 -275 376 -285 q 447 -244 428 -265 q 465 -187 465 -222 q 453 -137 465 -161 q 414 -97 442 -114 l 474 -72 q 515 -120 501 -96 q 528 -176 528 -144 q 508 -253 528 -221 q 457 -302 488 -285 q 394 -322 426 -319 z "},"l":{"ha":878,"x_min":172,"x_max":733,"o":"m 469 0 q 385 13 415 0 q 344 53 356 25 q 332 132 332 82 l 332 922 l 172 922 l 172 983 l 407 983 l 407 136 q 419 82 407 97 q 476 67 431 67 l 733 67 l 733 0 l 469 0 z "},"ĺ":{"ha":878,"x_min":172,"x_max":733,"o":"m 469 0 q 385 13 415 0 q 344 53 356 25 q 332 132 332 82 l 332 922 l 172 922 l 172 983 l 407 983 l 407 136 q 419 82 407 97 q 476 67 431 67 l 733 67 l 733 0 l 469 0 m 336 1082 l 451 1188 q 483 1213 471 1206 q 508 1221 494 1221 q 534 1213 524 1221 q 544 1188 544 1204 q 531 1159 544 1169 q 485 1129 518 1149 l 404 1082 l 336 1082 z "},"ľ":{"ha":878,"x_min":172,"x_max":733,"o":"m 469 0 q 385 13 415 0 q 344 53 356 25 q 332 132 332 82 l 332 922 l 172 922 l 172 983 l 407 983 l 407 136 q 419 82 407 97 q 476 67 431 67 l 733 67 l 733 0 l 469 0 m 533 754 l 561 933 q 576 985 567 968 q 608 1001 586 1001 q 635 994 622 1001 q 649 965 649 986 q 645 947 649 958 q 633 911 642 935 l 579 754 l 533 754 z "},"ļ":{"ha":878,"x_min":172,"x_max":733,"o":"m 469 0 q 385 13 415 0 q 344 53 356 25 q 332 132 332 82 l 332 922 l 172 922 l 172 983 l 407 983 l 407 136 q 419 82 407 97 q 476 67 431 67 l 733 67 l 733 0 l 469 0 m 451 -322 l 410 -287 q 459 -275 433 -285 q 503 -244 485 -265 q 522 -187 522 -222 q 510 -137 522 -161 q 471 -97 499 -114 l 531 -72 q 572 -120 558 -96 q 585 -176 585 -144 q 565 -253 585 -221 q 514 -302 544 -285 q 451 -322 483 -319 z "},"ł":{"ha":878,"x_min":172,"x_max":733,"o":"m 469 0 q 385 13 415 0 q 344 53 356 25 q 332 132 332 82 l 332 382 l 243 324 l 243 390 l 332 449 l 332 922 l 172 922 l 172 983 l 407 983 l 407 497 l 538 583 l 538 517 l 407 431 l 407 136 q 419 82 407 97 q 476 67 431 67 l 733 67 l 733 0 l 469 0 z "},"m":{"ha":878,"x_min":99,"x_max":782,"o":"m 99 0 l 99 689 l 157 689 l 169 613 q 223 674 186 646 q 319 703 260 703 q 415 678 378 703 q 467 608 451 653 q 522 673 482 643 q 622 703 561 703 q 745 651 708 703 q 782 521 782 600 l 782 0 l 707 0 l 707 497 q 684 598 707 560 q 604 636 661 636 q 514 594 550 636 q 478 467 478 551 l 478 0 l 403 0 l 403 499 q 381 599 403 561 q 303 636 358 636 q 211 593 249 636 q 174 465 174 550 l 174 0 l 99 0 z "},"n":{"ha":878,"x_min":158,"x_max":722,"o":"m 158 0 l 158 689 l 214 689 l 231 578 q 278 633 247 604 q 358 683 310 663 q 471 703 407 703 q 614 670 558 703 q 696 581 669 638 q 722 456 722 525 l 722 0 l 647 0 l 647 432 q 606 578 647 519 q 463 636 564 636 q 298 569 363 636 q 233 379 233 503 l 233 0 l 158 0 z "},"ń":{"ha":878,"x_min":158,"x_max":722,"o":"m 158 0 l 158 689 l 214 689 l 231 578 q 278 633 247 604 q 358 683 310 663 q 471 703 407 703 q 614 670 558 703 q 696 581 669 638 q 722 456 722 525 l 722 0 l 647 0 l 647 432 q 606 578 647 519 q 463 636 564 636 q 298 569 363 636 q 233 379 233 503 l 233 0 l 158 0 m 413 790 l 513 924 q 540 955 528 943 q 569 967 553 967 q 596 956 586 967 q 606 931 606 946 q 594 900 606 913 q 556 861 583 888 l 476 790 l 413 790 z "},"ň":{"ha":878,"x_min":158,"x_max":722,"o":"m 158 0 l 158 689 l 214 689 l 231 578 q 278 633 247 604 q 358 683 310 663 q 471 703 407 703 q 614 670 558 703 q 696 581 669 638 q 722 456 722 525 l 722 0 l 647 0 l 647 432 q 606 578 647 519 q 463 636 564 636 q 298 569 363 636 q 233 379 233 503 l 233 0 l 158 0 m 440 792 q 378 821 407 792 l 267 935 l 343 935 l 438 851 l 535 935 l 611 935 l 500 821 q 440 792 471 792 z "},"ņ":{"ha":878,"x_min":158,"x_max":722,"o":"m 158 0 l 158 689 l 214 689 l 231 578 q 278 633 247 604 q 358 683 310 663 q 471 703 407 703 q 614 670 558 703 q 696 581 669 638 q 722 456 722 525 l 722 0 l 647 0 l 647 432 q 606 578 647 519 q 463 636 564 636 q 298 569 363 636 q 233 379 233 503 l 233 0 l 158 0 m 368 -322 l 326 -287 q 376 -275 350 -285 q 420 -244 401 -265 q 439 -187 439 -222 q 427 -137 439 -161 q 388 -97 415 -114 l 447 -72 q 488 -120 475 -96 q 501 -176 501 -144 q 481 -253 501 -221 q 431 -302 461 -285 q 368 -322 400 -319 z "},"ñ":{"ha":878,"x_min":158,"x_max":722,"o":"m 158 0 l 158 689 l 214 689 l 231 578 q 278 633 247 604 q 358 683 310 663 q 471 703 407 703 q 614 670 558 703 q 696 581 669 638 q 722 456 722 525 l 722 0 l 647 0 l 647 432 q 606 578 647 519 q 463 636 564 636 q 298 569 363 636 q 233 379 233 503 l 233 0 l 158 0 m 525 800 q 465 814 493 800 q 413 842 438 828 q 363 856 388 856 q 322 842 339 856 q 301 801 304 828 l 246 801 q 291 888 257 864 q 365 913 325 913 q 424 899 399 913 q 474 872 450 886 q 524 858 497 858 q 558 869 546 858 q 579 896 569 881 q 594 912 586 907 q 610 917 601 917 q 625 911 618 917 q 632 890 632 906 q 621 858 632 881 q 586 818 610 836 q 525 800 563 800 z "},"o":{"ha":878,"x_min":97,"x_max":781,"o":"m 439 -17 q 319 4 379 -17 q 208 69 258 25 q 128 181 158 113 q 97 343 97 249 q 128 506 97 438 q 208 617 158 574 q 319 682 258 661 q 439 703 379 703 q 560 682 500 703 q 671 617 621 661 q 751 506 721 574 q 781 343 781 438 q 751 181 781 249 q 671 69 721 113 q 560 4 621 25 q 439 -17 500 -17 m 439 50 q 567 81 507 50 q 666 178 628 113 q 704 343 704 243 q 666 509 704 444 q 567 605 628 574 q 439 636 507 636 q 310 605 371 636 q 212 509 250 574 q 174 343 174 444 q 212 178 174 243 q 310 81 250 113 q 439 50 371 50 z "},"ó":{"ha":878,"x_min":97,"x_max":781,"o":"m 439 -17 q 319 4 379 -17 q 208 69 258 25 q 128 181 158 113 q 97 343 97 249 q 128 506 97 438 q 208 617 158 574 q 319 682 258 661 q 439 703 379 703 q 560 682 500 703 q 671 617 621 661 q 751 506 721 574 q 781 343 781 438 q 751 181 781 249 q 671 69 721 113 q 560 4 621 25 q 439 -17 500 -17 m 439 50 q 567 81 507 50 q 666 178 628 113 q 704 343 704 243 q 666 509 704 444 q 567 605 628 574 q 439 636 507 636 q 310 605 371 636 q 212 509 250 574 q 174 343 174 444 q 212 178 174 243 q 310 81 250 113 q 439 50 371 50 m 413 790 l 513 924 q 540 955 528 943 q 569 967 553 967 q 596 956 586 967 q 606 931 606 946 q 594 900 606 913 q 556 861 583 888 l 476 790 l 413 790 z "},"ô":{"ha":878,"x_min":97,"x_max":781,"o":"m 439 -17 q 319 4 379 -17 q 208 69 258 25 q 128 181 158 113 q 97 343 97 249 q 128 506 97 438 q 208 617 158 574 q 319 682 258 661 q 439 703 379 703 q 560 682 500 703 q 671 617 621 661 q 751 506 721 574 q 781 343 781 438 q 751 181 781 249 q 671 69 721 113 q 560 4 621 25 q 439 -17 500 -17 m 439 50 q 567 81 507 50 q 666 178 628 113 q 704 343 704 243 q 666 509 704 444 q 567 605 628 574 q 439 636 507 636 q 310 605 371 636 q 212 509 250 574 q 174 343 174 444 q 212 178 174 243 q 310 81 250 113 q 439 50 371 50 m 267 800 l 378 914 q 408 936 393 929 q 440 943 422 943 q 472 936 457 943 q 500 914 486 929 l 611 800 l 535 800 l 438 883 l 343 800 l 267 800 z "},"ö":{"ha":878,"x_min":97,"x_max":781,"o":"m 439 -17 q 319 4 379 -17 q 208 69 258 25 q 128 181 158 113 q 97 343 97 249 q 128 506 97 438 q 208 617 158 574 q 319 682 258 661 q 439 703 379 703 q 560 682 500 703 q 671 617 621 661 q 751 506 721 574 q 781 343 781 438 q 751 181 781 249 q 671 69 721 113 q 560 4 621 25 q 439 -17 500 -17 m 439 50 q 567 81 507 50 q 666 178 628 113 q 704 343 704 243 q 666 509 704 444 q 567 605 628 574 q 439 636 507 636 q 310 605 371 636 q 212 509 250 574 q 174 343 174 444 q 212 178 174 243 q 310 81 250 113 q 439 50 371 50 m 550 832 q 507 850 525 832 q 489 893 489 868 q 507 936 489 918 q 550 954 525 954 q 593 936 575 954 q 611 893 611 918 q 593 850 611 868 q 550 832 575 832 m 328 832 q 285 850 303 832 q 267 893 267 868 q 285 936 267 918 q 328 954 303 954 q 371 936 353 954 q 389 893 389 918 q 371 850 389 868 q 328 832 353 832 z "},"ò":{"ha":878,"x_min":97,"x_max":781,"o":"m 439 -17 q 319 4 379 -17 q 208 69 258 25 q 128 181 158 113 q 97 343 97 249 q 128 506 97 438 q 208 617 158 574 q 319 682 258 661 q 439 703 379 703 q 560 682 500 703 q 671 617 621 661 q 751 506 721 574 q 781 343 781 438 q 751 181 781 249 q 671 69 721 113 q 560 4 621 25 q 439 -17 500 -17 m 439 50 q 567 81 507 50 q 666 178 628 113 q 704 343 704 243 q 666 509 704 444 q 567 605 628 574 q 439 636 507 636 q 310 605 371 636 q 212 509 250 574 q 174 343 174 444 q 212 178 174 243 q 310 81 250 113 q 439 50 371 50 m 401 790 l 322 861 q 283 900 294 888 q 272 931 272 913 q 282 956 272 946 q 308 967 292 967 q 338 955 325 967 q 365 924 350 943 l 465 790 l 401 790 z "},"ő":{"ha":878,"x_min":97,"x_max":781,"o":"m 439 -17 q 319 4 379 -17 q 208 69 258 25 q 128 181 158 113 q 97 343 97 249 q 128 506 97 438 q 208 617 158 574 q 319 682 258 661 q 439 703 379 703 q 560 682 500 703 q 671 617 621 661 q 751 506 721 574 q 781 343 781 438 q 751 181 781 249 q 671 69 721 113 q 560 4 621 25 q 439 -17 500 -17 m 439 50 q 567 81 507 50 q 666 178 628 113 q 704 343 704 243 q 666 509 704 444 q 567 605 628 574 q 439 636 507 636 q 310 605 371 636 q 212 509 250 574 q 174 343 174 444 q 212 178 174 243 q 310 81 250 113 q 439 50 371 50 m 319 790 l 418 924 q 446 954 433 943 q 475 965 458 965 q 499 956 492 965 q 507 932 507 947 q 496 902 507 915 q 457 863 485 889 l 378 790 l 319 790 m 494 790 l 593 924 q 621 954 608 943 q 650 965 633 965 q 674 956 667 965 q 682 932 682 947 q 671 902 682 915 q 632 863 660 889 l 553 790 l 494 790 z "},"ø":{"ha":878,"x_min":97,"x_max":781,"o":"m 439 -17 q 319 3 379 -17 q 211 65 260 24 l 147 -1 l 110 36 l 174 104 q 118 207 139 147 q 97 343 97 267 q 128 506 97 438 q 208 617 158 574 q 319 682 258 661 q 439 703 379 703 q 558 683 499 703 q 665 621 617 663 l 731 690 l 768 653 l 703 583 q 760 481 739 540 q 781 343 781 421 q 751 181 781 249 q 671 69 721 113 q 560 4 621 25 q 439 -17 500 -17 m 439 50 q 567 81 507 50 q 666 178 628 113 q 704 343 704 243 q 690 449 704 403 q 651 531 676 496 l 260 117 q 342 67 296 83 q 439 50 389 50 m 225 157 l 617 571 q 534 620 581 604 q 439 636 488 636 q 310 605 371 636 q 212 509 250 574 q 174 343 174 444 q 188 238 174 285 q 225 157 201 192 z "},"õ":{"ha":878,"x_min":97,"x_max":781,"o":"m 439 -17 q 319 4 379 -17 q 208 69 258 25 q 128 181 158 113 q 97 343 97 249 q 128 506 97 438 q 208 617 158 574 q 319 682 258 661 q 439 703 379 703 q 560 682 500 703 q 671 617 621 661 q 751 506 721 574 q 781 343 781 438 q 751 181 781 249 q 671 69 721 113 q 560 4 621 25 q 439 -17 500 -17 m 439 50 q 567 81 507 50 q 666 178 628 113 q 704 343 704 243 q 666 509 704 444 q 567 605 628 574 q 439 636 507 636 q 310 605 371 636 q 212 509 250 574 q 174 343 174 444 q 212 178 174 243 q 310 81 250 113 q 439 50 371 50 m 525 800 q 465 814 493 800 q 413 842 438 828 q 363 856 388 856 q 322 842 339 856 q 301 801 304 828 l 246 801 q 291 888 257 864 q 365 913 325 913 q 424 899 399 913 q 474 872 450 886 q 524 858 497 858 q 558 869 546 858 q 579 896 569 881 q 594 912 586 907 q 610 917 601 917 q 625 911 618 917 q 632 890 632 906 q 621 858 632 881 q 586 818 610 836 q 525 800 563 800 z "},"œ":{"ha":878,"x_min":6,"x_max":875,"o":"m 654 -17 q 523 31 575 -17 q 443 154 471 78 q 356 24 413 65 q 243 -17 300 -17 q 130 21 185 -17 q 40 138 75 58 q 6 343 6 218 q 40 549 6 469 q 131 665 75 628 q 247 703 186 703 q 366 661 311 703 q 451 529 421 619 q 530 657 479 611 q 649 703 581 703 q 755 672 711 703 q 826 588 799 640 q 865 471 854 536 q 871 339 875 406 l 481 339 q 508 160 479 225 q 578 70 538 96 q 656 44 619 44 q 727 67 700 44 q 781 136 754 90 l 843 114 q 773 23 817 63 q 654 -17 729 -17 m 244 50 q 328 81 289 50 q 391 178 367 113 q 415 343 415 243 q 391 509 415 444 q 328 605 367 574 q 244 636 289 636 q 163 605 201 636 q 101 509 125 574 q 76 343 76 444 q 101 178 76 243 q 163 81 125 113 q 244 50 201 50 m 483 397 l 797 397 q 783 509 797 453 q 736 603 768 565 q 649 642 704 642 q 545 588 593 642 q 483 397 497 533 z "},"p":{"ha":878,"x_min":139,"x_max":796,"o":"m 139 -225 l 139 689 l 194 689 l 217 567 q 277 636 240 606 q 363 685 314 667 q 471 703 411 703 q 640 660 567 703 q 755 538 714 618 q 796 343 796 457 q 755 149 796 229 q 640 26 714 68 q 471 -17 567 -17 q 358 2 408 -17 q 272 51 308 21 q 214 117 236 82 l 214 -225 l 139 -225 m 464 50 q 649 126 579 50 q 719 343 719 203 q 649 560 719 483 q 464 636 579 636 q 282 556 350 636 q 214 343 214 475 q 282 129 214 208 q 464 50 350 50 z "},"þ":{"ha":878,"x_min":139,"x_max":796,"o":"m 139 -225 l 139 983 l 214 983 l 214 563 q 276 635 239 604 q 362 685 313 667 q 471 703 411 703 q 640 660 567 703 q 755 538 714 618 q 796 343 796 457 q 755 149 796 229 q 640 26 714 68 q 471 -17 567 -17 q 358 2 408 -17 q 272 51 308 21 q 214 118 236 82 l 214 -225 l 139 -225 m 464 50 q 649 126 579 50 q 719 343 719 203 q 649 560 719 483 q 464 636 579 636 q 282 558 350 636 q 214 343 214 479 q 282 129 214 208 q 464 50 350 50 z "},"q":{"ha":878,"x_min":82,"x_max":878,"o":"m 800 -242 q 729 -227 760 -242 q 681 -176 699 -212 q 664 -78 664 -140 l 664 119 q 563 23 626 63 q 407 -17 500 -17 q 238 26 311 -17 q 124 149 165 68 q 82 343 82 229 q 124 538 82 457 q 238 660 165 618 q 407 703 311 703 q 565 663 500 703 q 664 564 629 624 l 683 689 l 739 689 l 739 -76 q 756 -151 739 -128 q 811 -175 774 -175 q 846 -170 829 -175 q 878 -156 863 -165 l 878 -222 q 841 -237 860 -232 q 800 -242 822 -242 m 414 50 q 597 129 529 50 q 664 343 664 208 q 596 557 664 478 q 414 636 528 636 q 228 560 299 636 q 158 343 158 483 q 228 126 158 203 q 414 50 299 50 z "},"r":{"ha":878,"x_min":225,"x_max":722,"o":"m 225 0 l 225 689 l 281 689 l 303 515 q 433 651 347 606 q 619 697 518 697 q 674 694 644 697 q 722 686 704 690 l 722 603 q 660 616 692 611 q 601 621 629 621 q 450 586 518 621 q 341 481 382 551 q 300 303 300 411 l 300 0 l 225 0 z "},"ŕ":{"ha":878,"x_min":225,"x_max":722,"o":"m 225 0 l 225 689 l 281 689 l 303 515 q 433 651 347 606 q 619 697 518 697 q 674 694 644 697 q 722 686 704 690 l 722 603 q 660 616 692 611 q 601 621 629 621 q 450 586 518 621 q 341 481 382 551 q 300 303 300 411 l 300 0 l 225 0 m 411 790 l 511 924 q 539 955 526 943 q 568 967 551 967 q 594 956 585 967 q 604 931 604 946 q 593 900 604 913 q 554 861 582 888 l 475 790 l 411 790 z "},"ř":{"ha":878,"x_min":225,"x_max":722,"o":"m 225 0 l 225 689 l 281 689 l 303 515 q 433 651 347 606 q 619 697 518 697 q 674 694 644 697 q 722 686 704 690 l 722 603 q 660 616 692 611 q 601 621 629 621 q 450 586 518 621 q 341 481 382 551 q 300 303 300 411 l 300 0 l 225 0 m 439 792 q 376 821 406 792 l 265 935 l 342 935 l 436 851 l 533 935 l 610 935 l 499 821 q 439 792 469 792 z "},"s":{"ha":878,"x_min":153,"x_max":725,"o":"m 450 -17 q 328 1 389 -17 q 222 58 268 19 q 153 156 175 96 l 226 183 q 304 85 246 119 q 451 50 363 50 q 601 87 549 50 q 653 181 653 124 q 603 273 653 246 q 478 317 554 300 l 368 340 q 226 398 279 360 q 174 515 174 436 q 208 615 174 572 q 301 680 242 657 q 436 703 361 703 q 603 667 533 703 q 700 565 672 631 l 629 538 q 557 611 611 586 q 433 636 503 636 q 301 606 356 636 q 246 519 246 576 q 285 447 246 472 q 388 407 325 421 l 497 383 q 665 319 606 361 q 725 186 725 276 q 689 78 725 124 q 591 8 653 32 q 450 -17 529 -17 z "},"ś":{"ha":878,"x_min":153,"x_max":725,"o":"m 450 -17 q 328 1 389 -17 q 222 58 268 19 q 153 156 175 96 l 226 183 q 304 85 246 119 q 451 50 363 50 q 601 87 549 50 q 653 181 653 124 q 603 273 653 246 q 478 317 554 300 l 368 340 q 226 398 279 360 q 174 515 174 436 q 208 615 174 572 q 301 680 242 657 q 436 703 361 703 q 603 667 533 703 q 700 565 672 631 l 629 538 q 557 611 611 586 q 433 636 503 636 q 301 606 356 636 q 246 519 246 576 q 285 447 246 472 q 388 407 325 421 l 497 383 q 665 319 606 361 q 725 186 725 276 q 689 78 725 124 q 591 8 653 32 q 450 -17 529 -17 m 410 790 l 510 924 q 538 955 525 943 q 567 967 550 967 q 593 956 583 967 q 603 931 603 946 q 592 900 603 913 q 553 861 581 888 l 474 790 l 410 790 z "},"š":{"ha":878,"x_min":153,"x_max":725,"o":"m 450 -17 q 328 1 389 -17 q 222 58 268 19 q 153 156 175 96 l 226 183 q 304 85 246 119 q 451 50 363 50 q 601 87 549 50 q 653 181 653 124 q 603 273 653 246 q 478 317 554 300 l 368 340 q 226 398 279 360 q 174 515 174 436 q 208 615 174 572 q 301 680 242 657 q 436 703 361 703 q 603 667 533 703 q 700 565 672 631 l 629 538 q 557 611 611 586 q 433 636 503 636 q 301 606 356 636 q 246 519 246 576 q 285 447 246 472 q 388 407 325 421 l 497 383 q 665 319 606 361 q 725 186 725 276 q 689 78 725 124 q 591 8 653 32 q 450 -17 529 -17 m 438 792 q 375 821 404 792 l 264 935 l 340 935 l 435 851 l 532 935 l 608 935 l 497 821 q 438 792 468 792 z "},"ş":{"ha":878,"x_min":153,"x_max":725,"o":"m 439 -246 q 381 -236 413 -246 q 326 -212 350 -226 l 346 -178 q 395 -197 375 -192 q 436 -201 415 -201 q 489 -182 475 -201 q 503 -149 503 -162 q 490 -118 503 -129 q 446 -107 478 -107 q 415 -111 431 -107 q 388 -115 399 -115 q 369 -103 372 -115 q 375 -76 365 -90 l 413 -15 q 256 33 329 -8 q 153 156 182 75 l 226 183 q 304 85 246 119 q 451 50 363 50 q 601 87 549 50 q 653 181 653 124 q 603 273 653 246 q 478 317 554 300 l 368 340 q 226 398 279 360 q 174 515 174 436 q 208 615 174 572 q 301 680 242 657 q 436 703 361 703 q 603 667 533 703 q 700 565 672 631 l 629 538 q 557 611 611 586 q 433 636 503 636 q 301 606 356 636 q 246 519 246 576 q 285 447 246 472 q 388 407 325 421 l 497 383 q 665 319 606 361 q 725 186 725 276 q 691 81 725 125 q 598 11 657 36 q 464 -17 539 -14 l 432 -67 q 458 -62 446 -64 q 475 -61 469 -61 q 523 -72 504 -61 q 551 -101 542 -83 q 561 -137 561 -118 q 549 -184 561 -158 q 509 -228 536 -210 q 439 -246 482 -246 z "},"ș":{"ha":878,"x_min":153,"x_max":725,"o":"m 450 -17 q 328 1 389 -17 q 222 58 268 19 q 153 156 175 96 l 226 183 q 304 85 246 119 q 451 50 363 50 q 601 87 549 50 q 653 181 653 124 q 603 273 653 246 q 478 317 554 300 l 368 340 q 226 398 279 360 q 174 515 174 436 q 208 615 174 572 q 301 680 242 657 q 436 703 361 703 q 603 667 533 703 q 700 565 672 631 l 629 538 q 557 611 611 586 q 433 636 503 636 q 301 606 356 636 q 246 519 246 576 q 285 447 246 472 q 388 407 325 421 l 497 383 q 665 319 606 361 q 725 186 725 276 q 689 78 725 124 q 591 8 653 32 q 450 -17 529 -17 m 389 -322 l 347 -287 q 397 -275 371 -285 q 441 -244 422 -265 q 460 -187 460 -222 q 448 -137 460 -161 q 408 -97 436 -114 l 468 -72 q 509 -120 496 -96 q 522 -176 522 -144 q 502 -253 522 -221 q 451 -302 482 -285 q 389 -322 421 -319 z "},"ß":{"ha":878,"x_min":136,"x_max":803,"o":"m 453 -19 q 433 -19 443 -19 q 413 -18 424 -19 l 392 49 q 424 47 408 47 q 454 46 439 46 q 601 73 540 46 q 695 153 663 100 q 728 285 728 206 q 686 417 728 361 q 574 506 644 474 q 418 538 504 538 l 401 538 l 401 604 q 560 649 508 604 q 613 750 613 694 q 559 841 613 804 q 422 878 506 878 q 318 856 367 878 q 240 785 269 835 q 211 649 211 735 l 211 0 l 136 0 l 136 651 q 167 801 136 735 q 263 906 199 867 q 425 944 326 944 q 564 917 506 944 q 654 846 622 890 q 686 751 686 801 q 656 650 686 694 q 549 578 625 606 q 731 478 660 556 q 803 285 803 401 q 756 113 803 181 q 631 13 710 46 q 453 -19 551 -19 z "},"t":{"ha":878,"x_min":181,"x_max":707,"o":"m 479 0 q 392 13 424 0 q 347 60 360 25 q 333 161 333 94 l 333 628 l 181 628 l 181 689 l 333 689 l 333 861 l 408 861 l 408 689 l 707 689 l 707 628 l 408 628 l 408 163 q 423 85 408 103 q 485 67 438 67 l 638 67 l 638 0 l 479 0 z "},"ť":{"ha":878,"x_min":181,"x_max":707,"o":"m 479 0 q 392 13 424 0 q 347 60 360 25 q 333 161 333 94 l 333 628 l 181 628 l 181 689 l 333 689 l 333 861 l 408 861 l 408 689 l 707 689 l 707 628 l 408 628 l 408 163 q 423 85 408 103 q 485 67 438 67 l 638 67 l 638 0 l 479 0 m 478 814 l 506 993 q 521 1044 511 1028 q 553 1061 531 1061 q 580 1053 567 1061 q 593 1025 593 1046 q 590 1006 593 1018 q 578 971 586 994 l 524 814 l 478 814 z "},"ţ":{"ha":878,"x_min":181,"x_max":707,"o":"m 453 -246 q 395 -236 426 -246 q 340 -212 364 -226 l 360 -178 q 409 -197 389 -192 q 450 -201 429 -201 q 503 -182 489 -201 q 517 -149 517 -162 q 504 -118 517 -129 q 460 -107 492 -107 q 428 -111 444 -107 q 401 -115 413 -115 q 383 -103 386 -115 q 389 -76 379 -90 l 438 1 q 356 42 378 8 q 333 161 333 75 l 333 628 l 181 628 l 181 689 l 333 689 l 333 861 l 408 861 l 408 689 l 707 689 l 707 628 l 408 628 l 408 163 q 423 85 408 103 q 485 67 438 67 l 638 67 l 638 0 l 489 0 l 446 -67 q 472 -62 460 -64 q 489 -61 483 -61 q 537 -72 518 -61 q 565 -101 556 -83 q 575 -137 575 -118 q 563 -184 575 -158 q 523 -228 550 -210 q 453 -246 496 -246 z "},"ț":{"ha":878,"x_min":181,"x_max":707,"o":"m 479 0 q 392 13 424 0 q 347 60 360 25 q 333 161 333 94 l 333 628 l 181 628 l 181 689 l 333 689 l 333 861 l 408 861 l 408 689 l 707 689 l 707 628 l 408 628 l 408 163 q 423 85 408 103 q 485 67 438 67 l 638 67 l 638 0 l 479 0 m 403 -322 l 361 -287 q 410 -275 385 -285 q 455 -244 436 -265 q 474 -187 474 -222 q 462 -137 474 -161 q 422 -97 450 -114 l 482 -72 q 523 -120 510 -96 q 536 -176 536 -144 q 516 -253 536 -221 q 465 -302 496 -285 q 403 -322 435 -319 z "},"u":{"ha":878,"x_min":164,"x_max":710,"o":"m 407 -17 q 220 54 276 -17 q 164 235 164 125 l 164 689 l 239 689 l 239 258 q 256 150 239 197 q 310 76 272 103 q 415 50 349 50 q 573 117 511 50 q 635 306 635 183 l 635 689 l 710 689 l 710 0 l 654 0 l 638 111 q 558 24 614 65 q 407 -17 501 -17 z "},"ú":{"ha":878,"x_min":164,"x_max":710,"o":"m 407 -17 q 220 54 276 -17 q 164 235 164 125 l 164 689 l 239 689 l 239 258 q 256 150 239 197 q 310 76 272 103 q 415 50 349 50 q 573 117 511 50 q 635 306 635 183 l 635 689 l 710 689 l 710 0 l 654 0 l 638 111 q 558 24 614 65 q 407 -17 501 -17 m 410 790 l 510 924 q 538 955 525 943 q 567 967 550 967 q 593 956 583 967 q 603 931 603 946 q 592 900 603 913 q 553 861 581 888 l 474 790 l 410 790 z "},"û":{"ha":878,"x_min":164,"x_max":710,"o":"m 407 -17 q 220 54 276 -17 q 164 235 164 125 l 164 689 l 239 689 l 239 258 q 256 150 239 197 q 310 76 272 103 q 415 50 349 50 q 573 117 511 50 q 635 306 635 183 l 635 689 l 710 689 l 710 0 l 654 0 l 638 111 q 558 24 614 65 q 407 -17 501 -17 m 264 800 l 375 914 q 405 936 390 929 q 438 943 419 943 q 469 936 454 943 q 497 914 483 929 l 608 800 l 532 800 l 435 883 l 340 800 l 264 800 z "},"ü":{"ha":878,"x_min":164,"x_max":710,"o":"m 407 -17 q 220 54 276 -17 q 164 235 164 125 l 164 689 l 239 689 l 239 258 q 256 150 239 197 q 310 76 272 103 q 415 50 349 50 q 573 117 511 50 q 635 306 635 183 l 635 689 l 710 689 l 710 0 l 654 0 l 638 111 q 558 24 614 65 q 407 -17 501 -17 m 547 832 q 504 850 522 832 q 486 893 486 868 q 504 936 486 918 q 547 954 522 954 q 590 936 572 954 q 608 893 608 918 q 590 850 608 868 q 547 832 572 832 m 325 832 q 282 850 300 832 q 264 893 264 868 q 282 936 264 918 q 325 954 300 954 q 368 936 350 954 q 386 893 386 918 q 368 850 386 868 q 325 832 350 832 z "},"ù":{"ha":878,"x_min":164,"x_max":710,"o":"m 407 -17 q 220 54 276 -17 q 164 235 164 125 l 164 689 l 239 689 l 239 258 q 256 150 239 197 q 310 76 272 103 q 415 50 349 50 q 573 117 511 50 q 635 306 635 183 l 635 689 l 710 689 l 710 0 l 654 0 l 638 111 q 558 24 614 65 q 407 -17 501 -17 m 399 790 l 319 861 q 281 900 292 888 q 269 931 269 913 q 279 956 269 946 q 306 967 289 967 q 335 955 322 967 q 363 924 347 943 l 463 790 l 399 790 z "},"ű":{"ha":878,"x_min":164,"x_max":710,"o":"m 407 -17 q 220 54 276 -17 q 164 235 164 125 l 164 689 l 239 689 l 239 258 q 256 150 239 197 q 310 76 272 103 q 415 50 349 50 q 573 117 511 50 q 635 306 635 183 l 635 689 l 710 689 l 710 0 l 654 0 l 638 111 q 558 24 614 65 q 407 -17 501 -17 m 317 790 l 415 924 q 443 954 431 943 q 472 965 456 965 q 497 956 489 965 q 504 932 504 947 q 493 902 504 915 q 454 863 482 889 l 375 790 l 317 790 m 492 790 l 590 924 q 618 954 606 943 q 647 965 631 965 q 672 956 664 965 q 679 932 679 947 q 668 902 679 915 q 629 863 657 889 l 550 790 l 492 790 z "},"ū":{"ha":878,"x_min":164,"x_max":710,"o":"m 407 -17 q 220 54 276 -17 q 164 235 164 125 l 164 689 l 239 689 l 239 258 q 256 150 239 197 q 310 76 272 103 q 415 50 349 50 q 573 117 511 50 q 635 306 635 183 l 635 689 l 710 689 l 710 0 l 654 0 l 638 111 q 558 24 614 65 q 407 -17 501 -17 m 260 843 l 260 904 l 613 904 l 613 843 l 260 843 z "},"ų":{"ha":878,"x_min":164,"x_max":710,"o":"m 407 -17 q 220 54 276 -17 q 164 235 164 125 l 164 689 l 239 689 l 239 258 q 256 150 239 197 q 310 76 272 103 q 415 50 349 50 q 573 117 511 50 q 635 306 635 183 l 635 689 l 710 689 l 710 0 q 623 -49 654 -18 q 592 -117 592 -81 q 613 -162 592 -147 q 663 -176 633 -176 q 688 -174 676 -176 q 710 -167 700 -171 l 710 -221 q 674 -231 689 -229 q 643 -233 660 -233 q 585 -221 611 -233 q 544 -185 558 -208 q 529 -131 529 -162 q 560 -47 529 -82 q 651 19 592 -11 l 638 111 q 558 24 614 65 q 407 -17 501 -17 z "},"ů":{"ha":878,"x_min":164,"x_max":710,"o":"m 407 -17 q 220 54 276 -17 q 164 235 164 125 l 164 689 l 239 689 l 239 258 q 256 150 239 197 q 310 76 272 103 q 415 50 349 50 q 573 117 511 50 q 635 306 635 183 l 635 689 l 710 689 l 710 0 l 654 0 l 638 111 q 558 24 614 65 q 407 -17 501 -17 m 436 796 q 370 814 400 796 q 322 862 340 832 q 304 928 304 892 q 322 994 304 964 q 370 1042 340 1024 q 436 1060 400 1060 q 503 1042 474 1060 q 551 994 533 1024 q 568 928 568 964 q 551 862 568 892 q 503 814 533 832 q 436 796 474 796 m 436 851 q 490 874 468 851 q 513 928 513 897 q 490 982 513 960 q 436 1004 468 1004 q 383 982 406 1004 q 360 928 360 960 q 383 874 360 897 q 436 851 406 851 z "},"v":{"ha":878,"x_min":92,"x_max":786,"o":"m 410 0 l 92 689 l 174 689 l 439 100 l 444 100 l 706 689 l 786 689 l 468 0 l 410 0 z "},"w":{"ha":878,"x_min":49,"x_max":829,"o":"m 228 0 l 49 689 l 124 689 l 258 129 l 264 129 l 404 689 l 474 689 l 619 132 l 625 132 l 756 689 l 829 689 l 651 0 l 589 0 l 442 581 l 436 581 l 290 0 l 228 0 z "},"ẃ":{"ha":878,"x_min":49,"x_max":829,"o":"m 228 0 l 49 689 l 124 689 l 258 129 l 264 129 l 404 689 l 474 689 l 619 132 l 625 132 l 756 689 l 829 689 l 651 0 l 589 0 l 442 581 l 436 581 l 290 0 l 228 0 m 413 790 l 513 924 q 540 955 528 943 q 569 967 553 967 q 596 956 586 967 q 606 931 606 946 q 594 900 606 913 q 556 861 583 888 l 476 790 l 413 790 z "},"ŵ":{"ha":878,"x_min":49,"x_max":829,"o":"m 228 0 l 49 689 l 124 689 l 258 129 l 264 129 l 404 689 l 474 689 l 619 132 l 625 132 l 756 689 l 829 689 l 651 0 l 589 0 l 442 581 l 436 581 l 290 0 l 228 0 m 267 800 l 378 914 q 408 936 393 929 q 440 943 422 943 q 472 936 457 943 q 500 914 486 929 l 611 800 l 535 800 l 438 883 l 343 800 l 267 800 z "},"ẅ":{"ha":878,"x_min":49,"x_max":829,"o":"m 228 0 l 49 689 l 124 689 l 258 129 l 264 129 l 404 689 l 474 689 l 619 132 l 625 132 l 756 689 l 829 689 l 651 0 l 589 0 l 442 581 l 436 581 l 290 0 l 228 0 m 550 832 q 507 850 525 832 q 489 893 489 868 q 507 936 489 918 q 550 954 525 954 q 593 936 575 954 q 611 893 611 918 q 593 850 611 868 q 550 832 575 832 m 328 832 q 285 850 303 832 q 267 893 267 868 q 285 936 267 918 q 328 954 303 954 q 371 936 353 954 q 389 893 389 918 q 371 850 389 868 q 328 832 353 832 z "},"ẁ":{"ha":878,"x_min":49,"x_max":829,"o":"m 228 0 l 49 689 l 124 689 l 258 129 l 264 129 l 404 689 l 474 689 l 619 132 l 625 132 l 756 689 l 829 689 l 651 0 l 589 0 l 442 581 l 436 581 l 290 0 l 228 0 m 401 790 l 322 861 q 283 900 294 888 q 272 931 272 913 q 282 956 272 946 q 308 967 292 967 q 338 955 325 967 q 365 924 350 943 l 465 790 l 401 790 z "},"x":{"ha":878,"x_min":108,"x_max":771,"o":"m 108 0 l 388 351 l 118 689 l 207 689 l 435 399 l 440 399 l 674 689 l 761 689 l 492 350 l 771 0 l 681 0 l 440 301 l 435 301 l 196 0 l 108 0 z "},"y":{"ha":878,"x_min":92,"x_max":786,"o":"m 136 -225 l 136 -158 l 243 -158 q 312 -144 290 -158 q 356 -82 333 -129 l 401 15 l 92 689 l 174 689 l 439 101 l 444 101 l 706 689 l 786 689 l 419 -104 q 392 -158 406 -135 q 359 -196 378 -181 q 313 -218 340 -211 q 242 -225 285 -225 l 136 -225 z "},"ý":{"ha":878,"x_min":92,"x_max":786,"o":"m 136 -225 l 136 -158 l 243 -158 q 312 -144 290 -158 q 356 -82 333 -129 l 401 15 l 92 689 l 174 689 l 439 101 l 444 101 l 706 689 l 786 689 l 419 -104 q 392 -158 406 -135 q 359 -196 378 -181 q 313 -218 340 -211 q 242 -225 285 -225 l 136 -225 m 413 790 l 513 924 q 540 955 528 943 q 569 967 553 967 q 596 956 586 967 q 606 931 606 946 q 594 900 606 913 q 556 861 583 888 l 476 790 l 413 790 z "},"ŷ":{"ha":878,"x_min":92,"x_max":786,"o":"m 136 -225 l 136 -158 l 243 -158 q 312 -144 290 -158 q 356 -82 333 -129 l 401 15 l 92 689 l 174 689 l 439 101 l 444 101 l 706 689 l 786 689 l 419 -104 q 392 -158 406 -135 q 359 -196 378 -181 q 313 -218 340 -211 q 242 -225 285 -225 l 136 -225 m 267 800 l 378 914 q 408 936 393 929 q 440 943 422 943 q 472 936 457 943 q 500 914 486 929 l 611 800 l 535 800 l 438 883 l 343 800 l 267 800 z "},"ÿ":{"ha":878,"x_min":92,"x_max":786,"o":"m 136 -225 l 136 -158 l 243 -158 q 312 -144 290 -158 q 356 -82 333 -129 l 401 15 l 92 689 l 174 689 l 439 101 l 444 101 l 706 689 l 786 689 l 419 -104 q 392 -158 406 -135 q 359 -196 378 -181 q 313 -218 340 -211 q 242 -225 285 -225 l 136 -225 m 550 832 q 507 850 525 832 q 489 893 489 868 q 507 936 489 918 q 550 954 525 954 q 593 936 575 954 q 611 893 611 918 q 593 850 611 868 q 550 832 575 832 m 328 832 q 285 850 303 832 q 267 893 267 868 q 285 936 267 918 q 328 954 303 954 q 371 936 353 954 q 389 893 389 918 q 371 850 389 868 q 328 832 353 832 z "},"ỳ":{"ha":878,"x_min":92,"x_max":786,"o":"m 136 -225 l 136 -158 l 243 -158 q 312 -144 290 -158 q 356 -82 333 -129 l 401 15 l 92 689 l 174 689 l 439 101 l 444 101 l 706 689 l 786 689 l 419 -104 q 392 -158 406 -135 q 359 -196 378 -181 q 313 -218 340 -211 q 242 -225 285 -225 l 136 -225 m 401 790 l 322 861 q 283 900 294 888 q 272 931 272 913 q 282 956 272 946 q 308 967 292 967 q 338 955 325 967 q 365 924 350 943 l 465 790 l 401 790 z "},"z":{"ha":878,"x_min":146,"x_max":744,"o":"m 146 0 l 146 67 l 639 622 l 157 622 l 157 689 l 732 689 l 732 622 l 239 67 l 744 67 l 744 0 l 146 0 z "},"ź":{"ha":878,"x_min":146,"x_max":744,"o":"m 146 0 l 146 67 l 639 622 l 157 622 l 157 689 l 732 689 l 732 622 l 239 67 l 744 67 l 744 0 l 146 0 m 428 790 l 528 924 q 556 955 543 943 q 585 967 568 967 q 611 956 601 967 q 621 931 621 946 q 610 900 621 913 q 571 861 599 888 l 492 790 l 428 790 z "},"ž":{"ha":878,"x_min":146,"x_max":744,"o":"m 146 0 l 146 67 l 639 622 l 157 622 l 157 689 l 732 689 l 732 622 l 239 67 l 744 67 l 744 0 l 146 0 m 456 792 q 393 821 422 792 l 282 935 l 358 935 l 453 851 l 550 935 l 626 935 l 515 821 q 456 792 486 792 z "},"ż":{"ha":878,"x_min":146,"x_max":744,"o":"m 146 0 l 146 67 l 639 622 l 157 622 l 157 689 l 732 689 l 732 622 l 239 67 l 744 67 l 744 0 l 146 0 m 454 829 q 410 847 429 829 q 392 892 392 865 q 410 936 392 918 q 454 954 429 954 q 498 936 479 954 q 517 892 517 918 q 498 847 517 865 q 454 829 479 829 z "},"ª":{"ha":878,"x_min":233,"x_max":640,"o":"m 386 465 q 274 498 315 465 q 233 594 233 531 q 314 713 233 675 q 556 761 394 751 q 551 825 556 792 q 521 882 546 858 q 438 906 496 906 q 356 885 390 906 q 310 826 321 864 l 251 839 q 315 926 267 890 q 436 963 364 963 q 566 917 514 963 q 618 760 618 871 l 618 618 q 623 529 618 558 q 640 476 628 500 l 575 476 l 556 547 q 483 484 526 503 q 386 465 439 465 m 394 518 q 515 567 475 518 q 554 681 554 617 l 554 708 q 358 672 413 699 q 303 592 303 646 q 325 535 303 553 q 394 518 347 518 z "},"º":{"ha":878,"x_min":219,"x_max":658,"o":"m 438 465 q 332 492 382 465 q 251 574 282 519 q 219 714 219 629 q 251 853 219 797 q 332 935 282 908 q 438 963 382 963 q 544 935 493 963 q 626 853 594 908 q 658 714 658 797 q 626 574 658 629 q 544 492 594 519 q 438 465 493 465 m 438 522 q 547 574 506 522 q 589 714 589 626 q 547 853 589 801 q 438 906 506 906 q 330 853 371 906 q 289 714 289 801 q 330 574 289 626 q 438 522 371 522 z "},"Δ":{"ha":878,"x_min":49,"x_max":829,"o":"m 49 0 l 399 928 l 481 928 l 829 0 l 49 0 m 151 67 l 726 67 l 442 846 l 436 846 l 151 67 z "},"Ω":{"ha":878,"x_min":40,"x_max":838,"o":"m 40 0 l 40 67 l 278 67 l 278 160 q 158 252 210 194 q 79 383 107 310 q 51 533 51 456 q 81 694 51 619 q 165 826 111 769 q 288 913 218 882 q 439 944 358 944 q 590 913 519 944 q 713 826 660 882 q 797 694 767 769 q 826 533 826 619 q 799 383 826 456 q 720 252 771 310 q 600 160 669 194 l 600 67 l 838 67 l 838 0 l 533 0 l 533 204 q 652 275 601 226 q 731 390 703 324 q 760 532 760 457 q 716 708 760 631 q 599 832 672 786 q 439 878 526 878 q 278 832 351 878 q 162 708 206 786 q 118 532 118 631 q 147 390 118 457 q 226 275 175 324 q 344 204 278 226 l 344 0 l 40 0 z "},"μ":{"ha":878,"x_min":179,"x_max":774,"o":"m 179 -225 l 179 689 l 254 689 l 254 258 q 269 150 254 197 q 321 76 285 103 q 419 50 357 50 q 567 117 510 50 q 625 306 625 183 l 625 689 l 700 689 l 700 133 q 710 79 700 94 q 760 64 721 64 l 774 64 l 774 0 l 757 0 q 655 28 681 0 q 625 108 629 56 q 582 51 610 79 q 513 3 554 22 q 413 -17 471 -17 q 313 1 357 -17 q 254 50 268 19 l 254 -225 l 179 -225 z "},"π":{"ha":878,"x_min":101,"x_max":756,"o":"m 200 0 l 200 628 l 101 628 l 101 689 l 756 689 l 756 628 l 642 628 l 642 143 q 654 79 642 92 q 710 67 667 67 l 756 67 l 756 0 l 704 0 q 612 14 642 0 q 574 66 582 28 q 565 176 565 104 l 565 628 l 275 628 l 275 0 l 200 0 z "}," ":{"ha":878,"x_min":0,"x_max":0,"o":""}," ":{"ha":878,"x_min":0,"x_max":0,"o":""}," ":{"ha":878,"x_min":0,"x_max":0,"o":""},".":{"ha":878,"x_min":367,"x_max":511,"o":"m 439 -17 q 403 -7 419 -17 q 376 19 386 3 q 367 56 367 36 q 376 92 367 76 q 403 118 386 108 q 439 128 419 128 q 476 118 460 128 q 501 92 492 108 q 511 56 511 76 q 501 19 511 36 q 476 -7 492 3 q 439 -17 460 -17 z "},",":{"ha":878,"x_min":367,"x_max":513,"o":"m 367 -192 l 435 -17 q 388 6 407 -14 q 368 56 368 26 q 378 92 368 76 q 404 118 388 108 q 440 128 421 128 q 492 107 471 128 q 513 56 513 86 q 511 40 513 50 q 503 15 510 31 l 424 -192 l 367 -192 z "},":":{"ha":878,"x_min":367,"x_max":511,"o":"m 439 -17 q 403 -7 419 -17 q 376 19 386 3 q 367 56 367 36 q 376 92 367 76 q 403 118 386 108 q 439 128 419 128 q 476 118 460 128 q 501 92 492 108 q 511 56 511 76 q 501 19 511 36 q 476 -7 492 3 q 439 -17 460 -17 m 439 563 q 403 572 419 563 q 376 599 386 582 q 367 635 367 615 q 376 672 367 656 q 403 697 386 688 q 439 707 419 707 q 476 697 460 707 q 501 672 492 688 q 511 635 511 656 q 501 599 511 615 q 476 572 492 582 q 439 563 460 563 z "},";":{"ha":878,"x_min":367,"x_max":513,"o":"m 367 -192 l 435 -17 q 388 6 407 -14 q 368 56 368 26 q 378 92 368 76 q 404 118 388 108 q 440 128 421 128 q 492 107 471 128 q 513 56 513 86 q 511 40 513 50 q 503 15 510 31 l 424 -192 l 367 -192 m 440 563 q 404 572 421 563 q 378 599 388 582 q 368 635 368 615 q 378 672 368 656 q 404 697 388 688 q 440 707 421 707 q 477 697 461 707 q 503 672 493 688 q 513 635 513 656 q 503 599 513 615 q 477 572 493 582 q 440 563 461 563 z "},"…":{"ha":878,"x_min":75,"x_max":803,"o":"m 147 -17 q 96 4 117 -17 q 75 56 75 25 q 96 107 75 86 q 147 128 117 128 q 199 107 178 128 q 219 56 219 86 q 199 4 219 25 q 147 -17 178 -17 m 439 -17 q 388 4 408 -17 q 367 56 367 25 q 388 107 367 86 q 439 128 408 128 q 490 107 469 128 q 511 56 511 86 q 490 4 511 25 q 439 -17 469 -17 m 731 -17 q 679 4 700 -17 q 658 56 658 25 q 679 107 658 86 q 731 128 700 128 q 782 107 761 128 q 803 56 803 86 q 782 4 803 25 q 731 -17 761 -17 z "},"!":{"ha":878,"x_min":374,"x_max":504,"o":"m 418 236 l 401 690 l 401 928 l 476 928 l 476 690 l 460 236 l 418 236 m 439 -17 q 393 3 413 -17 q 374 49 374 22 q 393 95 374 76 q 439 114 413 114 q 485 95 467 114 q 504 49 504 76 q 485 3 504 22 q 439 -17 467 -17 z "},"¡":{"ha":878,"x_min":374,"x_max":504,"o":"m 401 -236 l 401 1 l 418 456 l 460 456 l 476 1 l 476 -236 l 401 -236 m 439 578 q 393 597 413 578 q 374 643 374 617 q 393 690 374 671 q 439 708 413 708 q 485 690 467 708 q 504 643 504 671 q 485 597 504 617 q 439 578 467 578 z "},"?":{"ha":878,"x_min":186,"x_max":718,"o":"m 378 225 l 378 281 q 389 369 378 333 q 428 438 400 406 q 511 510 457 469 q 608 607 574 557 q 643 718 643 657 q 590 835 643 793 q 456 878 536 878 q 346 850 388 878 q 284 783 304 822 q 260 707 264 743 l 186 719 q 231 838 194 788 q 327 916 268 888 q 458 944 386 944 q 581 919 522 944 q 679 844 640 894 q 718 718 718 794 q 699 619 718 663 q 640 534 679 575 q 542 444 600 493 q 482 390 501 411 q 458 346 463 368 q 453 286 453 324 l 453 225 l 378 225 m 415 -17 q 369 3 389 -17 q 350 49 350 22 q 369 95 350 76 q 415 114 389 114 q 462 95 443 114 q 481 49 481 76 q 462 3 481 22 q 415 -17 443 -17 z "},"¿":{"ha":878,"x_min":160,"x_max":692,"o":"m 419 -253 q 297 -228 357 -253 q 199 -152 238 -203 q 160 -26 160 -101 q 180 74 160 31 q 239 158 200 117 q 336 247 278 199 q 397 303 378 282 q 420 347 415 324 q 425 406 425 369 l 425 467 l 500 467 l 500 411 q 490 323 500 360 q 450 254 479 286 q 367 182 421 222 q 269 85 304 135 q 235 -26 235 35 q 288 -144 235 -101 q 422 -186 342 -186 q 532 -158 490 -186 q 594 -90 574 -131 q 618 -15 615 -50 l 692 -28 q 647 -145 685 -94 q 551 -224 610 -196 q 419 -253 492 -253 m 463 578 q 417 597 436 578 q 397 643 397 617 q 417 690 397 671 q 463 708 436 708 q 509 690 490 708 q 528 643 528 671 q 509 597 528 617 q 463 578 490 578 z "},"·":{"ha":878,"x_min":367,"x_max":511,"o":"m 439 279 q 403 289 419 279 q 376 315 386 299 q 367 351 367 332 q 376 388 367 372 q 403 414 386 404 q 439 424 419 424 q 476 414 460 424 q 501 388 492 404 q 511 351 511 372 q 501 315 511 332 q 476 289 492 299 q 439 279 460 279 z "},"•":{"ha":878,"x_min":208,"x_max":669,"o":"m 439 122 q 323 153 375 122 q 240 238 271 185 q 208 353 208 290 q 240 469 208 417 q 323 552 271 521 q 439 583 375 583 q 555 552 503 583 q 638 469 607 521 q 669 353 669 417 q 638 238 669 290 q 555 153 607 185 q 439 122 503 122 z "},"*":{"ha":878,"x_min":196,"x_max":683,"o":"m 322 464 l 272 500 l 392 665 l 196 724 l 214 783 l 410 721 l 410 925 l 469 925 l 469 721 l 665 783 l 683 724 l 488 665 l 610 500 l 561 464 l 439 626 l 322 464 z "},"#":{"ha":878,"x_min":53,"x_max":825,"o":"m 185 0 l 222 275 l 53 275 l 63 335 l 229 335 l 264 593 l 96 593 l 106 653 l 272 653 l 310 928 l 375 928 l 338 653 l 592 653 l 629 928 l 694 928 l 657 653 l 825 653 l 815 593 l 650 593 l 615 335 l 782 335 l 772 275 l 607 275 l 569 0 l 504 0 l 542 275 l 288 275 l 250 0 l 185 0 m 294 335 l 550 335 l 585 593 l 329 593 l 294 335 z "},"/":{"ha":878,"x_min":83,"x_max":794,"o":"m 83 -125 l 721 983 l 794 983 l 157 -125 l 83 -125 z "},"\\":{"ha":878,"x_min":83,"x_max":794,"o":"m 794 -125 l 721 -125 l 83 983 l 157 983 l 794 -125 z "},"-":{"ha":878,"x_min":249,"x_max":629,"o":"m 249 307 l 249 383 l 629 383 l 629 307 l 249 307 z "},"–":{"ha":878,"x_min":146,"x_max":732,"o":"m 146 306 l 146 379 l 732 379 l 732 306 l 146 306 z "},"—":{"ha":878,"x_min":49,"x_max":829,"o":"m 49 306 l 49 379 l 829 379 l 829 306 l 49 306 z "},"_":{"ha":878,"x_min":-3,"x_max":881,"o":"m -3 -74 l -3 0 l 881 0 l 881 -74 l -3 -74 z "},"(":{"ha":878,"x_min":271,"x_max":669,"o":"m 569 -225 q 349 59 426 -99 q 271 379 271 217 q 349 699 271 542 q 569 983 426 857 l 669 983 q 431 695 515 851 q 347 379 347 539 q 431 63 347 219 q 669 -225 515 -93 l 569 -225 z "},")":{"ha":878,"x_min":208,"x_max":607,"o":"m 208 -225 q 447 63 363 -93 q 531 379 531 219 q 447 695 531 539 q 208 983 363 851 l 308 983 q 530 699 453 857 q 607 379 607 542 q 530 59 607 217 q 308 -225 453 -99 l 208 -225 z "},"{":{"ha":878,"x_min":210,"x_max":651,"o":"m 481 -225 q 390 -212 419 -225 q 351 -170 360 -199 q 342 -96 342 -142 l 342 219 q 316 319 342 292 q 210 350 290 347 l 210 408 q 316 439 290 411 q 342 539 342 467 l 342 854 q 351 928 342 900 q 390 970 360 957 q 481 983 419 983 l 651 983 l 651 925 l 474 925 q 428 913 440 925 q 415 869 415 900 l 415 558 q 392 435 415 474 q 322 383 369 397 l 322 375 q 392 324 369 361 q 415 200 415 286 l 415 -111 q 428 -154 415 -142 q 474 -167 440 -167 l 651 -167 l 651 -225 l 481 -225 z "},"}":{"ha":878,"x_min":226,"x_max":668,"o":"m 226 -225 l 226 -167 l 404 -167 q 450 -154 438 -167 q 463 -111 463 -142 l 463 200 q 485 324 463 286 q 556 375 508 361 l 556 383 q 485 435 508 397 q 463 558 463 474 l 463 869 q 450 913 463 900 q 404 925 438 925 l 226 925 l 226 983 l 397 983 q 489 970 460 983 q 527 928 518 957 q 536 854 536 900 l 536 539 q 562 439 536 467 q 668 408 588 411 l 668 350 q 562 319 588 347 q 536 219 536 292 l 536 -96 q 527 -170 536 -142 q 489 -212 518 -199 q 397 -225 460 -225 l 226 -225 z "},"[":{"ha":878,"x_min":294,"x_max":651,"o":"m 294 -225 l 294 983 l 651 983 l 651 928 l 369 928 l 369 -169 l 651 -169 l 651 -225 l 294 -225 z "},"]":{"ha":878,"x_min":226,"x_max":583,"o":"m 226 -225 l 226 -169 l 508 -169 l 508 928 l 226 928 l 226 983 l 583 983 l 583 -225 l 226 -225 z "},"‚":{"ha":878,"x_min":367,"x_max":513,"o":"m 367 -192 l 435 -17 q 388 6 407 -14 q 368 56 368 26 q 378 92 368 76 q 404 118 388 108 q 440 128 421 128 q 492 107 471 128 q 513 56 513 86 q 511 40 513 50 q 503 15 510 31 l 424 -192 l 367 -192 z "},"„":{"ha":878,"x_min":244,"x_max":633,"o":"m 244 -192 l 313 -17 q 265 6 285 -14 q 246 56 246 26 q 256 92 246 76 q 282 118 265 108 q 318 128 299 128 q 369 107 349 128 q 390 56 390 86 q 389 40 390 50 q 381 15 388 31 l 301 -192 l 244 -192 m 488 -192 l 556 -17 q 508 6 528 -14 q 489 56 489 26 q 499 92 489 76 q 525 118 508 108 q 561 128 542 128 q 613 107 592 128 q 633 56 633 86 q 632 40 633 50 q 624 15 631 31 l 544 -192 l 488 -192 z "},"“":{"ha":878,"x_min":244,"x_max":633,"o":"m 560 608 q 508 629 529 608 q 488 681 488 650 q 490 697 488 688 q 497 721 492 706 l 576 928 l 633 928 l 565 753 q 613 731 593 751 q 632 681 632 710 q 622 644 632 661 q 597 618 613 628 q 560 608 581 608 m 317 608 q 265 629 286 608 q 244 681 244 650 q 247 697 244 688 q 254 721 249 706 l 333 928 l 390 928 l 322 753 q 369 731 350 751 q 389 681 389 710 q 379 644 389 661 q 353 618 369 628 q 317 608 338 608 z "},"”":{"ha":878,"x_min":244,"x_max":633,"o":"m 488 625 l 556 800 q 508 823 528 803 q 489 872 489 843 q 499 909 489 893 q 525 935 508 925 q 561 944 542 944 q 613 924 592 944 q 633 872 633 903 q 632 857 633 867 q 624 832 631 847 l 544 625 l 488 625 m 244 625 l 313 800 q 265 823 285 803 q 246 872 246 843 q 256 909 246 893 q 282 935 265 925 q 318 944 299 944 q 369 924 349 944 q 390 872 390 903 q 389 857 390 867 q 381 832 388 847 l 301 625 l 244 625 z "},"‘":{"ha":878,"x_min":365,"x_max":511,"o":"m 438 625 q 386 646 407 625 q 365 697 365 667 q 367 713 365 704 q 375 738 369 722 l 454 944 l 511 944 l 443 769 q 490 747 471 768 q 510 697 510 726 q 500 661 510 678 q 474 635 490 644 q 438 625 458 625 z "},"’":{"ha":878,"x_min":367,"x_max":513,"o":"m 367 625 l 435 800 q 388 823 407 803 q 368 872 368 843 q 378 909 368 893 q 404 935 388 925 q 440 944 421 944 q 492 924 471 944 q 513 872 513 903 q 511 857 513 867 q 503 832 510 847 l 424 625 l 367 625 z "},"«":{"ha":878,"x_min":161,"x_max":717,"o":"m 633 56 l 428 347 l 633 639 l 717 639 l 511 347 l 717 56 l 633 56 m 367 56 l 161 347 l 367 639 l 450 639 l 244 347 l 450 56 l 367 56 z "},"»":{"ha":878,"x_min":161,"x_max":717,"o":"m 428 56 l 633 347 l 428 639 l 511 639 l 717 347 l 511 56 l 428 56 m 161 56 l 367 347 l 161 639 l 244 639 l 450 347 l 244 56 l 161 56 z "},"‹":{"ha":878,"x_min":294,"x_max":583,"o":"m 500 56 l 294 347 l 500 639 l 583 639 l 378 347 l 583 56 l 500 56 z "},"›":{"ha":878,"x_min":294,"x_max":583,"o":"m 294 56 l 500 347 l 294 639 l 378 639 l 583 347 l 378 56 l 294 56 z "},"\"":{"ha":878,"x_min":285,"x_max":593,"o":"m 308 600 l 285 928 l 364 928 l 340 600 l 308 600 m 538 600 l 514 928 l 593 928 l 569 600 l 538 600 z "},"'":{"ha":878,"x_min":400,"x_max":479,"o":"m 424 600 l 400 928 l 479 928 l 456 600 l 424 600 z "},"ƒ":{"ha":878,"x_min":135,"x_max":743,"o":"m 217 -239 q 170 -235 193 -239 q 135 -225 147 -231 l 135 -158 q 172 -172 146 -165 q 229 -179 199 -179 q 322 -154 285 -179 q 379 -82 360 -129 q 399 32 399 -35 l 399 632 l 142 632 l 142 689 l 399 689 l 399 786 q 406 890 399 851 q 442 947 413 929 q 540 964 472 964 l 743 964 l 743 901 l 525 901 q 476 881 486 901 q 465 799 465 860 l 465 689 l 743 689 l 743 632 l 465 632 l 465 68 q 444 -93 465 -32 q 385 -185 422 -154 q 305 -228 349 -217 q 217 -239 261 -239 z "},"♪":{"ha":878,"x_min":135,"x_max":742,"o":"m 271 -14 q 202 5 233 -14 q 153 56 171 24 q 135 126 135 88 q 153 197 135 165 q 204 248 172 229 q 275 267 236 267 q 376 222 339 267 l 367 215 l 367 928 l 415 928 q 440 844 419 881 q 497 775 461 808 q 581 703 532 742 q 659 633 622 669 q 719 554 696 597 q 742 456 742 511 q 727 390 742 429 q 681 310 713 351 l 676 311 q 626 453 665 393 q 527 556 586 514 q 397 618 468 597 l 415 644 l 415 154 q 396 61 415 99 q 344 5 376 24 q 271 -14 311 -14 z "},"@":{"ha":878,"x_min":21,"x_max":857,"o":"m 453 -129 q 294 -99 371 -129 q 155 -8 217 -68 q 57 144 93 53 q 21 357 21 235 q 76 608 21 501 q 227 775 131 715 q 447 835 324 835 q 586 812 514 835 q 719 738 658 789 q 819 603 781 688 q 857 399 857 519 q 831 231 857 294 q 763 138 804 167 q 676 108 722 108 q 601 133 633 108 q 557 192 569 158 q 487 123 528 142 q 403 104 446 104 q 319 129 360 104 q 253 205 279 154 q 228 329 228 256 q 263 495 228 433 q 353 584 297 557 q 468 611 408 611 q 541 603 504 611 q 613 583 578 596 l 613 261 q 635 190 613 210 q 686 171 658 171 q 749 207 725 171 q 783 296 772 243 q 794 399 794 349 q 751 595 794 511 q 631 725 708 679 q 447 771 553 771 q 262 722 343 771 q 134 579 181 672 q 88 356 88 486 q 137 120 88 214 q 268 -19 186 26 q 447 -65 350 -65 q 533 -53 489 -65 q 617 -17 578 -42 l 617 -90 q 453 -129 538 -129 m 413 164 q 503 209 464 164 q 542 319 542 254 l 542 538 q 507 546 524 544 q 468 547 490 547 q 392 529 432 547 q 325 464 353 511 q 297 328 297 417 q 333 205 297 246 q 413 164 369 164 z "},"&":{"ha":878,"x_min":31,"x_max":857,"o":"m 318 -15 q 167 16 232 -15 q 66 106 101 47 q 31 244 31 164 q 64 373 31 318 q 155 468 97 428 q 282 538 213 508 q 206 638 239 585 q 174 747 174 690 q 201 848 174 803 q 276 919 228 893 q 386 946 324 946 q 484 926 436 946 q 563 864 532 907 q 594 750 594 821 q 565 645 594 690 q 489 569 535 600 q 396 517 443 538 l 618 268 q 642 360 633 311 q 651 472 650 410 l 726 472 q 713 330 726 396 q 671 208 699 264 l 857 0 l 760 0 l 632 144 q 498 27 578 69 q 318 -15 418 -15 m 318 51 q 475 90 408 51 q 583 197 542 129 l 325 489 q 168 392 231 447 q 106 249 106 336 q 136 138 106 182 q 215 73 167 94 q 318 51 264 51 m 356 563 q 474 635 426 589 q 522 749 522 681 q 480 849 522 817 q 386 882 438 882 q 286 845 325 882 q 247 751 247 808 q 278 658 247 700 q 356 563 308 615 z "},"¶":{"ha":878,"x_min":140,"x_max":751,"o":"m 394 -225 l 394 406 q 206 496 272 424 q 140 665 140 568 q 178 797 140 738 q 283 892 215 857 q 444 928 351 928 l 751 928 l 751 863 l 701 863 l 701 -225 l 628 -225 l 628 863 l 468 863 l 468 -225 l 394 -225 z "},"§":{"ha":878,"x_min":135,"x_max":743,"o":"m 435 -240 q 269 -195 338 -240 q 179 -68 201 -150 l 260 -51 q 315 -143 275 -108 q 435 -178 354 -178 q 554 -142 507 -178 q 601 -57 601 -107 q 589 -8 601 -31 q 543 38 576 14 q 446 97 510 63 l 314 169 q 176 269 217 222 q 135 388 135 317 q 182 501 135 451 q 322 590 229 551 q 232 673 256 635 q 208 758 208 711 q 242 857 208 815 q 329 922 275 899 q 443 944 383 944 q 609 899 542 944 q 699 772 676 854 l 618 756 q 564 847 604 813 q 443 882 524 882 q 324 847 371 882 q 276 761 276 811 q 289 713 276 735 q 335 667 301 692 q 432 607 368 642 l 564 535 q 703 435 663 482 q 743 317 743 388 q 696 203 743 253 q 556 114 649 153 q 646 32 622 71 q 669 -54 669 -7 q 636 -153 669 -111 q 549 -217 603 -194 q 435 -240 496 -240 m 500 147 q 624 217 574 176 q 675 311 675 258 q 636 400 675 364 q 519 479 597 436 l 378 557 q 254 487 306 528 q 203 393 203 446 q 242 304 203 340 q 358 225 281 268 l 500 147 z "},"©":{"ha":878,"x_min":28,"x_max":850,"o":"m 439 -18 q 270 19 346 -18 q 140 123 194 57 q 57 276 86 189 q 28 464 28 364 q 57 651 28 564 q 140 805 86 739 q 270 908 194 871 q 439 946 346 946 q 608 908 532 946 q 738 805 683 871 q 821 651 792 739 q 850 464 850 564 q 821 276 850 364 q 738 123 792 189 q 608 19 683 57 q 439 -18 532 -18 m 446 199 q 292 269 351 199 q 233 465 233 339 q 294 662 233 593 q 447 731 354 731 q 556 694 517 731 q 613 619 594 658 l 543 592 q 500 651 525 633 q 443 668 475 668 q 351 618 390 668 q 313 465 313 568 q 351 314 313 367 q 442 261 390 261 q 506 278 482 261 q 547 338 529 296 l 617 310 q 583 260 604 286 q 530 217 563 235 q 446 199 497 199 m 439 49 q 620 105 543 49 q 740 256 697 161 q 782 464 782 350 q 740 673 782 579 q 620 823 697 767 q 439 879 543 879 q 258 823 335 879 q 138 673 181 767 q 96 464 96 579 q 138 256 96 350 q 258 105 181 161 q 439 49 335 49 z "},"®":{"ha":878,"x_min":28,"x_max":850,"o":"m 439 -18 q 270 19 346 -18 q 140 123 194 57 q 57 276 86 189 q 28 464 28 364 q 57 651 28 564 q 140 805 86 739 q 270 908 194 871 q 439 946 346 946 q 608 908 532 946 q 738 805 683 871 q 821 651 792 739 q 850 464 850 564 q 821 276 850 364 q 738 123 792 189 q 608 19 683 57 q 439 -18 532 -18 m 439 49 q 620 105 543 49 q 740 256 697 161 q 782 464 782 350 q 740 673 782 579 q 620 823 697 767 q 439 879 543 879 q 258 823 335 879 q 138 673 181 767 q 96 464 96 579 q 138 256 96 350 q 258 105 181 161 q 439 49 335 49 m 289 225 l 289 735 l 442 735 q 535 715 497 735 q 594 661 574 696 q 614 579 614 626 q 590 491 614 531 q 510 432 565 451 l 638 225 l 551 225 l 433 419 l 364 419 l 364 225 l 289 225 m 364 482 l 438 482 q 512 507 488 482 q 536 579 536 532 q 508 653 536 632 q 431 674 479 674 l 364 674 l 364 482 z "},"™":{"ha":878,"x_min":17,"x_max":860,"o":"m 143 476 l 143 876 l 17 876 l 17 928 l 331 928 l 331 876 l 204 876 l 204 476 l 143 476 m 403 476 l 403 928 l 493 928 l 629 551 l 635 551 l 768 928 l 860 928 l 860 476 l 799 476 l 799 853 l 793 853 l 660 476 l 603 476 l 467 853 l 461 853 l 461 476 l 403 476 z "},"°":{"ha":878,"x_min":269,"x_max":608,"o":"m 439 607 q 354 630 393 607 q 292 691 315 653 q 269 775 269 729 q 292 861 269 822 q 354 923 315 900 q 439 946 393 946 q 524 923 486 946 q 585 861 563 900 q 608 775 608 822 q 585 691 608 729 q 524 630 563 653 q 439 607 486 607 m 439 665 q 517 698 485 665 q 549 775 549 731 q 517 853 549 822 q 439 885 485 885 q 362 853 394 885 q 329 775 329 822 q 362 698 329 731 q 439 665 394 665 z "},"|":{"ha":878,"x_min":401,"x_max":476,"o":"m 401 -225 l 401 1164 l 476 1164 l 476 -225 l 401 -225 z "},"¦":{"ha":878,"x_min":401,"x_max":476,"o":"m 401 -225 l 401 324 l 476 324 l 476 -225 l 401 -225 m 401 615 l 401 1164 l 476 1164 l 476 615 l 401 615 z "},"†":{"ha":878,"x_min":140,"x_max":738,"o":"m 403 0 l 403 618 l 140 618 l 140 689 l 403 689 l 403 928 l 476 928 l 476 689 l 738 689 l 738 618 l 476 618 l 476 0 l 403 0 z "},"‡":{"ha":878,"x_min":138,"x_max":740,"o":"m 407 0 l 407 238 l 138 238 l 138 321 l 407 321 l 407 604 l 138 604 l 138 689 l 407 689 l 407 928 l 472 928 l 472 689 l 740 689 l 740 604 l 472 604 l 472 321 l 740 321 l 740 238 l 472 238 l 472 0 l 407 0 z "},"℮":{"ha":878,"x_min":82,"x_max":794,"o":"m 438 -17 q 318 4 381 -17 q 202 70 256 25 q 115 188 149 115 q 82 361 82 260 q 106 474 82 415 q 177 583 131 532 q 289 665 224 633 q 438 696 354 696 q 617 648 536 696 q 746 520 697 600 q 794 343 794 440 l 207 343 l 207 89 q 311 24 253 47 q 438 0 369 0 q 580 31 515 0 q 690 113 644 61 l 711 110 q 592 17 663 51 q 438 -17 521 -17 m 207 361 l 671 361 l 671 588 q 565 655 625 631 q 438 679 506 679 q 311 655 369 679 q 207 588 253 631 l 207 361 z "},"¢":{"ha":878,"x_min":169,"x_max":731,"o":"m 429 -125 l 429 -14 q 290 47 349 -4 q 201 176 232 99 q 169 340 169 253 q 203 507 169 431 q 294 633 236 583 q 429 694 353 683 l 429 814 l 481 814 l 481 697 q 597 674 549 696 q 676 619 644 651 q 725 556 707 586 l 656 529 q 588 597 631 569 q 481 628 544 625 l 481 53 q 590 88 544 57 q 658 158 635 118 l 731 132 q 639 35 701 81 q 481 -17 576 -11 l 481 -125 l 429 -125 m 429 57 l 429 624 q 341 577 382 613 q 274 483 300 542 q 249 343 249 424 q 298 152 249 232 q 429 57 347 72 z "},"¤":{"ha":878,"x_min":115,"x_max":763,"o":"m 154 124 l 115 160 l 206 250 q 155 340 174 290 q 136 446 136 389 q 155 553 136 503 q 206 642 174 603 l 115 732 l 154 768 l 244 679 q 334 729 285 711 q 439 747 383 747 q 544 729 494 747 q 633 679 594 711 l 724 768 l 763 732 l 672 642 q 723 553 704 603 q 742 446 742 503 q 723 340 742 389 q 672 250 704 290 l 763 160 l 724 124 l 633 213 q 544 163 594 181 q 439 144 494 144 q 334 163 383 144 q 244 213 285 181 l 154 124 m 439 215 q 555 247 503 215 q 638 330 607 278 q 668 446 668 382 q 638 562 668 510 q 555 645 607 614 q 439 676 503 676 q 323 645 375 676 q 240 562 271 614 q 210 446 210 510 q 240 330 210 382 q 323 247 271 278 q 439 215 375 215 z "},"$":{"ha":878,"x_min":101,"x_max":778,"o":"m 401 -125 l 401 -15 q 280 13 342 -11 q 170 81 218 36 q 101 194 122 126 l 174 222 q 261 99 197 142 q 401 49 325 57 l 401 458 l 356 469 q 237 513 289 486 q 154 585 185 540 q 124 699 124 631 q 159 818 124 765 q 258 904 194 871 q 401 943 321 938 l 401 1053 l 454 1053 l 454 944 q 569 925 514 943 q 669 873 625 907 q 740 786 714 839 l 667 757 q 576 845 638 814 q 454 881 515 876 l 454 518 l 506 506 q 652 454 592 485 q 745 376 713 424 q 778 251 778 328 q 734 114 778 172 q 617 22 690 56 q 454 -17 543 -12 l 454 -125 l 401 -125 m 454 47 q 631 105 560 51 q 701 256 701 158 q 654 364 701 322 q 488 436 607 406 l 454 444 l 454 47 m 401 532 l 401 879 q 259 826 318 871 q 200 697 200 781 q 247 597 200 638 q 371 539 294 557 l 401 532 z "},"€":{"ha":878,"x_min":39,"x_max":824,"o":"m 504 -18 q 333 27 406 -18 q 217 153 261 72 q 157 340 174 233 l 39 340 l 67 394 l 151 394 q 149 463 149 429 q 151 532 149 497 l 39 532 l 67 586 l 158 586 q 231 786 178 706 q 357 908 283 867 q 513 949 431 949 q 694 894 611 949 q 819 736 776 840 l 753 711 q 666 833 725 783 q 510 882 607 882 q 326 810 401 882 q 229 586 251 739 l 601 586 l 574 532 l 224 532 q 224 394 218 464 l 514 394 l 486 340 l 232 340 q 283 192 247 258 q 376 87 319 125 q 507 49 432 49 q 667 98 607 49 q 758 215 728 147 l 824 190 q 696 33 781 85 q 504 -18 611 -18 z "},"£":{"ha":878,"x_min":143,"x_max":771,"o":"m 171 -14 l 146 40 q 195 72 165 50 q 256 128 225 94 q 308 204 288 161 q 329 297 329 247 q 322 370 329 329 q 296 458 314 411 l 143 458 l 143 513 l 269 513 q 226 619 243 572 q 208 715 208 667 q 242 840 208 789 q 337 919 276 892 q 478 946 397 946 q 667 894 593 946 q 760 756 740 842 l 676 739 q 606 847 657 815 q 482 879 556 879 q 395 867 442 879 q 316 820 349 854 q 283 719 283 786 q 303 622 283 671 q 349 513 324 572 l 649 513 l 649 458 l 374 458 q 398 371 393 406 q 403 310 403 336 q 376 179 403 231 q 296 94 349 128 q 324 103 311 101 q 349 104 338 104 q 432 90 392 104 q 517 63 472 76 q 618 49 563 49 q 672 56 646 49 q 750 81 699 63 l 771 21 q 681 -9 715 -1 q 622 -17 646 -17 q 527 -3 569 -17 q 443 24 485 10 q 347 38 401 38 q 264 26 304 38 q 171 -14 224 14 z "},"¥":{"ha":878,"x_min":74,"x_max":804,"o":"m 399 0 l 399 128 l 174 128 l 174 182 l 399 182 l 399 318 l 174 318 l 174 372 l 389 372 l 74 928 l 157 928 l 438 431 l 443 431 l 722 928 l 804 928 l 490 372 l 703 372 l 703 318 l 482 318 l 482 182 l 703 182 l 703 128 l 482 128 l 482 0 l 399 0 z "},"∙":{"ha":878,"x_min":367,"x_max":511,"o":"m 439 293 q 403 303 419 293 q 376 329 386 313 q 367 365 367 346 q 376 402 367 386 q 403 428 386 418 q 439 438 419 438 q 476 428 460 438 q 501 402 492 418 q 511 365 511 386 q 501 329 511 346 q 476 303 492 313 q 439 293 460 293 z "},"∕":{"ha":878,"x_min":64,"x_max":814,"o":"m 64 0 l 714 928 l 814 928 l 164 0 l 64 0 z "},"+":{"ha":878,"x_min":94,"x_max":783,"o":"m 404 0 l 404 310 l 94 310 l 94 379 l 404 379 l 404 689 l 474 689 l 474 379 l 783 379 l 783 310 l 474 310 l 474 0 l 404 0 z "},"−":{"ha":878,"x_min":94,"x_max":783,"o":"m 94 313 l 94 382 l 783 382 l 783 313 l 94 313 z "},"×":{"ha":878,"x_min":157,"x_max":721,"o":"m 206 63 l 157 111 l 390 344 l 157 578 l 206 626 l 439 393 l 672 626 l 721 578 l 488 344 l 721 111 l 672 63 l 439 296 l 206 63 z "},"÷":{"ha":878,"x_min":94,"x_max":783,"o":"m 94 310 l 94 379 l 783 379 l 783 310 l 94 310 m 439 39 q 383 62 406 39 q 360 118 360 85 q 383 173 360 150 q 439 196 406 196 q 494 173 472 196 q 517 118 517 150 q 494 62 517 85 q 439 39 472 39 m 439 494 q 383 516 406 494 q 360 571 360 538 q 383 628 360 604 q 439 651 406 651 q 494 628 472 651 q 517 571 517 604 q 494 516 517 538 q 439 494 472 494 z "},"=":{"ha":878,"x_min":94,"x_max":783,"o":"m 94 438 l 94 507 l 783 507 l 783 438 l 94 438 m 94 188 l 94 257 l 783 257 l 783 188 l 94 188 z "},"≠":{"ha":878,"x_min":94,"x_max":783,"o":"m 154 0 l 286 188 l 94 188 l 94 257 l 335 257 l 461 438 l 94 438 l 94 507 l 510 507 l 638 689 l 722 689 l 594 507 l 783 507 l 783 438 l 546 438 l 419 257 l 783 257 l 783 188 l 371 188 l 240 0 l 154 0 z "},">":{"ha":878,"x_min":118,"x_max":760,"o":"m 118 13 l 118 96 l 661 343 l 118 592 l 118 675 l 760 378 l 760 310 l 118 13 z "},"<":{"ha":878,"x_min":118,"x_max":760,"o":"m 760 13 l 118 310 l 118 378 l 760 675 l 760 592 l 217 343 l 760 96 l 760 13 z "},"≥":{"ha":878,"x_min":125,"x_max":753,"o":"m 125 139 l 125 222 l 644 403 l 125 586 l 125 671 l 753 439 l 753 369 l 125 139 m 125 0 l 125 74 l 753 74 l 753 0 l 125 0 z "},"≤":{"ha":878,"x_min":125,"x_max":753,"o":"m 753 139 l 125 369 l 125 439 l 753 671 l 753 586 l 233 403 l 753 222 l 753 139 m 125 0 l 125 74 l 753 74 l 753 0 l 125 0 z "},"±":{"ha":878,"x_min":108,"x_max":769,"o":"m 404 139 l 404 379 l 108 379 l 108 449 l 404 449 l 404 689 l 474 689 l 474 449 l 769 449 l 769 379 l 474 379 l 474 139 l 404 139 m 108 0 l 108 74 l 769 74 l 769 0 l 108 0 z "},"≈":{"ha":878,"x_min":104,"x_max":774,"o":"m 172 143 l 104 157 q 154 268 114 225 q 275 311 194 311 q 360 297 317 311 q 447 266 404 283 q 531 235 490 249 q 607 221 572 221 q 676 247 653 221 q 706 319 700 272 l 774 306 q 724 194 764 238 q 603 151 683 151 q 517 165 561 151 q 431 197 474 179 q 347 228 388 214 q 271 242 306 242 q 201 216 225 242 q 172 143 178 190 m 172 401 l 104 415 q 154 526 114 483 q 275 569 194 569 q 360 556 317 569 q 447 524 404 542 q 531 493 490 507 q 607 479 572 479 q 676 505 653 479 q 706 578 700 531 l 774 564 q 724 453 764 496 q 603 410 683 410 q 517 424 561 410 q 431 455 474 438 q 347 486 388 472 q 271 500 306 500 q 201 474 225 500 q 172 401 178 449 z "},"¬":{"ha":878,"x_min":100,"x_max":778,"o":"m 699 150 l 699 457 l 100 457 l 100 531 l 778 531 l 778 150 l 699 150 z "},"~":{"ha":878,"x_min":103,"x_max":772,"o":"m 171 272 l 103 286 q 153 397 113 354 q 274 440 193 440 q 359 426 315 440 q 446 395 403 413 q 530 364 489 378 q 606 350 571 350 q 675 376 651 350 q 704 449 699 401 l 772 435 q 722 324 763 367 q 601 281 682 281 q 516 294 560 281 q 429 326 472 308 q 345 357 386 343 q 269 371 304 371 q 200 345 224 371 q 171 272 176 319 z "},"^":{"ha":878,"x_min":143,"x_max":735,"o":"m 143 432 l 401 928 l 476 928 l 735 432 l 654 432 l 439 851 l 224 432 l 143 432 z "},"∞":{"ha":878,"x_min":18,"x_max":860,"o":"m 207 153 q 66 210 114 153 q 18 356 18 268 q 66 501 18 443 q 207 558 114 558 q 331 516 276 558 q 439 415 385 474 q 547 516 493 474 q 671 558 601 558 q 812 501 764 558 q 860 356 860 443 q 812 210 860 268 q 671 153 764 153 q 547 195 601 153 q 439 296 493 238 q 331 195 385 238 q 207 153 276 153 m 207 221 q 265 231 239 221 q 321 271 290 242 q 397 356 351 300 q 321 440 351 411 q 265 480 290 469 q 207 490 239 490 q 119 450 153 490 q 86 356 86 410 q 119 261 86 301 q 207 221 153 221 m 671 221 q 758 261 725 221 q 792 356 792 301 q 758 450 792 410 q 671 490 725 490 q 614 480 640 490 q 557 440 588 469 q 481 356 526 411 q 557 271 526 300 q 614 231 588 242 q 671 221 640 221 z "},"∫":{"ha":878,"x_min":214,"x_max":665,"o":"m 317 -239 q 241 -217 268 -239 q 214 -165 214 -196 q 231 -122 214 -140 q 278 -104 249 -104 q 326 -122 308 -104 q 344 -171 344 -140 q 340 -193 344 -182 q 364 -182 351 -192 q 387 -143 376 -172 q 397 -57 397 -114 l 403 700 q 426 858 404 806 q 485 929 449 911 q 563 947 521 947 q 638 926 611 947 q 665 874 665 904 q 648 831 665 849 q 601 813 631 813 q 553 831 571 813 q 535 879 535 849 q 539 901 535 892 q 516 891 529 901 q 493 851 503 881 q 482 765 483 822 l 476 8 q 454 -149 476 -96 q 396 -221 432 -203 q 317 -239 360 -239 z "},"∏":{"ha":878,"x_min":126,"x_max":751,"o":"m 126 -225 l 126 928 l 751 928 l 751 -225 l 672 -225 l 672 842 l 204 842 l 204 -225 l 126 -225 z "},"∑":{"ha":878,"x_min":125,"x_max":753,"o":"m 125 -225 l 125 -147 l 472 351 l 125 850 l 125 928 l 753 928 l 753 850 l 215 850 l 560 351 l 215 -147 l 753 -147 l 753 -225 l 125 -225 z "},"√":{"ha":878,"x_min":97,"x_max":836,"o":"m 411 -225 l 218 240 l 97 240 l 97 313 l 275 313 l 457 -126 l 754 928 l 836 928 l 506 -225 l 411 -225 z "},"∂":{"ha":878,"x_min":121,"x_max":757,"o":"m 444 -17 q 334 3 390 -17 q 229 66 278 24 q 151 176 181 108 q 121 342 121 244 q 149 505 121 438 q 224 614 178 572 q 326 675 271 656 q 435 694 382 694 q 586 654 521 694 q 678 540 651 614 q 619 710 667 643 q 505 815 572 778 q 364 865 438 851 q 228 874 290 878 l 228 944 q 463 911 368 944 q 617 821 558 878 q 706 691 675 764 q 747 538 736 618 q 757 378 757 457 q 724 174 757 253 q 642 55 692 96 q 539 -1 592 14 q 444 -17 486 -17 m 439 51 q 549 78 494 51 q 641 169 604 106 q 678 339 678 232 q 641 507 678 444 q 549 597 604 569 q 439 625 494 625 q 329 597 385 625 q 237 507 274 569 q 200 339 200 444 q 237 169 200 232 q 329 78 274 106 q 439 51 385 51 z "},"%":{"ha":878,"x_min":22,"x_max":856,"o":"m 231 528 q 124 556 171 528 q 50 631 78 583 q 22 738 22 679 q 50 843 22 796 q 124 919 78 890 q 231 947 171 947 q 337 919 290 947 q 411 843 383 890 q 439 738 439 796 q 411 631 439 679 q 337 556 383 583 q 231 528 290 528 m 231 594 q 330 636 289 594 q 371 738 371 678 q 330 839 371 797 q 231 881 289 881 q 131 839 172 881 q 90 738 90 797 q 131 636 90 678 q 231 594 172 594 m 147 0 l 657 928 l 731 928 l 221 0 l 147 0 m 647 -19 q 542 8 589 -19 q 467 84 494 36 q 439 190 439 132 q 467 297 439 249 q 542 372 494 344 q 647 400 589 400 q 753 372 707 400 q 828 297 800 344 q 856 190 856 249 q 828 84 856 132 q 753 8 800 36 q 647 -19 707 -19 m 647 47 q 747 89 706 47 q 788 190 788 131 q 747 292 788 250 q 647 333 706 333 q 548 292 589 333 q 507 190 507 250 q 548 89 507 131 q 647 47 589 47 z "},"‰":{"ha":878,"x_min":39,"x_max":839,"o":"m 228 572 q 133 597 176 572 q 65 665 90 622 q 39 760 39 708 q 65 855 39 813 q 133 922 90 897 q 228 947 176 947 q 323 922 281 947 q 391 855 365 897 q 417 760 417 813 q 391 665 417 708 q 323 597 365 622 q 228 572 281 572 m 228 633 q 319 671 282 633 q 356 760 356 708 q 319 849 356 813 q 228 886 282 886 q 137 849 174 886 q 100 760 100 813 q 137 671 100 708 q 228 633 174 633 m 228 -19 q 133 6 176 -19 q 65 74 90 31 q 39 168 39 117 q 65 263 39 221 q 133 331 90 306 q 228 356 176 356 q 323 331 281 356 q 391 263 365 306 q 417 168 417 221 q 391 74 417 117 q 323 6 365 31 q 228 -19 281 -19 m 228 42 q 319 79 282 42 q 356 168 356 117 q 319 258 356 221 q 228 294 282 294 q 137 258 174 294 q 100 168 100 221 q 137 79 100 117 q 228 42 174 42 m 650 -19 q 556 6 599 -19 q 487 74 513 31 q 461 168 461 117 q 487 263 461 221 q 556 331 513 306 q 650 356 599 356 q 745 331 703 356 q 813 263 788 306 q 839 168 839 221 q 813 74 839 117 q 745 6 788 31 q 650 -19 703 -19 m 650 42 q 741 79 704 42 q 778 168 778 117 q 741 258 778 221 q 650 294 704 294 q 559 258 596 294 q 522 168 522 221 q 559 79 522 117 q 650 42 596 42 m 46 367 l 46 433 l 832 715 l 832 649 l 46 367 z "},"◊":{"ha":878,"x_min":149,"x_max":729,"o":"m 440 -87 l 149 439 l 440 967 l 729 439 l 440 -87 m 440 71 l 646 439 l 440 808 l 232 439 l 440 71 z "},"̈":{"ha":0,"x_min":267,"x_max":611,"o":"m 550 832 q 507 850 525 832 q 489 893 489 868 q 507 936 489 918 q 550 954 525 954 q 593 936 575 954 q 611 893 611 918 q 593 850 611 868 q 550 832 575 832 m 328 832 q 285 850 303 832 q 267 893 267 868 q 285 936 267 918 q 328 954 303 954 q 371 936 353 954 q 389 893 389 918 q 371 850 389 868 q 328 832 353 832 z "},"̇":{"ha":0,"x_min":376,"x_max":501,"o":"m 439 829 q 395 847 414 829 q 376 892 376 865 q 395 936 376 918 q 439 954 414 954 q 483 936 464 954 q 501 892 501 918 q 483 847 501 865 q 439 829 464 829 z "},"̀":{"ha":0,"x_min":343,"x_max":536,"o":"m 472 790 l 393 861 q 354 900 365 888 q 343 931 343 913 q 353 956 343 946 q 379 967 363 967 q 408 955 396 967 q 436 924 421 943 l 536 790 l 472 790 z "},"́":{"ha":0,"x_min":343,"x_max":536,"o":"m 343 790 l 443 924 q 471 955 458 943 q 500 967 483 967 q 526 956 517 967 q 536 931 536 946 q 525 900 536 913 q 486 861 514 888 l 407 790 l 343 790 z "},"̋":{"ha":0,"x_min":258,"x_max":621,"o":"m 258 790 l 357 924 q 385 954 372 943 q 414 965 397 965 q 438 956 431 965 q 446 932 446 947 q 435 902 446 915 q 396 863 424 889 l 317 790 l 258 790 m 433 790 l 532 924 q 560 954 547 943 q 589 965 572 965 q 613 956 606 965 q 621 932 621 947 q 610 902 621 915 q 571 863 599 889 l 492 790 l 433 790 z "},"̂":{"ha":0,"x_min":267,"x_max":611,"o":"m 267 800 l 378 914 q 408 936 393 929 q 440 943 422 943 q 472 936 457 943 q 500 914 486 929 l 611 800 l 535 800 l 438 883 l 343 800 l 267 800 z "},"̌":{"ha":0,"x_min":267,"x_max":611,"o":"m 440 792 q 378 821 407 792 l 267 935 l 343 935 l 438 851 l 535 935 l 611 935 l 500 821 q 440 792 471 792 z "},"̆":{"ha":0,"x_min":279,"x_max":599,"o":"m 439 794 q 333 835 375 794 q 279 932 290 876 l 335 932 q 368 877 342 903 q 439 851 394 851 q 509 877 483 851 q 543 932 535 903 l 599 932 q 546 835 588 876 q 439 794 504 794 z "},"̊":{"ha":0,"x_min":307,"x_max":571,"o":"m 439 796 q 373 814 403 796 q 325 862 343 832 q 307 928 307 892 q 325 994 307 964 q 373 1042 343 1024 q 439 1060 403 1060 q 506 1042 476 1060 q 553 994 536 1024 q 571 928 571 964 q 553 862 571 892 q 506 814 536 832 q 439 796 476 796 m 439 851 q 493 874 471 851 q 515 928 515 897 q 493 982 515 960 q 439 1004 471 1004 q 385 982 408 1004 q 363 928 363 960 q 385 874 363 897 q 439 851 408 851 z "},"̃":{"ha":0,"x_min":246,"x_max":632,"o":"m 525 800 q 465 814 493 800 q 413 842 438 828 q 363 856 388 856 q 322 842 339 856 q 301 801 304 828 l 246 801 q 291 888 257 864 q 365 913 325 913 q 424 899 399 913 q 474 872 450 886 q 524 858 497 858 q 558 869 546 858 q 579 896 569 881 q 594 912 586 907 q 610 917 601 917 q 625 911 618 917 q 632 890 632 906 q 621 858 632 881 q 586 818 610 836 q 525 800 563 800 z "},"̄":{"ha":0,"x_min":263,"x_max":615,"o":"m 263 843 l 263 904 l 615 904 l 615 843 l 263 843 z "},"̦":{"ha":0,"x_min":351,"x_max":526,"o":"m 393 -322 l 351 -287 q 401 -275 375 -285 q 445 -244 426 -265 q 464 -187 464 -222 q 452 -137 464 -161 q 413 -97 440 -114 l 472 -72 q 513 -120 500 -96 q 526 -176 526 -144 q 506 -253 526 -221 q 456 -302 486 -285 q 393 -322 425 -319 z "},"̧":{"ha":0,"x_min":322,"x_max":557,"o":"m 435 -246 q 377 -236 408 -246 q 322 -212 346 -226 l 342 -178 q 391 -197 371 -192 q 432 -201 411 -201 q 485 -182 471 -201 q 499 -149 499 -162 q 486 -118 499 -129 q 442 -107 474 -107 q 410 -111 426 -107 q 383 -115 394 -115 q 365 -103 368 -115 q 371 -76 361 -90 l 435 28 l 476 8 l 428 -67 q 453 -62 442 -64 q 471 -61 465 -61 q 519 -72 500 -61 q 547 -101 538 -83 q 557 -137 557 -118 q 544 -184 557 -158 q 505 -228 532 -210 q 435 -246 478 -246 z "},"̨":{"ha":0,"x_min":349,"x_max":529,"o":"m 463 -233 q 404 -221 431 -233 q 363 -185 378 -208 q 349 -131 349 -162 q 363 -69 349 -96 q 408 -19 378 -42 q 481 24 438 3 l 529 0 q 442 -49 474 -18 q 411 -117 411 -81 q 432 -162 411 -147 q 482 -176 453 -176 q 508 -174 496 -176 q 529 -167 519 -171 l 529 -221 q 494 -231 508 -229 q 463 -233 479 -233 z "},"¨":{"ha":878,"x_min":267,"x_max":611,"o":"m 550 832 q 507 850 525 832 q 489 893 489 868 q 507 936 489 918 q 550 954 525 954 q 593 936 575 954 q 611 893 611 918 q 593 850 611 868 q 550 832 575 832 m 328 832 q 285 850 303 832 q 267 893 267 868 q 285 936 267 918 q 328 954 303 954 q 371 936 353 954 q 389 893 389 918 q 371 850 389 868 q 328 832 353 832 z "},"˙":{"ha":878,"x_min":376,"x_max":501,"o":"m 439 829 q 395 847 414 829 q 376 892 376 865 q 395 936 376 918 q 439 954 414 954 q 483 936 464 954 q 501 892 501 918 q 483 847 501 865 q 439 829 464 829 z "},"`":{"ha":878,"x_min":343,"x_max":536,"o":"m 472 790 l 393 861 q 354 900 365 888 q 343 931 343 913 q 353 956 343 946 q 379 967 363 967 q 408 955 396 967 q 436 924 421 943 l 536 790 l 472 790 z "},"´":{"ha":878,"x_min":343,"x_max":536,"o":"m 343 790 l 443 924 q 471 955 458 943 q 500 967 483 967 q 526 956 517 967 q 536 931 536 946 q 525 900 536 913 q 486 861 514 888 l 407 790 l 343 790 z "},"˝":{"ha":878,"x_min":258,"x_max":621,"o":"m 258 790 l 357 924 q 385 954 372 943 q 414 965 397 965 q 438 956 431 965 q 446 932 446 947 q 435 902 446 915 q 396 863 424 889 l 317 790 l 258 790 m 433 790 l 532 924 q 560 954 547 943 q 589 965 572 965 q 613 956 606 965 q 621 932 621 947 q 610 902 621 915 q 571 863 599 889 l 492 790 l 433 790 z "},"ˆ":{"ha":878,"x_min":267,"x_max":611,"o":"m 267 800 l 378 914 q 408 936 393 929 q 440 943 422 943 q 472 936 457 943 q 500 914 486 929 l 611 800 l 535 800 l 438 883 l 343 800 l 267 800 z "},"ˉ":{"ha":878,"x_min":256,"x_max":622,"o":"m 256 872 l 256 943 l 622 943 l 622 872 l 256 872 z "},"ˇ":{"ha":878,"x_min":267,"x_max":611,"o":"m 440 792 q 378 821 407 792 l 267 935 l 343 935 l 438 851 l 535 935 l 611 935 l 500 821 q 440 792 471 792 z "},"˘":{"ha":878,"x_min":279,"x_max":599,"o":"m 439 794 q 333 835 375 794 q 279 932 290 876 l 335 932 q 368 877 342 903 q 439 851 394 851 q 509 877 483 851 q 543 932 535 903 l 599 932 q 546 835 588 876 q 439 794 504 794 z "},"˚":{"ha":878,"x_min":307,"x_max":571,"o":"m 439 796 q 373 814 403 796 q 325 862 343 832 q 307 928 307 892 q 325 994 307 964 q 373 1042 343 1024 q 439 1060 403 1060 q 506 1042 476 1060 q 553 994 536 1024 q 571 928 571 964 q 553 862 571 892 q 506 814 536 832 q 439 796 476 796 m 439 851 q 493 874 471 851 q 515 928 515 897 q 493 982 515 960 q 439 1004 471 1004 q 385 982 408 1004 q 363 928 363 960 q 385 874 363 897 q 439 851 408 851 z "},"˜":{"ha":878,"x_min":246,"x_max":632,"o":"m 525 800 q 465 814 493 800 q 413 842 438 828 q 363 856 388 856 q 322 842 339 856 q 301 801 304 828 l 246 801 q 291 888 257 864 q 365 913 325 913 q 424 899 399 913 q 474 872 450 886 q 524 858 497 858 q 558 869 546 858 q 579 896 569 881 q 594 912 586 907 q 610 917 601 917 q 625 911 618 917 q 632 890 632 906 q 621 858 632 881 q 586 818 610 836 q 525 800 563 800 z "},"¯":{"ha":878,"x_min":263,"x_max":615,"o":"m 263 843 l 263 904 l 615 904 l 615 843 l 263 843 z "},"¸":{"ha":878,"x_min":322,"x_max":557,"o":"m 435 -246 q 377 -236 408 -246 q 322 -212 346 -226 l 342 -178 q 391 -197 371 -192 q 432 -201 411 -201 q 485 -182 471 -201 q 499 -149 499 -162 q 486 -118 499 -129 q 442 -107 474 -107 q 410 -111 426 -107 q 383 -115 394 -115 q 365 -103 368 -115 q 371 -76 361 -90 l 435 28 l 476 8 l 428 -67 q 453 -62 442 -64 q 471 -61 465 -61 q 519 -72 500 -61 q 547 -101 538 -83 q 557 -137 557 -118 q 544 -184 557 -158 q 505 -228 532 -210 q 435 -246 478 -246 z "},"˛":{"ha":878,"x_min":349,"x_max":529,"o":"m 463 -233 q 404 -221 431 -233 q 363 -185 378 -208 q 349 -131 349 -162 q 363 -69 349 -96 q 408 -19 378 -42 q 481 24 438 3 l 529 0 q 442 -49 474 -18 q 411 -117 411 -81 q 432 -162 411 -147 q 482 -176 453 -176 q 508 -174 496 -176 q 529 -167 519 -171 l 529 -221 q 494 -231 508 -229 q 463 -233 479 -233 z "},"⁄":{"ha":878,"x_min":74,"x_max":804,"o":"m 74 0 l 724 928 l 804 928 l 154 0 l 74 0 z "},"½":{"ha":878,"x_min":88,"x_max":794,"o":"m 182 507 l 182 825 l 88 825 l 88 869 q 153 883 124 869 q 192 928 182 896 l 251 928 l 251 507 l 182 507 m 108 0 l 618 928 l 692 928 l 182 0 l 108 0 m 486 0 l 486 56 q 613 160 564 118 q 687 236 663 203 q 711 304 711 269 q 692 354 711 336 q 642 372 674 372 q 593 356 615 372 q 565 304 571 340 l 499 324 q 549 400 511 372 q 646 428 588 428 q 744 396 707 428 q 782 311 782 364 q 730 190 782 247 q 586 64 678 133 l 794 64 l 794 0 l 486 0 z "},"¼":{"ha":878,"x_min":126,"x_max":808,"o":"m 221 507 l 221 825 l 126 825 l 126 869 q 192 883 163 869 q 231 928 221 896 l 290 928 l 290 507 l 221 507 m 147 0 l 657 928 l 731 928 l 221 0 l 147 0 m 672 0 l 672 90 l 456 90 l 456 151 l 672 422 l 740 422 l 740 153 l 808 153 l 808 90 l 740 90 l 740 0 l 672 0 m 531 153 l 672 153 l 672 326 l 669 326 l 531 153 z "},"¾":{"ha":878,"x_min":49,"x_max":829,"o":"m 168 0 l 678 928 l 751 928 l 242 0 l 168 0 m 693 0 l 693 90 l 476 90 l 476 151 l 693 422 l 761 422 l 761 153 l 829 153 l 829 90 l 761 90 l 761 0 l 693 0 m 551 153 l 693 153 l 693 326 l 690 326 l 551 153 m 201 511 q 101 539 140 511 q 49 610 63 567 l 117 629 q 145 584 124 601 q 203 567 167 567 q 261 585 238 567 q 285 635 285 603 q 256 692 285 675 q 160 706 228 708 l 160 765 q 248 779 221 761 q 275 829 275 797 q 253 874 275 860 q 204 889 232 889 q 151 874 172 889 q 119 829 131 858 l 54 849 q 109 919 69 893 q 208 944 149 944 q 274 933 242 944 q 326 897 306 922 q 346 832 346 872 q 328 777 346 801 q 285 739 311 753 q 338 698 321 725 q 356 639 356 671 q 334 566 356 594 q 278 524 313 538 q 201 511 243 511 z "},"¹":{"ha":878,"x_min":364,"x_max":556,"o":"m 489 506 l 489 972 l 364 972 l 364 1003 q 444 1024 407 1003 q 496 1082 482 1044 l 556 1082 l 556 506 l 489 506 z "},"²":{"ha":878,"x_min":242,"x_max":638,"o":"m 242 506 l 242 563 q 412 715 344 650 q 512 835 479 781 q 544 940 544 889 q 515 1010 544 985 q 440 1036 486 1036 q 372 1015 406 1036 q 332 935 339 994 l 260 946 q 318 1051 271 1011 q 444 1092 365 1092 q 570 1049 522 1092 q 618 942 618 1007 q 544 767 618 858 q 328 565 471 675 l 638 565 l 638 506 l 242 506 z "},"³":{"ha":878,"x_min":243,"x_max":636,"o":"m 436 496 q 304 538 351 496 q 243 639 257 581 l 308 651 q 349 582 319 613 q 435 551 378 551 q 526 579 485 551 q 567 661 567 607 q 538 744 567 717 q 467 780 510 772 q 378 782 424 788 l 378 836 q 462 838 422 832 q 527 869 501 844 q 553 942 553 894 q 518 1015 553 993 q 442 1036 483 1036 q 358 1013 389 1036 q 315 940 328 989 l 250 953 q 317 1053 265 1014 q 447 1092 368 1092 q 525 1077 483 1092 q 596 1028 567 1063 q 625 938 625 994 q 601 865 625 899 q 538 810 576 832 q 613 749 589 789 q 636 671 636 710 q 608 572 636 611 q 535 515 581 533 q 436 496 489 496 z "}}}
